<svg xmlns="http://www.w3.org/2000/svg" width="14" height="14" viewBox="0 0 14 14"><defs><style>.a{opacity:0.75;}</style></defs><g class="a" transform="translate(0 0)"><path d="M13.364,3.181H2.172l2.1-2.1a.636.636,0,0,0-.9-.9L.186,3.368a.636.636,0,0,0,0,.9L3.368,7.45a.636.636,0,1,0,.9-.9l-2.1-2.1H13.364a.636.636,0,1,0,0-1.273Z" transform="translate(0 0)"/><path d="M10.632,150.187a.636.636,0,0,0-.9.9l2.1,2.1H.636a.636.636,0,1,0,0,1.273H11.828l-2.1,2.1a.636.636,0,1,0,.9.9l3.182-3.182a.636.636,0,0,0,0-.9Z" transform="translate(0 -143.637)"/></g></svg>