<svg xmlns="http://www.w3.org/2000/svg" width="31.446" height="31.382" viewBox="0 0 31.446 31.382">
    <path fill="none" stroke="#000" stroke-miterlimit="10" stroke-width="2.25px" d="M31.711 26.3a25.789 25.789 0 0 0-5.133-3.428c-1.709-.861-1.849-.931-3.192.067-.9.666-1.491 1.261-2.54 1.037a13.6 13.6 0 0 1-5.321-3.476 14.052 14.052 0 0 1-3.553-5.378c-.224-1.045.38-1.633 1.04-2.531.93-1.266.859-1.477.065-3.185a23.358 23.358 0 0 0-3.438-5.119C8.43 3.094 8.43 3.305 7.652 3.628a11.261 11.261 0 0 0-1.816.972A5.448 5.448 0 0 0 3.65 6.9c-.437.933-.633 3.12 1.622 7.217a35.744 35.744 0 0 0 7.111 9.456 38.9 38.9 0 0 0 9.474 7.085c4.553 2.55 6.3 2.053 7.236 1.617a5.419 5.419 0 0 0 2.308-2.18 11.186 11.186 0 0 0 .97-1.814c.324-.781.535-.781-.66-1.981z" transform="translate(-2.224 -2.329)"/>
</svg>
