<svg xmlns="http://www.w3.org/2000/svg" xmlns:xlink="http://www.w3.org/1999/xlink" width="463.972" height="276.059" viewBox="0 0 463.972 276.059">
    <defs>
        <linearGradient id="linear-gradient" x1=".5" x2=".5" y1="1" gradientUnits="objectBoundingBox">
            <stop offset="0" stop-color="#ad9eea"/>
            <stop offset=".25" stop-color="#b3a6eb"/>
            <stop offset=".645" stop-color="#c3bcef"/>
            <stop offset="1" stop-color="#d7d7f4"/>
        </linearGradient>
        <linearGradient id="linear-gradient-2" x1=".898" x2=".044" y1=".997" y2=".022" gradientUnits="objectBoundingBox">
            <stop offset="0" stop-color="#5b6dff" stop-opacity=".2"/>
            <stop offset="1" stop-color="#5b6dff" stop-opacity=".102"/>
        </linearGradient>
        <linearGradient id="linear-gradient-3" x1="1.544" x2="-.388" y1=".896" y2=".037" xlink:href="#linear-gradient-2"/>
        <linearGradient id="linear-gradient-4" x1="2.231" x2="-.892" y1=".872" y2=".054" xlink:href="#linear-gradient-2"/>
        <linearGradient id="linear-gradient-5" x1=".894" x2=".02" y1=".792" y2=".171" xlink:href="#linear-gradient-2"/>
        <linearGradient id="linear-gradient-6" x1=".702" x2=".296" y1=".736" y2=".211" xlink:href="#linear-gradient-2"/>
        <linearGradient id="linear-gradient-7" x1=".624" x2=".326" y1=".7" y2=".24" xlink:href="#linear-gradient-2"/>
        <linearGradient id="linear-gradient-8" x1=".671" x2=".239" y1="1.207" y2="-.237" xlink:href="#linear-gradient-2"/>
        <linearGradient id="linear-gradient-9" x1="1.046" x2=".24" y1=".512" y2="-1.086" xlink:href="#linear-gradient"/>
        <linearGradient id="linear-gradient-10" x1="-.103" x2="1.077" y1=".917" y2=".061" xlink:href="#linear-gradient"/>
        <linearGradient id="linear-gradient-11" x1="-.098" x2="1.232" y1=".92" y2=".063" xlink:href="#linear-gradient"/>
        <linearGradient id="linear-gradient-12" x2="1" y1=".5" y2=".5" gradientUnits="objectBoundingBox">
            <stop offset="0" stop-color="#b6bcfc"/>
            <stop offset="1" stop-color="#ffcae0"/>
        </linearGradient>
        <linearGradient id="linear-gradient-13" x1=".017" x2=".982" y1=".739" y2=".165" xlink:href="#linear-gradient-12"/>
        <linearGradient id="linear-gradient-14" x2="1" y1=".5" y2=".5" gradientUnits="objectBoundingBox">
            <stop offset="0" stop-color="#a79efc"/>
            <stop offset="1" stop-color="#ffc3d4"/>
        </linearGradient>
        <linearGradient id="linear-gradient-18" x1="4.351" x2="4.351" y1=".503" y2="-.48" gradientUnits="objectBoundingBox">
            <stop offset=".337" stop-color="#516dfc"/>
            <stop offset=".512" stop-color="#546efa"/>
            <stop offset=".669" stop-color="#5f74f7"/>
            <stop offset=".818" stop-color="#717df2"/>
            <stop offset=".963" stop-color="#8b8aea"/>
            <stop offset="1" stop-color="#938ee8"/>
        </linearGradient>
        <linearGradient id="linear-gradient-19" x1=".5" x2=".5" y1="1" gradientUnits="objectBoundingBox">
            <stop offset="0" stop-color="#6d79fc"/>
            <stop offset="1" stop-color="#c8a6e0"/>
        </linearGradient>
        <linearGradient id="linear-gradient-20" x1=".5" x2=".5" y1="1" y2="0" xlink:href="#linear-gradient-18"/>
        <linearGradient id="linear-gradient-21" x1=".102" x2=".846" y1=".966" y2=".025" gradientUnits="objectBoundingBox">
            <stop offset=".393" stop-color="#f9c6b9"/>
            <stop offset=".575" stop-color="#f9c3b6"/>
            <stop offset=".706" stop-color="#f9b9ac"/>
            <stop offset=".822" stop-color="#f9a99d"/>
            <stop offset=".928" stop-color="#f99387"/>
            <stop offset="1" stop-color="#f98074"/>
        </linearGradient>
        <linearGradient id="linear-gradient-22" x1=".214" x2="1.421" y1=".851" y2=".05" xlink:href="#linear-gradient-21"/>
        <linearGradient id="linear-gradient-23" x2="1" y1=".5" y2=".5" gradientUnits="objectBoundingBox">
            <stop offset=".184" stop-color="#f9c6b9"/>
            <stop offset=".428" stop-color="#f9c3b6"/>
            <stop offset=".605" stop-color="#f9b9ac"/>
            <stop offset=".761" stop-color="#f9a99d"/>
            <stop offset=".903" stop-color="#f99387"/>
            <stop offset="1" stop-color="#f98074"/>
        </linearGradient>
        <linearGradient id="linear-gradient-24" x1="-11.354" x2="-9.336" y1="15.356" y2="16.226" gradientUnits="objectBoundingBox">
            <stop offset=".133" stop-color="#f9c6b9"/>
            <stop offset=".338" stop-color="#f9c1b4"/>
            <stop offset=".547" stop-color="#f9b5a8"/>
            <stop offset=".757" stop-color="#f9a194"/>
            <stop offset=".967" stop-color="#f98579"/>
            <stop offset="1" stop-color="#f98074"/>
        </linearGradient>
        <linearGradient id="linear-gradient-25" x1=".117" x2="1.083" y1=".837" y2=".17" gradientUnits="objectBoundingBox">
            <stop offset="0" stop-color="#babeff" stop-opacity=".6"/>
            <stop offset="1" stop-color="#f6f3ff" stop-opacity=".4"/>
        </linearGradient>
        <linearGradient id="linear-gradient-26" x1=".256" x2=".75" y1="1.259" y2="-.239" xlink:href="#linear-gradient-12"/>
        <clipPath id="clip-path">
            <path id="Path_456" fill="none" d="M-283.9 85.676a34.742 34.742 0 0 0 2.961-4.79c4.255-8.4 4.657-18.217 3.974-27.607a133.445 133.445 0 0 0-6.259-31.787c-1.26-3.849-3.045-8.027-6.759-9.642-2.844-1.236-6.119-.635-9.129.11a112.973 112.973 0 0 0-34.325 14.892c9.407-17.991 28.162-29.317 39.151-46.388 1.555-2.415 2.934-5.642 1.292-8-1.85-2.655-5.9-2.017-8.957-.973a130.735 130.735 0 0 0-65.558 50.1c6.746-29.528 35.685-47.89 52.194-73.284 2.455-3.776 4.4-9.38.946-12.265-1.691-1.41-4.1-1.522-6.293-1.372-7.558.518-14.769 3.314-21.642 6.5a185.644 185.644 0 0 0-65.343 50.674c4.476-12.773 16.867-21.33 22.226-33.76 1.361-3.157 1.888-7.551-1.015-9.393-1.737-1.1-3.993-.753-5.991-.263-26.966 6.61-49.183 54.138-49.183 54.138s-.59-45.527-2.26-66.921c-.672-8.62-4.154-30.185-17.577-21.9-14.265 8.809-6.425 98.139-6.425 98.139s-5.446-42.107-10.491-62.145c-1.273-5.058-8.538-16.318-12.7-6.456a16.381 16.381 0 0 0-.8 8.179c2.689 23.944 15.055 64.47 15.055 64.47s-23.992-64.338-31.131-77.525S-524.473-87.3-537.5-94.725c-17.956-10.236-37.97-.862-39.939 21.921-4.009 46.382 78.559 138.917 95.269 155.76C-523.294 22.03-610.1-19.012-633.828-.763c-3.364 2.587-9.443 8.289-5.366 20.825 3.942 12.121 53.025 65.614 83.367 65.614z"/>
        </clipPath>
        <style>
            .cls-15,.cls-30,.cls-34,.cls-37{fill:none}.cls-24,.cls-27,.cls-36{mix-blend-mode:multiply;isolation:isolate}.cls-15{stroke:#e4e3ff}.cls-15,.cls-30,.cls-34,.cls-37{stroke-miterlimit:10}.cls-16{fill:url(#linear-gradient-12)}.cls-21{fill:#fff}.cls-24{fill:#abbdff;opacity:.55}.cls-27{fill:#c5cffc;opacity:.75}.cls-30{stroke:#f4dce9;stroke-width:2px}.cls-34{stroke:#f49e87}.cls-35{fill:#d62e3c}.cls-36{fill:#cc729b;opacity:.45}.cls-37{stroke:#d31e67}.cls-39{fill:#103fcd}.cls-40{fill:#0d30bf}.cls-41{fill:#2d7dd2}.cls-43{fill:#f9c6b9}.cls-45{fill:#081466}.cls-47{fill:#efa39c}.cls-53{fill:#646ef2}
        </style>
    </defs>
    <g id="Group_264" transform="translate(640.553 189.664)">
        <g id="Group_215">
            <path id="Path_447" fill="url(#linear-gradient)" d="M-453.876-18.1c-3.641.371-6.832 2.833-8.828 5.9a23.351 23.351 0 0 0-2.956 7.28c-.065-4.235-.184-8.484-.38-12.736 7.061-2.53 12.129-8.711 10.268-13.756a10.723 10.723 0 0 0-7.575 5.063 21.293 21.293 0 0 0-2.765 7.253c-.2-3.951-.462-7.9-.814-11.842 6.958-2.574 11.917-8.686 10.073-13.684a10.723 10.723 0 0 0-7.575 5.063 20.718 20.718 0 0 0-2.669 6.814q-.477-4.947-1.152-9.861c5.88-3.175 9.484-9.388 7.1-13.526a9.369 9.369 0 0 0-5.778 5.476 20.3 20.3 0 0 0-1.343 7.883q-.651-4.665-1.51-9.284c5.349-3.831 8.132-10.278 5.339-14.074a9.368 9.368 0 0 0-5.133 6.085 17.535 17.535 0 0 0-.615 5.875q-1.011-5.069-2.311-10.064c5.36-3.828 8.152-10.286 5.356-14.086a9.368 9.368 0 0 0-5.133 6.085 18.479 18.479 0 0 0-.569 6.685q-1.223-4.5-2.719-8.92c4.531-3.227 6.893-8.682 4.532-11.891a7.9 7.9 0 0 0-4.329 5.132 16.181 16.181 0 0 0-.451 6.052q-1.15-3.325-2.476-6.6c3.37-3.356 4.6-8.282 2.167-10.664a6.771 6.771 0 0 0-2.949 4.939 13.072 13.072 0 0 0 .319 4.593c-.488-1.175-.989-2.345-1.514-3.507.218-5.248-2.417-10.155-6.185-10.319a7.6 7.6 0 0 0 1.234 6.339 16.188 16.188 0 0 0 4.654 4.242c.5 1.146.981 2.3 1.446 3.453-2.559-4.234-7.019-6.762-10.185-5.078a7.6 7.6 0 0 0 4.28 4.835 16.4 16.4 0 0 0 6.325 1.307q1.355 3.447 2.509 6.938c-2.866-5.491-8.486-8.941-12.407-6.857a8.87 8.87 0 0 0 4.995 5.644 19.362 19.362 0 0 0 7.52 1.531c.939 2.866 1.777 5.754 2.534 8.66-3.548-5.743-9.626-9.146-13.954-6.845a10.491 10.491 0 0 0 5.907 6.674 22.273 22.273 0 0 0 8.458 1.789q1.194 4.79 2.1 9.639c-2.822-6.585-8.543-11.122-13.528-9.526a11.549 11.549 0 0 0 5.093 8.391 24.593 24.593 0 0 0 8.885 3.609q.729 4.169 1.289 8.37c-5.08-5.693-12.619-8.229-16.887-4.733a11.549 11.549 0 0 0 7.819 5.928 24.111 24.111 0 0 0 9.241.143q.717 5.6 1.194 11.247c-5.4-5.481-13.143-7.645-17.236-3.889a11.547 11.547 0 0 0 8.14 5.479 24.059 24.059 0 0 0 9.2-.37c.318 3.852.569 7.716.776 11.585-4.636-6.305-12.186-9.588-16.793-6.34a11.548 11.548 0 0 0 7.372 6.476 24.49 24.49 0 0 0 9.469.789c.231 4.467.407 8.939.562 13.408-4.228-7.341-11.955-11.782-17.3-8.842.909 3.546 3.818 6.334 7.15 7.851A26.646 26.646 0 0 0-466.407-2.9c.159 4.656.3 9.308.463 13.944a.16.16 0 0 0 .32 0c.036-4.368.043-8.771 0-13.192 8.113-2.995 13.897-10.121 11.748-15.952z"/>
            <g id="Group_214">
                <path id="Path_448" fill="#e4e3ff" d="M-283.9 85.676a34.742 34.742 0 0 0 2.961-4.79c4.255-8.4 4.657-18.217 3.974-27.607a133.445 133.445 0 0 0-6.259-31.787c-1.26-3.849-3.045-8.027-6.759-9.642-2.844-1.236-6.119-.635-9.129.11a112.973 112.973 0 0 0-34.325 14.892c9.407-17.991 28.162-29.317 39.151-46.388 1.555-2.415 2.934-5.642 1.292-8-1.85-2.655-5.9-2.017-8.957-.973a130.735 130.735 0 0 0-65.558 50.1c6.746-29.528 35.685-47.89 52.194-73.284 2.455-3.776 4.4-9.38.946-12.265-1.691-1.41-4.1-1.522-6.293-1.372-7.558.518-14.769 3.314-21.642 6.5a185.644 185.644 0 0 0-65.343 50.674c4.476-12.773 16.867-21.33 22.226-33.76 1.361-3.157 1.888-7.551-1.015-9.393-1.737-1.1-3.993-.753-5.991-.263-26.966 6.61-49.183 54.138-49.183 54.138s-.59-45.527-2.26-66.921c-.672-8.62-4.154-30.185-17.577-21.9-14.265 8.809-6.425 98.139-6.425 98.139s-5.446-42.107-10.491-62.145c-1.273-5.058-8.538-16.318-12.7-6.456a16.381 16.381 0 0 0-.8 8.179c2.689 23.944 15.055 64.47 15.055 64.47s-23.992-64.338-31.131-77.525S-524.473-87.3-537.5-94.725c-17.956-10.236-37.97-.862-39.939 21.921-4.009 46.382 78.559 138.917 95.269 155.76C-523.294 22.03-610.1-19.012-633.828-.763c-3.364 2.587-9.443 8.289-5.366 20.825 3.942 12.121 53.025 65.614 83.367 65.614z"/>
                <g id="Group_213">
                    <g id="Group_212" clip-path="url(#clip-path)">
                        <g id="Group_211">
                            <path id="Path_449" d="M-481.673 85.676h9.123c-6.675-16.749-16.25-42.992-29.55-73.784-30.293-70.137-62.488-117.5-62.488-117.5-7.752 3.81-24.3 18.031-25.96 29.6-5.061 35.158 108.875 161.684 108.875 161.684z" style="mix-blend-mode:multiply;isolation:isolate" fill="url(#linear-gradient-2)"/>
                            <path id="Path_450" fill="url(#linear-gradient-3)" d="M-487.7-61.074a622.661 622.661 0 0 1 16.857 86.144c5.893 47.57 7.767 61.333 7.767 61.333l-14.051-72.763-21.454-71.885z"/>
                            <path id="Path_451" fill="url(#linear-gradient-4)" d="M-455.278-88.574s-2.874 151.681 4.123 174.25-7.607-.479-7.607-.479l-9.42-77.177-7.206-93.561z"/>
                            <path id="Path_452" fill="url(#linear-gradient-5)" d="M-386.436-51.309s-23.668 17.4-35.952 43.45C-447.785 46-448.624 86.4-448.624 86.4s-3.411-41.991 7.214-86.567 52.276-76.563 52.276-76.563z"/>
                            <path id="Path_453" fill="url(#linear-gradient-6)" d="M-422.66 85.676s8.442-44.667 27.74-77.656c34.94-59.725 80.546-71.972 80.546-71.972s21.51-23.588-1.415-17.47-79.361 50.338-91.858 73.266c-17.71 32.494-28.749 74.11-21.544 97.035s6.531-3.203 6.531-3.203z"/>
                            <path id="Path_454" fill="url(#linear-gradient-7)" d="M-398.177 86.4s28.387-48.452 55.725-73.052S-293-27.534-293-27.534s4.51-13.959-.88-13.959-23.377 7.993-23.377 7.993l-41.109 37.005-9.148 18.095s-21.014 31.31-30.663 64.8z"/>
                            <path id="Path_455" fill="url(#linear-gradient-8)" d="M-664.627 11.186s20.756-18.265 73.011 9.615 123.472 86.709 123.472 86.709l-117.257 6.5-57.01-31.623z"/>
                        </g>
                    </g>
                </g>
            </g>
            <path id="Path_457" fill="url(#linear-gradient-9)" d="M-483.214 29.909c5.722-6.489 7.432-15.506 2.776-19.616-3.03 2.054-4.671 5.734-4.972 9.382a23.336 23.336 0 0 0 .853 7.814q-3.1-5.547-6.377-11.034c5.015-5.577 6.542-13.422 2.511-16.98a10.723 10.723 0 0 0-4.266 8.05 21.261 21.261 0 0 0 1.007 7.694q-3.072-5.076-6.333-10.037c4.9-5.567 6.367-13.3 2.374-16.823a10.721 10.721 0 0 0-4.267 8.051 20.729 20.729 0 0 0 .88 7.254q-2.763-4.125-5.686-8.128c3.666-5.584 3.89-12.76-.172-15.27a9.366 9.366 0 0 0-2.487 7.562 20.232 20.232 0 0 0 2.543 7.549q-2.778-3.787-5.717-7.436c2.888-5.908 2.278-12.9-1.981-14.916a9.371 9.371 0 0 0-1.631 7.792 17.469 17.469 0 0 0 2.229 5.433q-3.286-3.975-6.792-7.74c2.9-5.913 2.291-12.917-1.972-14.936a9.371 9.371 0 0 0-1.631 7.792 18.491 18.491 0 0 0 2.655 6.13q-3.2-3.372-6.607-6.542c2.454-4.99 1.945-10.909-1.655-12.613a7.9 7.9 0 0 0-1.375 6.571 16.128 16.128 0 0 0 2.463 5.526q-2.585-2.376-5.3-4.617c1.373-4.553.121-9.472-3.153-10.413a6.772 6.772 0 0 0-.252 5.747 13.057 13.057 0 0 0 2.459 3.887c-.988-.8-1.984-1.594-3-2.367-2.3-4.722-6.944-7.79-10.339-6.147a7.6 7.6 0 0 0 4.094 4.995 16.189 16.189 0 0 0 6.116 1.531q1.476 1.154 2.9 2.348c-4.261-2.512-9.387-2.621-11.375.363a7.6 7.6 0 0 0 6.062 2.226 16.407 16.407 0 0 0 6.187-1.851q2.829 2.393 5.5 4.918c-5.127-3.475-11.714-3.846-14.177-.15a8.87 8.87 0 0 0 7.074 2.6 19.378 19.378 0 0 0 7.348-2.22q3.279 3.116 6.341 6.422c-5.848-3.373-12.815-3.486-15.534.594a10.49 10.49 0 0 0 8.366 3.072 22.25 22.25 0 0 0 8.295-2.439q3.324 3.653 6.425 7.492c-5.608-4.459-12.8-5.741-16.431-1.97a11.55 11.55 0 0 0 8.463 4.966 24.622 24.622 0 0 0 9.536-1.038q2.619 3.323 5.105 6.757c-7.173-2.6-15.013-1.258-17.112 3.845A11.548 11.548 0 0 0-513.537.5a24.111 24.111 0 0 0 8.2-4.259q3.29 4.591 6.388 9.336c-7.352-2.265-15.2-.5-17.019 4.754a11.552 11.552 0 0 0 9.765.96 24.065 24.065 0 0 0 7.922-4.691q3.161 4.863 6.18 9.832c-7.073-3.351-15.277-2.66-17.792 2.386a11.552 11.552 0 0 0 9.562 2.2 24.492 24.492 0 0 0 8.711-3.8q3.484 5.735 6.857 11.538c-7.2-4.457-16.116-4.7-19.427.424 2.483 2.69 6.367 3.764 10.019 3.519a26.651 26.651 0 0 0 9.911-3.081q3.526 6.041 7.03 12.068c.1.18.362 0 .267-.177q-3.055-5.788-6.251-11.6z"/>
            <path id="Path_458" fill="url(#linear-gradient-10)" d="M-316.5-33.9q1.1-1.028 2.233-2.032a13.562 13.562 0 0 0 5.016-1.579 6.416 6.416 0 0 0 3.2-4.411c-2.945-1.218-6.713 1.6-8.414 5.7-.772.664-1.552 1.32-2.3 2a10.855 10.855 0 0 0 1.78-3.271 5.717 5.717 0 0 0-.5-4.83c-2.71.954-3.522 5.154-2.146 8.919q-2.162 2.01-4.211 4.128a13.535 13.535 0 0 0 1.782-4.742 6.665 6.665 0 0 0-1.484-5.469c-2.947 1.613-3.085 6.623-.773 10.7-1.77 1.845-3.5 3.73-5.152 5.68a15.357 15.357 0 0 0 1.845-5.132 7.915 7.915 0 0 0-1.76-6.486c-3.485 1.908-3.657 7.818-.941 12.651q-2.7 3.25-5.211 6.669a14.48 14.48 0 0 0 1.5-4.466 7.911 7.911 0 0 0-1.759-6.486c-3.477 1.9-3.655 7.792-.958 12.619-1.483 2.069-2.909 4.182-4.3 6.321a16.647 16.647 0 0 0 1.647-6.211 7.908 7.908 0 0 0-2.47-6.25c-3.288 2.31-2.757 8.314.58 12.833q-2.221 3.434-4.311 6.959a17.246 17.246 0 0 0 .335-5.942 9.054 9.054 0 0 0-3.994-6.573c-3.18 3.158-1.584 9.569 2.791 14.017q-2.455 4.234-4.743 8.563a17.629 17.629 0 0 0 .418-6.269 9.054 9.054 0 0 0-4-6.573c-3.21 3.187-1.556 9.688 2.911 14.139q-2.454 4.7-4.746 9.459a19.467 19.467 0 0 0 .295-6.427 10.545 10.545 0 0 0-4.654-7.66c-3.71 3.684-1.843 11.167 3.267 16.35q-2.4 5.06-4.676 10.113c-.083.184.181.348.277.162 1.794-3.491 3.572-7 5.362-10.506a22.417 22.417 0 0 0 8.448 2.082 10.549 10.549 0 0 0 8.268-3.46c-3.023-4.128-10.444-3.52-16.278.521q2.55-4.988 5.164-9.941A20.548 20.548 0 0 0-341.7 14.7a9.745 9.745 0 0 0 7.948-2.329c-2.35-4.1-9.212-4.3-14.979-1.2q2.277-4.268 4.658-8.466a20.192 20.192 0 0 0 6.84 3.511 9.75 9.75 0 0 0 8.182-1.292c-1.782-4.3-8.4-5.423-14.454-3.212q2.357-4.1 4.864-8.092a20.24 20.24 0 0 0 7.057 3.14 9.746 9.746 0 0 0 8.1-1.75c-2.007-4.167-8.6-4.927-14.486-2.443q1.9-2.98 3.92-5.882a20.654 20.654 0 0 0 8.011.388 9.747 9.747 0 0 0 6.886-4.6c-3.188-2.944-9.032-1.617-13.508 2.254q2.342-3.26 4.86-6.389a18.715 18.715 0 0 0 7.054 1.622 8.854 8.854 0 0 0 6.9-3c-2.465-3.266-8.227-2.872-12.959.164q2.37-2.867 4.912-5.6A16.261 16.261 0 0 0-315.645-27a7.487 7.487 0 0 0 5.832-2.539c-2.218-2.939-7.594-2.374-11.716.662q2.04-2.166 4.209-4.236a13.787 13.787 0 0 0 5.268 1.239 6.415 6.415 0 0 0 5-2.176c-1.797-2.38-6.006-2.079-9.448.15z"/>
            <path id="Path_459" fill="url(#linear-gradient-11)" d="M-423.124-66.954a7.486 7.486 0 0 0 4.467-4.529c-3.152-1.9-7.928.624-10.623 4.974q1.086-2.769 2.327-5.5a13.8 13.8 0 0 0 5.348-.811 6.416 6.416 0 0 0 3.828-3.881c-2.552-1.538-6.344.307-8.7 3.657q.637-1.363 1.314-2.716a13.554 13.554 0 0 0 4.066-3.333 6.416 6.416 0 0 0 1.329-5.287c-3.169-.033-5.605 3.944-5.683 8.351-.478.921-.938 1.848-1.389 2.78a10.817 10.817 0 0 0 .43-3.684 5.714 5.714 0 0 0-2.26-4.3c-2.156 1.891-1.351 6.081 1.319 9.062q-1.243 2.642-2.349 5.339a13.452 13.452 0 0 0-.122-4.99 6.67 6.67 0 0 0-3.414-4.523c-2.131 2.591-.4 7.277 3.249 10.2q-1.434 3.563-2.644 7.211a15.336 15.336 0 0 0-.2-5.453 7.908 7.908 0 0 0-4.049-5.362c-2.523 3.067-.482 8.613 3.836 12.086q-1.29 4-2.343 8.086a14.419 14.419 0 0 0-.279-4.654 7.909 7.909 0 0 0-4.049-5.363c-2.518 3.061-.49 8.591 3.811 12.065q-.9 3.661-1.632 7.37a16.493 16.493 0 0 0-.789-6.278 7.908 7.908 0 0 0-4.62-4.879c-2.19 3.365.535 8.733 5.308 11.685q-.783 4.014-1.4 8.066a17.227 17.227 0 0 0-1.9-5.633A9.054 9.054 0 0 0-447.1-41.8c-1.774 4.113 2.089 9.463 7.8 11.962q-.7 4.836-1.2 9.7a17.618 17.618 0 0 0-1.956-5.962 9.054 9.054 0 0 0-6.154-4.613c-1.791 4.151 2.16 9.563 7.957 12.032q-.525 5.262-.875 10.517a19.46 19.46 0 0 0-2.114-6.04 10.547 10.547 0 0 0-7.173-5.375c-2.07 4.8 2.449 11.048 9.121 13.955q-.348 5.6-.571 11.151c-.009.209.3.2.32 0 .364-3.9.706-7.811 1.06-11.724a22.391 22.391 0 0 0 8.616-1.214 10.551 10.551 0 0 0 6.384-6.292c-4.344-2.705-11 .626-14.913 6.55.339-3.719.693-7.439 1.089-11.151a20.54 20.54 0 0 0 7.94-.244 9.746 9.746 0 0 0 6.509-5.123c-3.707-2.925-10.153-.561-14.351 4.464q.523-4.809 1.169-9.593a20.182 20.182 0 0 0 7.656.709 9.747 9.747 0 0 0 7.111-4.246c-3.257-3.331-9.819-1.9-14.61 2.4q.66-4.682 1.5-9.321a20.251 20.251 0 0 0 7.719.285 9.749 9.749 0 0 0 6.861-4.64c-3.415-3.12-9.818-1.369-14.354 3.129q.658-3.476 1.447-6.918a20.678 20.678 0 0 0 7.579-2.625 9.752 9.752 0 0 0 4.675-6.837c-4.056-1.545-8.983 1.864-11.7 7.122q.959-3.9 2.13-7.738a18.713 18.713 0 0 0 7.149-1.122 8.86 8.86 0 0 0 5.283-5.357c-3.5-2.113-8.7.4-11.963 4.978.754-2.361 1.572-4.7 2.471-7.028a16.274 16.274 0 0 0 6.364-.945z"/>
        </g>
        <g id="Group_222">
            <g id="Group_216">
                <path id="Path_460" d="M-288.526-189.077a26.98 26.98 0 0 0-28.306 21.309 26.8 26.8 0 0 0 5.882 22.933l-2.873 8.218a1.04 1.04 0 0 0 1.373 1.306l8.751-3.551a26.891 26.891 0 0 0 11.1 3.366 26.985 26.985 0 0 0 28.45-21.724 26.87 26.87 0 0 0-24.377-31.857z" class="cls-15"/>
                <path id="Path_461" d="M-300.674-148.149l-3.364-2.66a2.994 2.994 0 0 1-.491-4.2l2.556-3.232a2.994 2.994 0 0 1 4.2-.491s1.88 1.851 3.478 1.116c1.819-.837 5.336-4.736 7.08-7.553 1.227-1.983-2.03-4.346-2.03-4.346a2.994 2.994 0 0 1-.491-4.2l2.556-3.232a2.994 2.994 0 0 1 4.2-.491l3.363 2.66c7.589 5.988-14.452 31.853-21.057 26.629z" class="cls-16"/>
            </g>
            <g id="Group_217">
                <path id="Path_462" d="M-202.492-52.488a23.064 23.064 0 0 0-20.5 20.638 22.959 22.959 0 0 0 7.954 19.721l-1.274 7.006a1.04 1.04 0 0 0 1.559 1.077l6.644-4a23.082 23.082 0 0 0 10.678 1.286 23.067 23.067 0 0 0 20.222-20.548 23.009 23.009 0 0 0-25.283-25.18z" class="cls-15"/>
                <path id="Path_463" fill="url(#linear-gradient-13)" d="M-200.1-19.86a1.839 1.839 0 0 1-1.839-1.838v-2.153a7.648 7.648 0 0 1 4.006-6.813 4.746 4.746 0 0 0 2.6-4.317 4.857 4.857 0 0 0-4.7-4.7h-.07a4.728 4.728 0 0 0-3.346 1.374 4.729 4.729 0 0 0-1.42 3.394 1.839 1.839 0 0 1-1.838 1.838 1.84 1.84 0 0 1-1.839-1.838 8.381 8.381 0 0 1 2.516-6.013 8.623 8.623 0 0 1 6.047-2.431 8.5 8.5 0 0 1 8.325 8.325 8.4 8.4 0 0 1-4.6 7.639 3.944 3.944 0 0 0-2 3.541v2.152a1.839 1.839 0 0 1-1.842 1.84zm0 1.2a1.838 1.838 0 0 0-1.838 1.838 1.838 1.838 0 0 0 1.838 1.838 1.838 1.838 0 0 0 1.839-1.838 1.838 1.838 0 0 0-1.839-1.835z"/>
            </g>
            <g id="Group_221">
                <g id="Group_218">
                    <path id="Path_464" fill="none" stroke="#fff" stroke-miterlimit="10" stroke-width="1.5px" d="M-485.64-174.517a31.966 31.966 0 0 1 39.2 14.4 31.785 31.785 0 0 1 .977 28.81l6.117 8.788a1.059 1.059 0 0 1-.989 1.656l-11.508-1.314a31.908 31.908 0 0 1-11.637 7.388 31.969 31.969 0 0 1-38.954-14.941 31.858 31.858 0 0 1 16.794-44.787z"/>
                </g>
                <g id="Group_220">
                    <g id="Group_219">
                        <path id="Path_465" fill="#9999ef" d="M-461.053-128.871l-29.964-5.662.451-22.173 36.3 6.349z"/>
                        <path id="Path_466" fill="url(#linear-gradient-14)" d="M-454.267-150.357l-36.3-6.349 20.76-11.748z"/>
                        <path id="Rectangle_90" d="M0 0H29.5V24.919H0z" class="cls-21" transform="rotate(9.921 666.39 -2882.864)"/>
                        <path id="Path_467" d="M-490.566-156.706l-4.128 23.6 20.068-7.792z" class="cls-16"/>
                        <path id="Path_468" d="M-454.267-150.357l-4.128 23.6-16.231-14.143z" class="cls-16"/>
                        <path id="Path_469" d="M-458.394-126.757l-36.3-6.349 21.376-14.984z" style="mix-blend-mode:multiply;isolation:isolate" fill="#adadea" opacity="0.25"/>
                        <path id="Path_470" d="M-458.394-126.757l-36.3-6.349 20.76-11.748z" class="cls-16"/>
                    </g>
                </g>
            </g>
        </g>
        <g id="Group_226">
            <g id="Group_223">
                <path id="Rectangle_91" fill="url(#linear-gradient-18)" d="M0 0H29.142V85.04H0z" transform="rotate(-4.472 -240.883 6433.403)"/>
                <path id="Rectangle_92" d="M0 0H29.142V11.44H0z" class="cls-24" transform="rotate(-4.472 481.85 6405.179)"/>
                <path id="Rectangle_93" d="M0 0H29.142V4.83H0z" class="cls-24" transform="rotate(-4.472 667.418 6397.932)"/>
            </g>
            <g id="Group_224">
                <path id="Rectangle_94" fill="url(#linear-gradient-19)" d="M0 0H25.303V83.625H0z" transform="translate(-527.661 .804)"/>
                <path id="Rectangle_95" d="M0 0H25.303V11.818H0z" class="cls-24" transform="translate(-527.661 61.646)"/>
                <path id="Rectangle_96" d="M0 0H25.303V4.58H0z" class="cls-24" transform="translate(-527.661 76.318)"/>
            </g>
            <g id="Group_225">
                <path id="Rectangle_97" fill="url(#linear-gradient-20)" d="M0 0H35.343V83.625H0z" transform="translate(-563.004 .804)"/>
                <path id="Rectangle_98" d="M0 0H35.343V5.111H0z" class="cls-27" transform="translate(-563.004 14.166)"/>
                <path id="Rectangle_99" d="M0 0H35.343V4.58H0z" class="cls-27" transform="translate(-563.004 68.982)"/>
            </g>
        </g>
        <g id="Group_244">
            <g id="Group_234">
                <g id="Group_228">
                    <path id="Path_472" fill="#ffeefc" d="M-338.34-34.269c-5.249-9.517-16.21-25.581-52.379-25.143-32.386.393-49.7 34.812-53.058 41.462-.393.776-.589 1.21-.589 1.21l-7.5 102.135h120.75s-1.976-110.146-7.224-119.664z"/>
                    <g id="Group_227" style="mix-blend-mode:multiply;isolation:isolate">
                        <path id="Path_473" d="M-414.216-47.28c25.16-8.761 47.321-7.318 70.791 5.29" class="cls-30"/>
                        <path id="Path_474" d="M-413.113-42.91c11.268-4.651 23.725-5.841 35.9-5.156s24.159 3.18 36.093 5.667" class="cls-30"/>
                        <path id="Path_475" d="M-418.106-36.455a164.838 164.838 0 0 1 76.517-2.667" class="cls-30"/>
                        <path id="Path_476" d="M-412.62-34.014a330.809 330.809 0 0 1 51.628-4.012c9.121.008 18.489.447 26.862 4.066" class="cls-30"/>
                        <path id="Path_477" d="M-417.164-28.726a211.626 211.626 0 0 1 80.957-.772" class="cls-30"/>
                        <path id="Path_478" d="M-418.623-24.629a777.049 777.049 0 0 1 86.538.1" class="cls-30"/>
                        <path id="Path_479" d="M-410.615-17.474a709.014 709.014 0 0 1 76.989 1.132" class="cls-30"/>
                        <path id="Path_480" d="M-409.633-11.87A343.337 343.337 0 0 0-327.6-9.821" class="cls-30"/>
                        <path id="Path_481" d="M-408.611-4.561q37.444 2.416 75 1.921" class="cls-30"/>
                        <path id="Path_482" d="M-411.628 1.071A238.526 238.526 0 0 0-333.075 3.3" class="cls-30"/>
                        <path id="Path_483" d="M-407.635 12.723q33.42 2.966 67.019 2.748" class="cls-30"/>
                        <path id="Path_484" d="M-414.136 20.8a777.211 777.211 0 0 0 79.016 1.574" class="cls-30"/>
                        <path id="Path_485" d="M-420.13 25.753q44.191 2.662 88.5 1.741" class="cls-30"/>
                        <path id="Path_486" d="M-410.116 35.01h80.5" class="cls-30"/>
                        <path id="Path_487" d="M-420.616 39.534l88 3.094" class="cls-30"/>
                        <path id="Path_488" d="M-412.1 46.837q42.69 3.205 85.488 4.645" class="cls-30"/>
                        <path id="Path_489" d="M-418.116 54.055q43.537.076 87.035 2.257" class="cls-30"/>
                        <path id="Path_490" d="M-408.611 65.564a371.774 371.774 0 0 1 74.474 1.131" class="cls-30"/>
                        <path id="Path_491" d="M-411.616 74.01h78.5" class="cls-30"/>
                        <path id="Path_492" d="M-397.614 79.886l60 .56" class="cls-30"/>
                        <path id="Path_493" d="M-415.117-50.194c.543-1.288 2-1.891 3.321-2.343 17.81-6.087 40.21-5.335 57.547 1.993" class="cls-30"/>
                    </g>
                    <path id="Path_494" d="M-404.783-56.977l.742.958c4.14.517 11.527 1.65 16.861 6.983a13.459 13.459 0 0 0 5.774 3.371c2.156.616 4.735.289 6.223-1.389a6.9 6.9 0 0 0 1.457-3.407 15.583 15.583 0 0 0-.6-7.7c-.018-.051-.042-.1-.059-.15a95.963 95.963 0 0 0-16.337-1.1 44.773 44.773 0 0 0-14.061 2.434z" style="mix-blend-mode:multiply;isolation:isolate" fill="#f4dce9" opacity="0.4"/>
                </g>
                <g id="Group_230">
                    <g id="Group_229">
                        <path id="Path_495" fill="url(#linear-gradient-21)" d="M-261.782-10.455a73.581 73.581 0 0 0 13.787-15.19c.746-1.1 7.272-12.564 6.706-12.8-1.539-.649-7.694 7.841-7.694 7.841s7.729-10.7 5.962-11.749c-.672-.4-8.379 9.859-8.379 9.859s7.584-10.746 6.056-11.684c-.793-.486-8.705 10.236-8.705 10.236s6.568-10.3 5.332-10.951-8.893 9.515-12.275 14.876-5.389 16.888-5.389 16.888"/>
                        <path id="Path_496" fill="url(#linear-gradient-22)" d="M-266.381-19.224a85.542 85.542 0 0 1 3.013-10.7 32.378 32.378 0 0 1 5.423-9.655c.285-.337.818-.674 1.1-.339a.718.718 0 0 1 .124.469 7.937 7.937 0 0 1-.741 2.9l-.726 1.833a4.339 4.339 0 0 0-.419 2.938 5.4 5.4 0 0 0 .577 1.053c2.069 3.319 2.577 9.669-3.056 14.28"/>
                        <path id="Path_497" d="M-258.3-31.513a9.86 9.86 0 0 1 1.279 6.086 9.857 9.857 0 0 1-2.652 5.626" class="cls-34"/>
                        <path id="Path_498" d="M-255.664-34.8a41.742 41.742 0 0 1 8.044 5.288" class="cls-34"/>
                    </g>
                    <path id="Path_499" d="M-362.432-55.5s20.65 7.345 33.983 25.345c10.847 14.644 25.667 52.333 25.667 52.333l36-42.666s4.988 1.711 8.653 8.018c0 4-29.74 76.648-46.74 76.315s-46.247-37-46.247-37" class="cls-35"/>
                    <path id="Path_500" d="M-341.311 38.089c7.176 7.716 17.192 17.418 26.253 22.425-3.79-11.209-9.218-32.242-13.96-70.969l-9.907 38.769z" class="cls-36"/>
                </g>
                <g id="Group_231">
                    <path id="Path_501" d="M-389.417 86.395C-387.116 2.01-403.31-57.49-403.31-57.49s-20.474 4.642-41.4 27.761c-11.1 12.891-.134 21.545-3.651 42.239-6.5 38.25-11 73.885-11 73.885z" class="cls-35"/>
                    <path id="Path_502" d="M-448.366 12.51c-5.967 35.113-10.245 68-10.907 73.161 33.973.264 56.138-11.011 63.9-17.411a54.238 54.238 0 0 1 6.173.249v-5.165a17.8 17.8 0 0 0-3.372-8.624l-41.9-2.541s19.344-37.109 19.344-54.735c.011 0-26.738-23.184-33.238 15.066z" class="cls-36"/>
                    <path id="Path_503" d="M-416.624-51.011s2.408 28.516 2.408 36.2c1.908 1.909 10.47 4.738 10.47 4.738s-6.709 3.3-6.709 5.513 17.806 45.568 21.262 65.075" class="cls-37"/>
                </g>
                <g id="Group_232">
                    <path id="Path_504" d="M-328.866-8.99c2.683 29.107 5.75 95.385 5.75 95.385h-38.265c4.374-89.024-1.028-141.42-1.028-141.42A54.247 54.247 0 0 1-328.866-8.99z" class="cls-35"/>
                    <path id="Path_505" d="M-350.14-48.245s5.01 20.554 4.392 31.2c-1.605 2.17-8.561 6.074-8.561 6.074s7.124 2.271 7.452 4.458-12.321 50.553-12.843 70.357" class="cls-37"/>
                </g>
                <g id="Group_233">
                    <path id="Path_506" fill="url(#linear-gradient-23)" d="M-397.428 56.765a41.7 41.7 0 0 1 10.838-3.649c1.542-.282 6.5-1.188 6.888-.305.54 1.22-5.627 2.606-3.954 2.606s12.645-1.442 12.716-.333-10.32 3.29-10.32 3.29 11.959-1.04 12.011.356-11.1 2.068-11.1 2.068 10.344-.163 10.391 1.153-10.628 1.19-10.628 1.19 8.229.485 8.229 1.369-12.734 3.2-27.332-.613"/>
                    <path id="Path_507" d="M-412.782-3.908c-2.75 19.666-30.507 58.711-30.507 58.711l47.518 1.25a11.178 11.178 0 0 1 1.1 9.275c-3.031 5.123-51.4 20.067-72.729 20.067-23.015 0-10.689-73.219 21.954-114.219" class="cls-35"/>
                </g>
            </g>
            <g id="Group_243">
                <g id="Group_235">
                    <ellipse id="Ellipse_45" cx="14.306" cy="13.24" class="cls-39" rx="14.306" ry="13.24" transform="rotate(-86.523 -224.832 153.47)"/>
                    <ellipse id="Ellipse_46" cx="13.973" cy="12.53" class="cls-40" rx="13.973" ry="12.53" transform="rotate(-86.521 -224.834 153.477)"/>
                    <path id="Path_508" d="M-340.018-92.508c-.459 7.557-6.237 13.354-12.9 12.949s-11.7-6.86-11.241-14.417 6.237-13.355 12.9-12.949 11.701 6.86 11.241 14.417z" class="cls-35"/>
                    <ellipse id="Ellipse_47" cx="8.986" cy="7.07" class="cls-36" rx="8.986" ry="7.07" transform="rotate(-86.522 -225.306 149.188)"/>
                </g>
                <path id="Path_509" d="M-374.782-140.188c-1.488-1.958-2.112-4.425-3.267-6.6-2.849-5.356-8.809-8.516-14.812-9.392a12.161 12.161 0 0 0-6.122.387c-3.35 1.292-5.5 4.773-8.878 5.991a16.092 16.092 0 0 1-4.013.69 62.389 62.389 0 0 0-13.657 2.576 17.339 17.339 0 0 0-4.866 2.288 11.105 11.105 0 0 0-3.844 12.327c.71 2.017 2.026 3.853 2.246 5.979.228 2.2-.755 4.5-.04 6.6a8.49 8.49 0 0 0 2.216 3.056 22.935 22.935 0 0 0 5.415 4.43 23.73 23.73 0 0 0 6.539 1.955 44 44 0 0 0 8.892 1.125 14.759 14.759 0 0 0 8.488-2.466 22.037 22.037 0 0 0 5.077-5.918" class="cls-41"/>
                <path id="Path_510" fill="#1d1d1d" d="M-389.831-142.074c-4.876 2.172-9.913 4.46-13.426 8.479-2.434 2.785-3.971 6.221-5.952 9.345s-4.646 6.1-8.216 7.068a17.022 17.022 0 0 1-7.018-.008 3.944 3.944 0 0 1-2.505-1.044 4.262 4.262 0 0 1-.71-2.423c-.283-2.99-1.053-6.132-3.235-8.2a6.362 6.362 0 0 0-2.68-1.475 14.014 14.014 0 0 1 1.578 4.389c.228 2.2-.755 4.5-.04 6.6a8.49 8.49 0 0 0 2.216 3.056 22.935 22.935 0 0 0 5.415 4.43 23.73 23.73 0 0 0 6.539 1.955 44 44 0 0 0 8.892 1.125 14.759 14.759 0 0 0 8.488-2.466 22.026 22.026 0 0 0 5.077-5.919l20.626-23.03c-4.496-6.152-12.164-3.167-15.049-1.882z" opacity="0.29"/>
                <path id="Path_511" d="M-382.7-74.9l-6.529 15.568a6.959 6.959 0 0 0 .023 5.466c1.582 3.642 4.97 9.373 10.624 9.373 8.962 0 10.129-10.774 10.129-10.774l.929-14.38" class="cls-43"/>
                <path id="Path_512" fill="#f49e87" d="M-368.044-61.531l.524-8.113-15.18-5.256-.523 1.248a33.875 33.875 0 0 0 15.179 12.121z"/>
                <path id="Path_513" d="M-350.465-122.2a20.164 20.164 0 0 1 4.577 6.2c3.273 6.9 1.272 14.453-.081 21.576-1.37 7.218-2.447 17.335-7.325 23.2-12.684 15.26-35.133-.086-39.25-15.361-2.824-10.48-4.608-24.751 3.069-33.756 9.162-10.742 28.762-11.314 39.01-1.859z" class="cls-43"/>
                <path id="Path_514" d="M-395.846-97.593c7.206.9 21.382-10.292 28.205-23.936 1.461.226 2.193 2.235 3.638 2.849a2.276 2.276 0 0 0 1.654.132 1.238 1.238 0 0 0 .835-1.318 4.607 4.607 0 0 0 1.429 1.7 2.342 2.342 0 0 0 2.134.3 1.59 1.59 0 0 0 .965-1.807c4.388.916 8.731 7.87 9.724 12.308 1.31 5.858 1.79 12.423-.432 22.349 4.88-.437 10.307-8.13 12.635-12.441 4.757-8.808 1.492-20.31-4.832-27.457a18.211 18.211 0 0 0-5.826-4.659c-2.688-1.213-5.67-.948-8.509-1.476-4.495-5.076-13.371-9.573-21.314-10.458-8.736-.973-19.8 4.026-25.133 10.657-5.3 6.592-8.681 15.344-8.142 24.2.479 7.874 5.826 14.578 11.57 19.986" class="cls-41"/>
                <g id="Group_238">
                    <g id="Group_236">
                        <path id="Path_515" d="M-380.879-74.237a21.658 21.658 0 0 1-3.258-.432 14.2 14.2 0 0 1-8.413-5.06 6.143 6.143 0 0 1-1.417-3.352.5.5 0 0 1 .469-.529.5.5 0 0 1 .53.469 5.181 5.181 0 0 0 1.212 2.805 13.226 13.226 0 0 0 7.829 4.69 32.1 32.1 0 0 0 9.241.248.5.5 0 0 1 .539.458.5.5 0 0 1-.458.539 44.216 44.216 0 0 1-6.274.164z" class="cls-45"/>
                    </g>
                    <g id="Group_237">
                        <path id="Path_516" d="M-372.414-76.214a3.711 3.711 0 0 0-2.819-.072c-3.151 1.093.4 5.039 3.219 2.883a1.931 1.931 0 0 0 .563-.635 1.719 1.719 0 0 0-.963-2.176z" class="cls-45"/>
                    </g>
                </g>
                <path id="Path_517" fill="url(#linear-gradient-24)" d="M-358.7-94.3c.728.151.049 7.135.495 8.03s2.032 2.531.794 3.349c-1.1.729-3 1.1-4.121.205a2.941 2.941 0 0 1-.932-2.326 22.717 22.717 0 0 1 .574-3.892c.256-1.437.926-5.84 3.19-5.366z"/>
                <path id="Path_518" d="M-349.995-96.008a1.966 1.966 0 0 1-2.194 1.616 1.965 1.965 0 0 1-.948-2.554 1.966 1.966 0 0 1 2.193-1.616 1.966 1.966 0 0 1 .949 2.554z" class="cls-45"/>
                <path id="Path_519" d="M-369.872-98.534c-.315 1.16-1.278 1.909-2.152 1.672a1.966 1.966 0 0 1-1.012-2.53c.314-1.16 1.278-1.908 2.151-1.671a1.966 1.966 0 0 1 1.013 2.529z" class="cls-45"/>
                <path id="Path_520" d="M-353.064-103.846s.069-.108.194-.285a3.223 3.223 0 0 1 .606-.643 2.992 2.992 0 0 1 1-.564 2.459 2.459 0 0 1 .589-.1 2.675 2.675 0 0 1 .593.042 2.637 2.637 0 0 1 .546.218 2.126 2.126 0 0 1 .469.345 2.724 2.724 0 0 1 .613.918 3.1 3.1 0 0 1 .231.82c.029.213.037.335.037.335s-.067-.08-.17-.221a4.747 4.747 0 0 0-.44-.526 3.945 3.945 0 0 0-.676-.563 2.988 2.988 0 0 0-.865-.36 3.091 3.091 0 0 0-.944-.057c-.156.041-.31.036-.456.088a3.274 3.274 0 0 0-.42.131 4.476 4.476 0 0 0-.647.292c-.164.086-.26.13-.26.13z" class="cls-45"/>
                <path id="Path_521" d="M-374.512-106.156s.062-.126.182-.334a3.322 3.322 0 0 1 .631-.772 3.9 3.9 0 0 1 1.147-.755 4.024 4.024 0 0 1 .725-.227 5.476 5.476 0 0 1 .77-.1 5.175 5.175 0 0 1 .77.071 3.811 3.811 0 0 1 .724.2 3.711 3.711 0 0 1 1.145.715 3.129 3.129 0 0 1 .627.75c.123.208.183.329.183.329s-.115-.064-.3-.179a5.513 5.513 0 0 0-.768-.4 5.214 5.214 0 0 0-.517-.2c-.18-.073-.386-.1-.583-.162a6.218 6.218 0 0 0-1.285-.124 6.3 6.3 0 0 0-1.285.167c-.2.072-.4.1-.583.183a4.892 4.892 0 0 0-.518.218 5.527 5.527 0 0 0-.768.428c-.185.127-.297.192-.297.192z" class="cls-45"/>
                <path id="Path_522" d="M-358.2-79.02a7.458 7.458 0 0 1-6.35-.394.314.314 0 0 0-.488.21c-.663 5.179 1.953 6.6 3.228 6.68 3.726.227 4.12-4.247 4.049-6.241a.3.3 0 0 0-.439-.255z" class="cls-21"/>
                <g id="Group_239">
                    <path id="Path_523" d="M-370.167-85.2c1.579-1.643 2.128-5.089-.515-6.736a6.563 6.563 0 0 0-4.487-.624 4.157 4.157 0 0 0-2.739 4.039c.032 2.187.915 3.816 2.907 4.49a4.827 4.827 0 0 0 4.834-1.169z" class="cls-47"/>
                </g>
                <g id="Group_240">
                    <path id="Path_524" d="M-348.831-83.83c1.187-1.527 1.632-4.7-.309-6.186a3.992 3.992 0 0 0-3.318-.525 4.03 4.03 0 0 0-2.074 3.742c0 2.01.637 3.5 2.106 4.1a3.165 3.165 0 0 0 3.595-1.131z" class="cls-47"/>
                </g>
                <g id="Group_242">
                    <g id="Group_241">
                        <path id="Path_525" d="M-394.491-107.222a37.423 37.423 0 0 1 10.724-17.606 34.414 34.414 0 0 1 18.631-8.705c5.245-.671 4.181-1.353 8.924.343l3.328 2.335c-8.358-.941-16.621 2.08-23.379 7.088a34.028 34.028 0 0 0-13.054 20.906" class="cls-40"/>
                        <path id="Path_526" d="M-395.544-107.975a37.414 37.414 0 0 1 10.723-17.606 34.417 34.417 0 0 1 18.631-8.7c5.246-.671 6.521-.443 9.848.577l2.4 2.1c-8.359-.94-16.622 2.08-23.38 7.088a34.026 34.026 0 0 0-13.053 20.907" class="cls-39"/>
                    </g>
                    <path id="Path_527" d="M-381.788-92.929c-.48 7.886-6.785 13.92-14.084 13.477s-12.827-7.2-12.348-15.083 6.785-13.921 14.084-13.477 12.827 7.196 12.348 15.083z" class="cls-39"/>
                    <ellipse id="Ellipse_48" cx="13.973" cy="12.53" class="cls-40" rx="13.973" ry="12.53" transform="rotate(-86.523 -247.183 177.221)"/>
                    <ellipse id="Ellipse_49" cx="13.708" cy="12.096" class="cls-35" rx="13.708" ry="12.096" transform="rotate(-86.522 -247.51 177.531)"/>
                    <ellipse id="Ellipse_50" cx="8.986" cy="7.07" class="cls-36" rx="8.986" ry="7.07" transform="rotate(-86.522 -247.658 172.939)"/>
                </g>
            </g>
        </g>
        <g id="Group_248">
            <g id="Group_246">
                <g id="Group_245">
                    <path id="Path_528" fill="url(#linear-gradient-25)" d="M-200.424 38.088c-.058 1.81-1.792 3.28-3.191 4.464-4.193 3.548-6.548 9.78-13.152 7.492-2.637-.913-2.064-3.811-3.813-5.523-1.874-1.834-4.926-2.23-6.449-4.455-2.946-4.305 5.109-4.093 2.073-8.119-3.65-4.841 1.167-10.084 5.362-12.23 4.4-2.249 13.6-5.8 17.518-1 1.722 2.112 1.24 4.588.072 6.83-.988 1.9-3.659 4.192-2.9 6.543.635 1.969 3.034 2.514 4.019 4.262a3.28 3.28 0 0 1 .461 1.736zm.709-29.637a3.8 3.8 0 0 0-2.9-2.661c-4.058-.722-6.932 5.314-3.156 7.584a4.06 4.06 0 0 0 6.056-4.923zm2.857 20.724a1.808 1.808 0 0 0-1.38-1.268c-1.934-.345-4.142 3.195-2.343 4.276 1.927 1.159 4.381-1.468 3.723-3.008z"/>
                </g>
            </g>
            <g id="Group_247">
                <path id="Path_529" d="M-200.353 77.594h-8.389v-4h8.389a4.908 4.908 0 0 0 4.9-4.9v-7.331a4.906 4.906 0 0 0-4.9-4.9h-8.389v-4h8.389a8.911 8.911 0 0 1 8.9 8.9v7.329a8.912 8.912 0 0 1-8.9 8.902z" class="cls-35"/>
            </g>
            <path id="Rectangle_100" d="M0 0h27.482v29.572a8 8 0 0 1-8 8H8a8 8 0 0 1-8-8V0z" class="cls-35" transform="translate(-228.536 46.822)"/>
        </g>
        <g id="Group_263">
            <path id="Rectangle_101" fill="#7490f7" d="M4.091 0h88.163v5.812H0V4.091A4.091 4.091 0 0 1 4.091 0z" transform="translate(-409.064 78.583)"/>
            <path id="Path_530" fill="#9494f2" d="M-337.667 12.335l-13.78 72.06h118.877l13.938-73.049a2.453 2.453 0 0 0-2.422-2.84h-112.124a4.545 4.545 0 0 0-4.489 3.829z"/>
            <path id="Path_531" fill="url(#linear-gradient-26)" d="M-334.8 12.335l-13.78 72.06h118.877l13.938-73.049a2.453 2.453 0 0 0-2.422-2.84h-112.126a4.546 4.546 0 0 0-4.487 3.829z"/>
            <path id="Path_532" fill="#ffe1ff" d="M-270.942 47.4a10.157 10.157 0 0 1-9.737 8.537 7.247 7.247 0 0 1-7.337-8.537 10.156 10.156 0 0 1 9.737-8.537 7.248 7.248 0 0 1 7.337 8.537z"/>
            <g id="Group_262">
                <g id="Group_249">
                    <path id="Rectangle_102" d="M0 0H15.684V2H0z" class="cls-53" transform="translate(-400.929 80.489)"/>
                </g>
                <g id="Group_250">
                    <path id="Rectangle_103" d="M0 0H0.75V2.82H0z" class="cls-53" transform="translate(-380.278 80.166)"/>
                </g>
                <g id="Group_251">
                    <path id="Rectangle_104" d="M0 0H0.75V2.82H0z" class="cls-53" transform="translate(-378.687 80.166)"/>
                </g>
                <g id="Group_252">
                    <path id="Rectangle_105" d="M0 0H0.75V2.82H0z" class="cls-53" transform="translate(-377.096 80.166)"/>
                </g>
                <g id="Group_253">
                    <path id="Rectangle_106" d="M0 0H0.75V2.82H0z" class="cls-53" transform="translate(-375.505 80.166)"/>
                </g>
                <g id="Group_254">
                    <path id="Rectangle_107" d="M0 0H0.75V2.82H0z" class="cls-53" transform="translate(-373.914 80.166)"/>
                </g>
                <g id="Group_255">
                    <path id="Rectangle_108" d="M0 0H0.75V2.82H0z" class="cls-53" transform="translate(-372.323 80.166)"/>
                </g>
                <g id="Group_256">
                    <path id="Rectangle_109" d="M0 0H0.75V2.82H0z" class="cls-53" transform="translate(-370.732 80.166)"/>
                </g>
                <g id="Group_257">
                    <path id="Rectangle_110" d="M0 0H0.75V2.82H0z" class="cls-53" transform="translate(-366.091 80.166)"/>
                </g>
                <g id="Group_258">
                    <path id="Rectangle_111" d="M0 0H0.75V2.82H0z" class="cls-53" transform="translate(-364.5 80.166)"/>
                </g>
                <g id="Group_259">
                    <path id="Rectangle_112" d="M0 0H0.75V2.82H0z" class="cls-53" transform="translate(-362.909 80.166)"/>
                </g>
                <g id="Group_260">
                    <path id="Rectangle_113" d="M0 0H0.75V2.82H0z" class="cls-53" transform="translate(-358.269 80.166)"/>
                </g>
                <g id="Group_261">
                    <path id="Rectangle_114" d="M0 0H0.75V2.82H0z" class="cls-53" transform="translate(-356.677 80.166)"/>
                </g>
            </g>
        </g>
    </g>
</svg>
