<svg xmlns="http://www.w3.org/2000/svg" width="446.851" height="445.753" viewBox="0 0 446.851 445.753"><defs><style>.a{opacity:0.7;}.b{fill:#ebebeb;}.c{fill:#e0e0e0;}.d{fill:#263238;}.e{fill:#2a3086;}.f{opacity:0.5;}.g{fill:#fff;}.h{fill:#101111;}.i{fill:#0a0b0c;}.j{fill:#0d0f0f;}.k{fill:#101314;}.l{fill:#121516;}.m{fill:#111516;}.n{fill:#0e1011;}.o{fill:#0f1011;}.p{fill:#ffbe9d;}.q{fill:#d1d126;}.r{fill:#f5f5f5;}.s{fill:#455a64;}.t{fill:#7f7819;}.u{fill:#a59e20;}.v{fill:#eb996e;}.w{fill:#e8505b;}.x{fill:#dbe11f;}.y{fill:#171d56;}</style></defs><g class="a" transform="translate(-5.1 -11.303)"><g transform="translate(5.1 260.994)"><path class="b" d="M121.742,333.385c19.47-19.238,19.593-48.764,14.305-74.4-.874-4.277-1.189-8.895-3.88-12.324s-7.911-5.192-11.45-2.719c-2.938,2.049-3.7,6.012-4.96,9.387a25.613,25.613,0,0,1-8.444,11.368c-2.5,1.885-5.738,3.334-8.7,2.309-4.058-1.407-5.37-6.463-6.08-10.753q-1.967-11.989-3.935-23.951c-.71-4.29-1.435-8.662-3.47-12.488s-5.616-7.1-9.878-7.556-8.895,2.76-9.045,7.1c-.055,1.8.6,3.552.792,5.356s-.3,3.908-1.913,4.686-3.539-.123-5.042-1.161c-5.151-3.566-9.1-8.621-12.857-13.677S39.749,204.31,34.926,200.28s-11-6.818-17.188-6.121-12.078,5.6-12.6,11.887,4.044,11.819,8.7,16.054a97.348,97.348,0,0,0,23.132,15.562c1.517.724,3.156,1.517,3.935,3.006,1.421,2.692-.806,5.984-3.457,7.405-3.006,1.612-6.531,1.872-9.8,2.828s-6.64,3.047-7.351,6.422C19.3,262,23.75,265.958,27.863,268.349a82.877,82.877,0,0,0,26.616,9.837c3.347.615,6.832,1.052,9.742,2.842s5.11,5.37,4.085,8.635-4.8,4.919-8.2,4.864-6.654-1.339-10-1.981c-6.258-1.216-13.786.492-16.683,6.217-1.9,3.771-1.325,8.457.6,12.228s5.055,6.763,8.293,9.468c11.313,9.455,24.908,16.286,39.363,18.691,14.483,2.391,27.34,1.517,40.06-5.766" transform="translate(-5.1 -194.052)"/><g transform="translate(5.245 5.052)"><path class="c" d="M8.94,197.75a2.706,2.706,0,0,0,.478.342c.369.232.847.533,1.462.915,1.284.792,3.2,1.981,5.6,3.566a163.2,163.2,0,0,1,19.361,14.852c3.867,3.429,7.938,7.351,12.242,11.641S56.939,238,61.543,243.043a199.287,199.287,0,0,1,13.69,16.491c2.213,2.992,4.263,6.162,6.367,9.4s4.208,6.517,6.353,9.837a397.218,397.218,0,0,1,22.3,38.585,193.822,193.822,0,0,1,13.13,33.9,142.881,142.881,0,0,1,4.536,24.1c.26,2.883.424,5.137.478,6.668.041.724.068,1.3.1,1.735a3.757,3.757,0,0,0,.055.587,2.81,2.81,0,0,0,.027-.587c0-.437-.014-1.011-.014-1.735,0-1.53-.109-3.785-.328-6.681a135.74,135.74,0,0,0-4.3-24.225,190.306,190.306,0,0,0-13.021-34.076,386.676,386.676,0,0,0-22.284-38.694c-2.145-3.32-4.277-6.6-6.367-9.837s-4.167-6.422-6.394-9.427A195.873,195.873,0,0,0,62.09,242.565c-4.632-5.042-9.223-9.66-13.54-13.95s-8.444-8.184-12.338-11.6a153.428,153.428,0,0,0-19.566-14.688c-2.432-1.544-4.372-2.692-5.684-3.443-.629-.355-1.134-.642-1.5-.847A2.3,2.3,0,0,0,8.94,197.75Z" transform="translate(-8.939 -197.749)"/></g><g transform="translate(69.672 18.183)"><path class="c" d="M58.371,255.536a9.468,9.468,0,0,0,.109-1.9c.027-1.216,0-2.992-.068-5.178-.123-4.359-.506-10.384-.943-17.024s-.724-12.652-.779-17.01c-.027-2.172-.041-3.935-.041-5.165a8.709,8.709,0,0,0-.082-1.9,8.622,8.622,0,0,0-.232,1.885c-.109,1.216-.178,2.979-.219,5.165-.1,4.372.109,10.411.547,17.052.451,6.545.861,12.474,1.175,17,.123,2.049.232,3.771.314,5.151A9.519,9.519,0,0,0,58.371,255.536Z" transform="translate(-56.093 -207.36)"/></g><g transform="translate(15.165 63.729)"><g transform="translate(0)"><path class="c" d="M16.2,242.451a12.008,12.008,0,0,0,2.241-.109c1.435-.109,3.511-.3,6.08-.437,5.137-.314,12.242-.506,20.085-.369s14.947.587,20.071,1.052c2.569.219,4.632.437,6.066.588a12.917,12.917,0,0,0,2.241.164,12.449,12.449,0,0,0-2.2-.478c-1.421-.246-3.484-.56-6.053-.847-5.124-.615-12.242-1.134-20.126-1.284a195.865,195.865,0,0,0-20.139.615c-2.569.219-4.645.478-6.066.7A11.486,11.486,0,0,0,16.2,242.451Z" transform="translate(-16.2 -240.695)"/></g></g><g transform="translate(106.358 48.392)"><path class="c" d="M82.952,304.494a2.982,2.982,0,0,0,.26-.738c.164-.587.355-1.3.6-2.145.519-1.872,1.189-4.591,1.967-7.979,1.571-6.763,3.457-16.163,5.4-26.561s3.744-19.811,5.165-26.6c.71-3.293,1.284-6.012,1.722-8.034.178-.874.328-1.6.451-2.186a2.982,2.982,0,0,0,.109-.779,3.319,3.319,0,0,0-.26.738c-.164.588-.355,1.284-.6,2.145-.519,1.872-1.189,4.591-1.967,7.979-1.571,6.763-3.457,16.163-5.4,26.575s-3.744,19.811-5.165,26.588c-.71,3.293-1.284,6.012-1.722,8.02-.178.874-.328,1.6-.451,2.186A3.109,3.109,0,0,0,82.952,304.494Z" transform="translate(-82.944 -229.47)"/></g><g transform="translate(29.225 112.321)"><path class="c" d="M26.49,276.274a3.327,3.327,0,0,0,.779.178c.6.1,1.353.2,2.241.355,2.077.3,4.864.71,8.266,1.2,6.982,1.011,16.6,2.528,27.231,4.208s20.276,3.115,27.285,3.976c3.5.437,6.34.765,8.293.943l2.268.2a2.689,2.689,0,0,0,.792.014,3.331,3.331,0,0,0-.779-.178c-.6-.1-1.339-.2-2.241-.342-2.077-.3-4.864-.71-8.266-1.2-6.982-1.011-16.6-2.528-27.231-4.208s-20.276-3.115-27.271-3.976c-3.5-.437-6.34-.765-8.307-.943l-2.268-.2A3.166,3.166,0,0,0,26.49,276.274Z" transform="translate(-26.49 -276.26)"/></g></g><g transform="translate(215.88 176.802)"><g transform="translate(6.548)"><path class="c" d="M356.877,134.78s-10.739-11.245-33.051,15.48S291.7,193.094,291.7,193.094s-5.52,5.411-8.922.273-6.695-18.24-14.565-17.817c-8.17.451-12.652,8.43-14.059,21.342s-5.52,41.1-5.9,43.654c-.369,2.5-2.61,5.807-5.493,2.678s-17.543-29.5-29.649-21.793-10.1,44.337-9.96,48.34-.97,5.452-2.979,5.984-6.107-8.8-10.575-16.136-10.958-15.043-17.571-10.015-14.155,30.455.847,77.962l8.389,21.56,22.9,3.908c49.529,5.37,72.974-7.036,76.609-14.5s-5.206-12.3-13.267-15.248-18.022-5.124-17.9-7.2,1.325-3.443,5.274-4.1,40.265-5.889,45.443-19.279-23.569-22.571-27.2-24.785-.833-5.055,1.544-5.916c2.418-.874,29.253-10.452,41.631-14.374s19.333-9.878,18.172-17.981c-1.134-7.815-14.633-8.457-20.331-10.78s-1.489-8.813-1.489-8.813,13.868-12.789,35.688-39.924,8.307-35.592,8.307-35.592" transform="translate(-164.162 -132.431)"/></g><g transform="translate(0 26.258)"><path class="b" d="M338.616,151.65s-.137.2-.424.587c-.314.41-.751.97-1.312,1.694-1.189,1.5-2.91,3.675-5.11,6.449-4.441,5.6-10.93,13.663-18.992,23.582-16.109,19.866-38.585,47.11-63.492,77.128s-47.466,57.221-63.67,77.005c-8.075,9.878-14.619,17.885-19.169,23.446-2.254,2.746-4,4.891-5.219,6.367-.588.71-1.038,1.257-1.366,1.64s-.492.547-.492.547.137-.2.424-.587c.314-.41.751-.97,1.312-1.694,1.189-1.5,2.91-3.675,5.11-6.449,4.441-5.6,10.93-13.663,18.992-23.582,16.109-19.866,38.585-47.11,63.506-77.142s47.452-57.207,63.656-76.991c8.075-9.878,14.62-17.885,19.169-23.446,2.254-2.746,4-4.891,5.219-6.367.587-.71,1.038-1.257,1.366-1.64S338.616,151.65,338.616,151.65Z" transform="translate(-159.37 -151.65)"/></g><g transform="translate(114.384 61.66)"><path class="b" d="M243.146,177.56a7.253,7.253,0,0,1,.219,1.653c.1,1.066.191,2.623.3,4.536.2,3.839.342,9.154.383,15.016.027,5.779.055,11.012.068,15,.014,1.8.041,3.32.055,4.55a8.763,8.763,0,0,1-.041,1.667,7.646,7.646,0,0,1-.232-1.653c-.1-1.066-.191-2.623-.273-4.55-.164-3.839-.232-9.154-.287-15.016-.068-5.779-.137-11-.178-15-.027-1.8-.055-3.32-.068-4.55A7.917,7.917,0,0,1,243.146,177.56Z" transform="translate(-243.087 -177.56)"/></g><g transform="translate(117.407 102.181)"><path class="b" d="M245.3,209.994c-.014-.2,10.917-.97,24.416-1.722s24.443-1.2,24.457-1.011-10.917.97-24.416,1.722S245.314,210.2,245.3,209.994Z" transform="translate(-245.3 -207.218)"/></g><g transform="translate(77.06 149.323)"><path class="b" d="M215.77,241.733a7.75,7.75,0,0,1,1.681.3c1.216.287,2.719.629,4.522,1.052,3.812.874,9.1,2.077,14.975,3.17,5.875,1.12,11.217,1.94,15.1,2.5,1.831.273,3.361.492,4.591.669a7.655,7.655,0,0,1,1.681.328,7.39,7.39,0,0,1-1.708-.055c-1.093-.082-2.678-.219-4.632-.451-3.894-.437-9.277-1.189-15.166-2.3s-11.163-2.377-14.961-3.388c-1.9-.506-3.429-.943-4.468-1.271A7.18,7.18,0,0,1,215.77,241.733Z" transform="translate(-215.77 -241.721)"/></g><g transform="translate(65.748 110.751)"><path class="b" d="M207.5,213.49a7.076,7.076,0,0,1,.6,1.462c.369,1.107.833,2.459,1.366,4.072,1.12,3.443,1.407,8.99,4.249,13.5,1.626,5.288,3.047,10.083,4.058,13.567l1.148,4.14a6.931,6.931,0,0,1,.328,1.544,7.076,7.076,0,0,1-.6-1.462c-.369-1.107-.833-2.459-1.366-4.072-1.12-3.443-2.637-8.225-4.249-13.5s-3.047-10.083-4.058-13.567l-1.148-4.14A5.945,5.945,0,0,1,207.5,213.49Z" transform="translate(-207.491 -213.49)"/></g><g transform="translate(25.148 145.4)"><path class="b" d="M177.782,238.85a10.885,10.885,0,0,1,.738,1.886c.465,1.353,1.052,3.1,1.776,5.206,1.462,4.413,3.443,10.507,5.588,17.256s4.044,12.884,5.383,17.325c.628,2.131,1.148,3.908,1.558,5.274a11.505,11.505,0,0,1,.478,1.967,10.887,10.887,0,0,1-.738-1.886c-.465-1.353-1.052-3.1-1.776-5.206-1.462-4.413-3.443-10.507-5.588-17.27s-4.044-12.884-5.383-17.325c-.629-2.131-1.148-3.908-1.558-5.274A13.131,13.131,0,0,1,177.782,238.85Z" transform="translate(-177.776 -238.85)"/></g><g transform="translate(40.647 193.031)"><path class="b" d="M189.12,273.723a11.418,11.418,0,0,1,2.145.328c1.489.287,3.443.669,5.779,1.12,4.878.943,11.627,2.213,19.115,3.416s14.292,2.118,19.224,2.746c2.364.3,4.331.56,5.848.751a11.086,11.086,0,0,1,2.131.355,12.242,12.242,0,0,1-2.159-.082c-1.394-.1-3.4-.273-5.875-.519-4.946-.506-11.778-1.339-19.292-2.541s-14.251-2.555-19.115-3.621c-2.432-.547-4.386-1-5.738-1.353A10.246,10.246,0,0,1,189.12,273.723Z" transform="translate(-189.12 -273.711)"/></g></g><g transform="translate(10.401 454.597)"><path class="d" d="M305.988,336.461c-164.053,0-297.008-.164-297.008-.355s132.955-.355,297.008-.355C470,335.75,469.986,336.461,305.988,336.461Z" transform="translate(-8.98 -335.75)"/></g><g transform="translate(139.271 438.311)"><path class="e" d="M105.076,323.83,103.3,333.872l1.489.328c6.668,1.407,33.98,6.695,38.68,6.025,5.247-.751-14.729-8.594-14.729-8.594l.629-4.249Z" transform="translate(-103.3 -323.83)"/><g class="f" transform="translate(0.082 2.897)"><path class="e" d="M112.145,334.271a8.506,8.506,0,0,0-2.309-5.67,8.3,8.3,0,0,0-5.424-2.651l-1.052,6.8Z" transform="translate(-103.36 -325.95)"/></g></g><g transform="translate(139.271 447.807)"><g class="f"><path class="g" d="M138.455,333.28s6.927,3.211,5.834,4.263-28.9-3.252-40.989-6.23l.123-.533,32.4,5.3C135.818,336.095,137.034,333.13,138.455,333.28Z" transform="translate(-103.3 -330.78)"/></g></g><g transform="translate(139.025 447.735)"><path class="h" d="M103.12,330.731a1.5,1.5,0,0,0,.41.109c.355.082.751.164,1.189.26,1.189.232,2.664.533,4.4.874,3.716.71,8.867,1.626,14.579,2.528s10.889,1.585,14.647,2.036c1.763.191,3.238.369,4.454.505.451.041.847.082,1.216.109a1.434,1.434,0,0,0,.424.014,1.691,1.691,0,0,0-.424-.082c-.369-.055-.765-.109-1.2-.178-1.2-.164-2.692-.355-4.44-.6-3.744-.506-8.922-1.23-14.633-2.118s-10.862-1.776-14.579-2.432c-1.735-.314-3.211-.574-4.413-.779-.451-.082-.847-.137-1.2-.2A3.17,3.17,0,0,0,103.12,330.731Z" transform="translate(-103.12 -330.727)"/></g><g transform="translate(171.704 450.035)"><path class="h" d="M127.054,335.867a10.139,10.139,0,0,1,1.148-1.981,9.937,9.937,0,0,1,1.776-1.462,3.263,3.263,0,0,0-1.995,1.271A3.394,3.394,0,0,0,127.054,335.867Z" transform="translate(-127.038 -332.411)"/></g><g transform="translate(165.098 446.9)"><path class="h" d="M122.213,331.952c.068.055.465-.314.915-.82s.751-.956.683-1.011-.465.314-.915.82S122.144,331.9,122.213,331.952Z" transform="translate(-122.203 -330.116)"/></g><g transform="translate(163.288 446.249)"><path class="h" d="M120.881,330.774c.041.068.465-.123.943-.437s.833-.615.779-.683-.465.123-.943.437S120.84,330.706,120.881,330.774Z" transform="translate(-120.878 -329.64)"/></g><g transform="translate(162.403 444.85)"><path class="h" d="M120.23,328.663a2.815,2.815,0,0,0,1.243.355,2.847,2.847,0,0,0,1.3.068,2.814,2.814,0,0,0-1.243-.355A2.847,2.847,0,0,0,120.23,328.663Z" transform="translate(-120.23 -328.616)"/></g><g transform="translate(162.223 443.19)"><path class="d" d="M120.1,327.413a2.4,2.4,0,0,0,1.353.628,2.426,2.426,0,0,0,1.489.027,9.127,9.127,0,0,0-1.421-.328A9.9,9.9,0,0,0,120.1,327.413Z" transform="translate(-120.098 -327.401)"/></g><g transform="translate(166.256 445.005)"><path class="h" d="M123.05,330.465a4.558,4.558,0,0,0,1.571.232,9.94,9.94,0,0,0,1.722-.109,4.185,4.185,0,0,0,1.011-.246.822.822,0,0,0,.465-.424.635.635,0,0,0-.137-.656,2.9,2.9,0,0,0-3.675.287,2.752,2.752,0,0,0-.669.97.883.883,0,0,0-.109.41,4.691,4.691,0,0,1,.915-1.23,2.892,2.892,0,0,1,1.476-.656,2.47,2.47,0,0,1,1.845.41c.219.219.082.506-.219.615a5.306,5.306,0,0,1-.943.246,10.056,10.056,0,0,1-1.681.164C123.665,330.506,123.064,330.411,123.05,330.465Z" transform="translate(-123.05 -328.729)"/></g><g transform="translate(164.997 443.612)"><path class="h" d="M123.784,330.976a1.571,1.571,0,0,0,.355-1.052,2.8,2.8,0,0,0-.246-1.216,1.558,1.558,0,0,0-1.175-1,.618.618,0,0,0-.588.642,1.587,1.587,0,0,0,.164.738,5.483,5.483,0,0,0,.588,1.066,2.5,2.5,0,0,0,.792.779c.027-.027-.273-.328-.629-.888a5.663,5.663,0,0,1-.506-1.038c-.164-.369-.219-.984.191-1,.4.027.738.478.929.82a2.713,2.713,0,0,1,.287,1.079A6.723,6.723,0,0,1,123.784,330.976Z" transform="translate(-122.128 -327.71)"/></g><g transform="translate(140.556 441.112)"><path class="h" d="M104.24,325.921c0,.055.71.041,1.79.342a7.958,7.958,0,0,1,3.675,2.227,7.822,7.822,0,0,1,1.913,3.853c.2,1.107.137,1.8.191,1.8a1.7,1.7,0,0,0,.082-.492,6.247,6.247,0,0,0-.068-1.353,7.471,7.471,0,0,0-5.738-6.244,7.86,7.86,0,0,0-1.339-.178A1.654,1.654,0,0,0,104.24,325.921Z" transform="translate(-104.24 -325.88)"/></g><g transform="translate(151.568 447.618)"><path class="h" d="M112.3,330.653a13.937,13.937,0,0,0,3.5.9,14.77,14.77,0,0,0,3.607.273c0-.082-1.6-.232-3.552-.56S112.327,330.571,112.3,330.653Z" transform="translate(-112.3 -330.642)"/></g><g transform="translate(146.782 446.871)"><path class="h" d="M108.815,330.1c-.068.055.082.355.178.751s.15.724.232.738.191-.369.055-.82S108.869,330.047,108.815,330.1Z" transform="translate(-108.797 -330.095)"/></g><g transform="translate(145.332 444.355)"><path class="h" d="M107.755,328.262c-.068.055.055.328.26.615s.437.492.506.451-.055-.328-.26-.615S107.823,328.208,107.755,328.262Z" transform="translate(-107.736 -328.254)"/></g><g transform="translate(142.933 442.852)"><path class="h" d="M105.98,327.244c0,.082.328.137.669.314s.56.41.642.369-.082-.41-.506-.628S105.966,327.162,105.98,327.244Z" transform="translate(-105.98 -327.153)"/></g><g transform="translate(141.163 442.134)"><path class="h" d="M104.692,326.672c-.041.068.082.219.273.328s.383.137.424.068-.082-.219-.273-.328S104.733,326.59,104.692,326.672Z" transform="translate(-104.684 -326.628)"/></g><g transform="translate(269.207 443.995)"><path class="e" d="M198.4,330.887l.915,10.165,1.53-.068c6.8-.383,34.554-2.4,38.912-4.277,4.864-2.09-16.464-4.454-16.464-4.454l-.506-4.263Z" transform="translate(-198.4 -327.99)"/><g class="f" transform="translate(0.137 5.72)"><path class="e" d="M208.132,338.343a8.555,8.555,0,0,0-3.7-4.878,8.3,8.3,0,0,0-5.93-1.148l.765,6.845Z" transform="translate(-198.5 -332.176)"/></g></g><g transform="translate(270.095 449.774)"><g class="f"><path class="g" d="M233.522,332.22s7.528,1.284,6.75,2.6-28.747,4.4-41.194,4.686l-.027-.547,32.655-3.334C231.7,335.608,232.1,332.439,233.522,332.22Z" transform="translate(-199.05 -332.22)"/></g></g><g transform="translate(269.713 451.955)"><path class="i" d="M198.77,338.4a1.679,1.679,0,0,0,.424,0c.369-.014.765-.041,1.216-.055,1.216-.082,2.705-.178,4.468-.3,3.771-.287,8.99-.738,14.729-1.366s10.93-1.325,14.674-1.872c1.749-.273,3.224-.492,4.427-.683.451-.082.847-.15,1.2-.2a1.725,1.725,0,0,0,.41-.1,1.975,1.975,0,0,0-.424.027c-.369.041-.765.1-1.216.15-1.2.164-2.692.355-4.44.587-3.757.492-8.936,1.148-14.674,1.776s-10.944,1.12-14.715,1.462c-1.763.15-3.252.287-4.468.4-.451.041-.847.082-1.216.123A2.1,2.1,0,0,0,198.77,338.4Z" transform="translate(-198.77 -333.816)"/></g><g transform="translate(302.696 449.454)"><path class="j" d="M223.005,336.077a10.009,10.009,0,0,1,.6-2.213,10.429,10.429,0,0,1,1.325-1.872,3.319,3.319,0,0,0-1.6,1.749A3.161,3.161,0,0,0,223.005,336.077Z" transform="translate(-222.911 -331.986)"/></g><g transform="translate(295.134 448.501)"><path class="k" d="M217.4,333.477c.068.041.369-.424.669-1.025s.478-1.12.4-1.161-.369.424-.669,1.025S217.313,333.436,217.4,333.477Z" transform="translate(-217.376 -331.288)"/></g><g transform="translate(293.042 448.306)"><path class="l" d="M215.852,332.7c.068.055.424-.246.806-.669s.642-.82.574-.874-.424.246-.806.669S215.8,332.641,215.852,332.7Z" transform="translate(-215.845 -331.145)"/></g><g transform="translate(291.546 447.367)"><path class="m" d="M214.75,330.775a2.9,2.9,0,0,0,1.3.027,2.952,2.952,0,0,0,1.271-.273,5.59,5.59,0,0,0-2.569.246Z" transform="translate(-214.75 -330.458)"/></g><g transform="translate(290.931 445.975)"><path class="d" d="M214.3,329.563a2.481,2.481,0,0,0,1.476.26,2.569,2.569,0,0,0,1.448-.355,9.017,9.017,0,0,0-1.462.055A7.862,7.862,0,0,0,214.3,329.563Z" transform="translate(-214.3 -329.44)"/></g><g transform="translate(295.741 445.869)"><path class="n" d="M217.82,331.942a4.649,4.649,0,0,0,1.571-.191,8.646,8.646,0,0,0,1.64-.56,4.1,4.1,0,0,0,.915-.506.871.871,0,0,0,.342-.533.62.62,0,0,0-.314-.6,2.885,2.885,0,0,0-3.47,1.243,3.024,3.024,0,0,0-.4,1.107,1.129,1.129,0,0,0,0,.424,4.434,4.434,0,0,1,.574-1.421,2.96,2.96,0,0,1,1.243-1.025,2.44,2.44,0,0,1,1.886-.082c.273.164.2.465-.055.656a5.661,5.661,0,0,1-.847.478,10.619,10.619,0,0,1-1.571.6C218.421,331.832,217.82,331.9,217.82,331.942Z" transform="translate(-217.82 -329.362)"/></g><g transform="translate(293.832 445.604)"><path class="h" d="M218.755,332.054a1.469,1.469,0,0,0,.055-1.107,2.652,2.652,0,0,0-.56-1.107,1.574,1.574,0,0,0-1.394-.656.637.637,0,0,0-.41.779,1.635,1.635,0,0,0,.342.669,4.724,4.724,0,0,0,.847.874,2.161,2.161,0,0,0,.97.533c.027-.041-.342-.246-.833-.7a5,5,0,0,1-.765-.874c-.26-.314-.465-.888-.082-1.011.4-.082.833.26,1.107.546a2.651,2.651,0,0,1,.56.97A5.911,5.911,0,0,1,218.755,332.054Z" transform="translate(-216.423 -329.168)"/></g><g transform="translate(269.467 449.412)"><path class="h" d="M198.59,332.317c.014.055.7-.15,1.817-.137a7.726,7.726,0,0,1,6.982,4.4c.492,1.011.6,1.708.656,1.694a1.345,1.345,0,0,0-.055-.492,6.7,6.7,0,0,0-.41-1.3,7.541,7.541,0,0,0-2.883-3.375,7.657,7.657,0,0,0-4.29-1.148,7.785,7.785,0,0,0-1.339.178A2.07,2.07,0,0,0,198.59,332.317Z" transform="translate(-198.59 -331.955)"/></g><g transform="translate(281.791 452.41)"><path class="o" d="M207.61,334.888a13.772,13.772,0,0,0,3.621-.041,14.808,14.808,0,0,0,3.552-.683c-.014-.082-1.612.191-3.58.383S207.61,334.792,207.61,334.888Z" transform="translate(-207.61 -334.149)"/></g><g transform="translate(276.987 453.655)"><path class="n" d="M204.1,335.074c-.055.068.164.328.369.669s.328.669.41.656.082-.4-.15-.806S204.143,335.005,204.1,335.074Z" transform="translate(-204.094 -335.06)"/></g><g transform="translate(274.923 451.601)"><path class="i" d="M202.593,333.575c-.055.068.137.3.41.533s.547.369.6.3-.137-.3-.41-.533S202.647,333.506,202.593,333.575Z" transform="translate(-202.583 -333.557)"/></g><g transform="translate(272.237 450.685)"><path class="k" d="M200.621,333.082c.027.082.355.041.724.123s.656.246.71.191-.178-.383-.642-.478S200.58,333.014,200.621,333.082Z" transform="translate(-200.618 -332.887)"/></g><g transform="translate(270.338 450.52)"><path class="l" d="M199.231,332.84c-.027.082.137.191.342.246s.4.041.424-.041-.137-.191-.342-.246S199.244,332.758,199.231,332.84Z" transform="translate(-199.228 -332.766)"/></g><g transform="translate(230.472 14.455)"><path class="d" d="M215.917,60.625C213.949,50.172,202.4,44.365,197.9,34.733c-1.749-3.744-2.377-7.966-4.318-11.627-4.14-7.843-14.592-11.627-22.8-8.266l-.724,1.12c4.659,9.81,9.318,16.532,13.977,26.342,1.626,3.429,3.293,6.955,3.716,10.726s-.587,7.938-3.511,10.37c-2.336,1.94-5.534,2.528-8.061,4.222-3.853,2.6-5.629,7.6-5.151,12.215s2.951,8.84,6.08,12.269c3.006,3.293,7.774,6.121,11.737,4.072,1.995-1.038,3.238-3.061,4.714-4.755,3.033-3.484,7.214-5.711,10.944-8.43C211.64,77.758,217.543,69.3,215.917,60.625Z" transform="translate(-170.05 -13.61)"/></g><g transform="translate(345.748 91.898)"><path class="p" d="M285.49,88.421c-2.623,2.391-16.9,14.387-16.9,14.387L254.42,89.91c.369-1.052,3.839-7.009,4.236-8.5a11.658,11.658,0,0,0,.355-3.949,17.554,17.554,0,0,0-.888-4.864c-.615-1.394.765-2.815,1.967-2.131s3.006,4.468,2.951,9.373,19.2-6.353,21.929-3.593Z" transform="translate(-254.42 -70.291)"/></g><g transform="translate(370.901 108.607)"><path class="p" d="M272.83,82.52" transform="translate(-272.83 -82.52)"/></g><g transform="translate(255.011 90.777)"><path class="q" d="M188.01,69.47l47.015,56.251L278.173,86.7,297,105.062s-54.174,59.612-62.44,59.188-36.344-18.992-36.344-18.992Z" transform="translate(-188.01 -69.47)"/></g><g transform="translate(347.871 82.359)"><path class="d" d="M269.8,63.351a.762.762,0,0,0-.956.451L256.064,96.02a1.239,1.239,0,0,0,.6,1.571l15.18,7.228a1.229,1.229,0,0,0,1.653-.615l14.36-33.393a1.22,1.22,0,0,0-.724-1.64Z" transform="translate(-255.974 -63.309)"/><g transform="translate(1.662 2.365)"><path class="r" d="M268.94,65.04,257.19,93.787l15.9,7.2,12.023-30.482Z" transform="translate(-257.19 -65.04)"/></g></g><g transform="translate(336.781 115.34)"><path class="d" d="M267.782,106.852a20.732,20.732,0,0,1-3.334-2.364,95.958,95.958,0,0,1-7.405-6.531,97.873,97.873,0,0,1-6.722-7.228,20.045,20.045,0,0,1-2.459-3.279,28.132,28.132,0,0,1,2.828,2.938c1.708,1.844,4.1,4.372,6.845,7.05s5.342,5,7.228,6.654A29.683,29.683,0,0,1,267.782,106.852Z" transform="translate(-247.857 -87.448)"/></g><g transform="translate(342.247 112.897)"><path class="d" d="M252.8,86.261a3.148,3.148,0,0,0-.424,1.544,1.923,1.923,0,0,0,.7,1.407,1.771,1.771,0,0,0,2.678-1.544,1.918,1.918,0,0,0-.861-1.312c-.833-.56-1.53-.287-1.544-.41-.014-.041.123-.164.437-.246a2.061,2.061,0,0,1,1.353.2,2.349,2.349,0,0,1,1.257,1.653,2.379,2.379,0,0,1-3.744,2.145,2.358,2.358,0,0,1-.792-1.926,2.045,2.045,0,0,1,.506-1.284C252.6,86.289,252.79,86.234,252.8,86.261Z" transform="translate(-251.858 -85.66)"/></g><g transform="translate(299.176 146.754)"><path class="d" d="M221.326,127.15a6.8,6.8,0,0,1-.7-2.432A22.336,22.336,0,0,1,222,112.667a7.5,7.5,0,0,1,1.216-2.227c.2.082-1.53,3.566-2.036,8.225C220.629,123.338,221.558,127.109,221.326,127.15Z" transform="translate(-220.334 -110.439)"/></g><g transform="translate(301.862 146.358)"><path class="d" d="M227.3,126.819a7.414,7.414,0,0,1-1.517-2.1,25.611,25.611,0,0,1-2.446-5.779,26.317,26.317,0,0,1-1.025-6.189,7.79,7.79,0,0,1,.15-2.6c.219,0,.178,3.962,1.544,8.58C225.333,123.376,227.492,126.71,227.3,126.819Z" transform="translate(-222.3 -110.15)"/></g><g transform="translate(353.782 90.08)"><path class="b" d="M268.074,68.96,260.3,88.293l11.655,4.768,8.1-19.757Z" transform="translate(-260.3 -68.96)"/></g><g transform="translate(356.434 106.191)"><path class="e" d="M269.727,85.859l-6.873-2.869a1,1,0,0,1-.533-1.312l.137-.314a1,1,0,0,1,1.312-.533l6.873,2.869a1,1,0,0,1,.533,1.312l-.137.314A1.016,1.016,0,0,1,269.727,85.859Z" transform="translate(-262.241 -80.751)"/></g><g transform="translate(361.959 93.253)"><rect class="s" width="1.339" height="9.223" transform="translate(0 1.253) rotate(-69.367)"/></g><g transform="translate(359.406 97.274)"><rect class="c" width="2.637" height="10.193" transform="translate(0 2.468) rotate(-69.367)"/></g><g transform="translate(357.831 101.223)"><rect class="c" width="2.637" height="10.193" transform="translate(0 2.468) rotate(-69.367)"/></g><g transform="translate(365.437 97.854)"><path class="p" d="M279.706,74.65c-2.2.355-4.878.574-7.077.943a3.969,3.969,0,0,0-1.776.588,1.346,1.346,0,0,0-.492,1.653c.355.628,1.216.683,1.94.656l4.85-.164a25.613,25.613,0,0,0-6.107,1.025c-.915.314-1.926.915-1.94,1.872a1.777,1.777,0,0,0,1.6,1.612,18.492,18.492,0,0,0,2.541.041s3.32.055,3.457.478c-2.077-.014-4.809.437-6.873.615-.56.055-.82.82-.956,1.38a1.257,1.257,0,0,0,.6,1.448,1.859,1.859,0,0,0,.82.1l8.034-.246" transform="translate(-268.831 -74.65)"/></g><g transform="translate(208.434 87.285)"><path class="t" d="M183.869,67.045s9.783-1.148,16.628,3.361c6.2,4.072,27.914,66.334,27.067,84.807s1.5,51.045,5.315,64.462,6.681,129.84-23.282,185.23L153.92,397.09l17.393-149.515-1.776-135.633Z" transform="translate(-153.92 -66.914)"/></g><path class="u" d="M180.234,67.045s9.783-1.148,16.628,3.361c6.2,4.072,27.914,66.334,27.067,84.807s1.5,51.045,5.315,64.462,6.681,129.84-23.282,185.23L155.08,397.09l12.611-149.515-1.776-135.633Z" transform="translate(54.939 20.371)"/><g transform="translate(190.88 84.49)"><path class="s" d="M164.9,64.925s-30.619-3.306-22.435,40.47l7.87,46.045,49.993,30.25c6.75,1.817,1.011-31.48,11.176-46.81,3.812-5.752,4.14-10.056,3.812-12.707.956-10.029-7.077-16.3-8.225-26.452-1.257-14.7-1.2-22.845-7.6-24.484L164.9,64.925" transform="translate(-141.072 -64.868)"/></g><g transform="translate(256.692 111.844)"><path class="d" d="M190.032,84.89a13.868,13.868,0,0,0-.014,6.449A25.991,25.991,0,0,0,192.7,97.87a55.963,55.963,0,0,1,3.908,7.9,25.117,25.117,0,0,1,.219,15.849,22.028,22.028,0,0,1-1.954,4.454,6.475,6.475,0,0,1-1.011,1.462,40.342,40.342,0,0,0,2.473-6.066,25.822,25.822,0,0,0-.4-15.467,61.392,61.392,0,0,0-3.812-7.829,25.257,25.257,0,0,1-2.6-6.736,12.194,12.194,0,0,1-.082-4.864,7.129,7.129,0,0,1,.369-1.271C189.937,85.027,190.005,84.877,190.032,84.89Z" transform="translate(-189.24 -84.889)"/></g><g transform="translate(207.573 19.535)"><path class="p" d="M187.871,85.5c-.724-7.528-1.339-15.48-1.339-15.48s9.537-2.569,10.3-15.426c.724-12.256-2.979-33.611-2.979-33.611V19.9c-14.524-4.318-31.712-4.154-40.566,8.007h0l6.845,61.074c.792,7.091,7.528,12.051,15.111,11.149h0C182.9,99.227,188.554,92.669,187.871,85.5Z" transform="translate(-153.29 -17.328)"/><g transform="translate(34.118 15.971)"><g transform="translate(3.197 1.884)"><path class="d" d="M183.838,31.713a1.634,1.634,0,0,1-1.407,1.79,1.561,1.561,0,0,1-1.817-1.3,1.634,1.634,0,0,1,1.407-1.79A1.561,1.561,0,0,1,183.838,31.713Z" transform="translate(-180.601 -30.396)"/></g><path class="d" d="M184.695,30.428c-.178.232-1.5-.56-3.252-.383-1.749.15-2.938,1.175-3.156.984-.1-.082.068-.492.587-.943a4.469,4.469,0,0,1,2.5-1.052,4.24,4.24,0,0,1,2.61.574C184.558,29.964,184.777,30.333,184.695,30.428Z" transform="translate(-178.261 -29.017)"/></g><g transform="translate(15.946 18.403)"><g transform="translate(3.211 1.815)"><path class="d" d="M170.548,33.443a1.634,1.634,0,0,1-1.407,1.79,1.561,1.561,0,0,1-1.817-1.3,1.634,1.634,0,0,1,1.407-1.79A1.558,1.558,0,0,1,170.548,33.443Z" transform="translate(-167.311 -32.125)"/></g><path class="d" d="M171.395,32.208c-.178.232-1.5-.56-3.252-.383-1.749.15-2.938,1.175-3.156.984-.1-.082.068-.492.588-.943a4.469,4.469,0,0,1,2.5-1.052,4.24,4.24,0,0,1,2.61.574C171.272,31.744,171.491,32.1,171.395,32.208Z" transform="translate(-164.961 -30.797)"/></g><g transform="translate(27.763 17.654)"><path class="d" d="M175.851,44.733a11.767,11.767,0,0,1,2.787-.792c.437-.1.861-.219.9-.533a2.418,2.418,0,0,0-.424-1.3c-.519-1.038-1.079-2.131-1.653-3.265-2.309-4.659-4.031-8.5-3.839-8.594s2.213,3.607,4.522,8.266c.56,1.148,1.093,2.241,1.6,3.293a2.66,2.66,0,0,1,.41,1.722,1.142,1.142,0,0,1-.669.724,2.955,2.955,0,0,1-.751.178A10.457,10.457,0,0,1,175.851,44.733Z" transform="translate(-173.609 -30.249)"/></g><g transform="translate(15.849 49.846)"><g transform="translate(0 0)"><path class="v" d="M182.283,56.666A32.416,32.416,0,0,1,164.89,53.81s4.973,8.293,17.516,5.861Z" transform="translate(-164.89 -53.81)"/></g></g><g transform="translate(24.559 35.47)"><path class="w" d="M176.382,44.247a3.156,3.156,0,0,0-2.938-.888,2.92,2.92,0,0,0-1.886,1.257,1.825,1.825,0,0,0,.068,2.09,2.135,2.135,0,0,0,2.35.355,6.643,6.643,0,0,0,2.1-1.558,1.774,1.774,0,0,0,.451-.56.6.6,0,0,0-.068-.656" transform="translate(-171.265 -43.289)"/></g><g transform="translate(24.768 33.859)"><path class="d" d="M171.626,42.11c.287-.041.478,1.845,2.227,3.033s3.757.779,3.8,1.038c.041.123-.41.41-1.271.519a4.771,4.771,0,0,1-3.156-.765,4.2,4.2,0,0,1-1.749-2.555C171.325,42.6,171.5,42.11,171.626,42.11Z" transform="translate(-171.418 -42.11)"/></g></g><g transform="translate(138.151 259.789)"><path class="d" d="M146.516,193.17l-19.415,80s-23.159,95.819-23.883,98.333l-.738,2.992,32.614,2.459,56.483-177.729Z" transform="translate(-102.48 -193.17)"/></g><g transform="translate(180.259 168.451)"><path class="d" d="M193.937,273.827c5.274,25.523,24.635,132.545,24.635,132.545l33.078-3.388L232.836,266.476a44.83,44.83,0,0,0-2.159-10.466l-30.92-92.7L141.567,126.32c-.574.027-9.414,23.883-8.143,40.456a42.478,42.478,0,0,0,7.419,20.631c3.7,5.4,8.854,12.925,10,14.66C152.688,204.828,193.937,273.827,193.937,273.827Z" transform="translate(-133.299 -126.32)"/></g><g transform="translate(134.257 82.101)"><path class="x" d="M140.127,181.579q-2.4,8.649-3.949,17.489c-3.716,21.437-13.171,73.589-19.306,87.389-7.774,17.489-20.4,83.55-16.519,95.7s88.4,24.293,88.4,24.293,4.864-79.178,9.714-99.085,15.057-63.629,16.519-89.37.97-70.433-7.282-98.115S180.461,63.12,180.461,63.12s-16.232,4.468-21.752,10.9c0,0-6.75,8.28-6.886,16.163s-3.744,45.361-6.189,67.14C144.923,163.544,142.177,174.187,140.127,181.579Z" transform="translate(-99.63 -63.12)"/></g><g transform="translate(214.97 97.472)"><path class="d" d="M193.444,212.545a1.863,1.863,0,0,1-.055-.4c-.014-.3-.041-.683-.068-1.161-.055-1.066-.123-2.569-.219-4.468a143.459,143.459,0,0,0-1.571-16.327,54.858,54.858,0,0,0-2.965-10.876,42.4,42.4,0,0,0-6.517-11.122c-2.815-3.607-6.135-7.091-9.359-10.917a67.949,67.949,0,0,1-4.632-6.094,35.546,35.546,0,0,1-3.593-7.036c-1.9-4.973-2.5-10.493-.847-15.371.765-2.473,2.364-4.468,3.566-6.49a12.4,12.4,0,0,0,1.421-3.143,4.652,4.652,0,0,0,.123-1.612,3.453,3.453,0,0,0-.547-1.462,4.789,4.789,0,0,0-2.555-1.817c-1.025-.4-2.1-.669-3.115-1.148a5.929,5.929,0,0,1-2.555-2.145,7.614,7.614,0,0,1-1.093-3.02,20.172,20.172,0,0,1,.164-5.971c.273-1.872.533-3.675.779-5.4,1-6.832,1.817-12.365,2.391-16.259.287-1.872.519-3.361.683-4.413.082-.465.15-.847.191-1.148a1.687,1.687,0,0,1,.1-.383,2.167,2.167,0,0,1-.014.4c-.027.3-.068.683-.123,1.161-.137,1.066-.314,2.555-.56,4.44-.519,3.894-1.257,9.455-2.172,16.286-.232,1.722-.478,3.525-.738,5.4a20,20,0,0,0-.123,5.793,6.957,6.957,0,0,0,1.025,2.774,5.476,5.476,0,0,0,2.309,1.913c.956.437,2.022.71,3.088,1.12a5.5,5.5,0,0,1,2.869,2.063,4.184,4.184,0,0,1,.656,1.749,5.645,5.645,0,0,1-.137,1.858,12.79,12.79,0,0,1-1.476,3.334c-1.243,2.09-2.774,4-3.484,6.367-1.571,4.659-1.011,10.029.847,14.893,1.8,4.946,4.905,9.127,8.089,12.925s6.517,7.323,9.346,10.971a43.03,43.03,0,0,1,6.545,11.3,56.175,56.175,0,0,1,2.91,11.012,127.87,127.87,0,0,1,1.353,16.4c.041,1.9.068,3.4.082,4.468v1.161C193.457,212.408,193.444,212.545,193.444,212.545Z" transform="translate(-158.704 -74.37)"/></g><g transform="translate(238.011 245.712)"><path class="d" d="M176.486,183.623c-.027-.027.082-.219.4-.437a2.337,2.337,0,0,1,1.6-.287,2.258,2.258,0,0,1,1.831,1.626,2.434,2.434,0,0,1-4.017,2.487,2.183,2.183,0,0,1-.6-2.364,2.266,2.266,0,0,1,1-1.271c.342-.191.56-.178.574-.15a3.081,3.081,0,0,0-1.093,1.558,1.683,1.683,0,0,0,.547,1.735,1.936,1.936,0,0,0,2.172.219,1.969,1.969,0,0,0,.779-2.049,1.744,1.744,0,0,0-1.3-1.284A3.151,3.151,0,0,0,176.486,183.623Z" transform="translate(-175.567 -182.867)"/></g><g transform="translate(228.952 292.795)"><path class="d" d="M169.856,218.083c-.027-.027.082-.219.4-.437a2.337,2.337,0,0,1,1.6-.287,2.258,2.258,0,0,1,1.831,1.626,2.434,2.434,0,0,1-4.017,2.487,2.183,2.183,0,0,1-.6-2.364,2.266,2.266,0,0,1,1-1.271c.342-.191.56-.178.574-.15a3.081,3.081,0,0,0-1.093,1.558,1.683,1.683,0,0,0,.547,1.735,1.936,1.936,0,0,0,2.172.219,1.969,1.969,0,0,0,.779-2.049,1.784,1.784,0,0,0-1.3-1.3A3.28,3.28,0,0,0,169.856,218.083Z" transform="translate(-168.937 -217.327)"/></g><g transform="translate(178.889 234.647)"><path class="d" d="M182.991,174.77c0-.014,0,.137-.014.465s-.068.779-.123,1.339c-.137,1.216-.328,2.951-.56,5.151-.519,4.468-1.312,10.917-2.514,18.869-.6,3.976-1.312,8.321-2.282,12.966a42.686,42.686,0,0,1-1.981,7.1,5.855,5.855,0,0,1-.424.888,3.413,3.413,0,0,1-.683.779,7.181,7.181,0,0,1-1.694,1.093,21.191,21.191,0,0,1-3.771,1.3,89.581,89.581,0,0,1-16.614,1.886,168.344,168.344,0,0,1-17.94-.219l-.751-.082a1.121,1.121,0,0,1-.82-.6,4.223,4.223,0,0,1-.424-1.558,20.005,20.005,0,0,1-.082-2.992c.068-1.967.26-3.894.478-5.807.451-3.812,1.038-7.515,1.64-11.108,1.23-7.187,2.6-13.95,3.921-20.139l.055-.219.232-.014a191.2,191.2,0,0,0,32.341-5.616c3.839-1.011,6.832-1.913,8.867-2.541,1-.3,1.79-.547,2.364-.724a6.706,6.706,0,0,1,.779-.219,1.5,1.5,0,0,1-.219.082c-.164.055-.355.137-.6.219-.533.191-1.257.478-2.268.82-2.022.683-5,1.64-8.84,2.705a184.132,184.132,0,0,1-32.382,5.889l.273-.246c-1.3,6.189-2.637,12.953-3.853,20.126-.6,3.593-1.175,7.282-1.626,11.067-.219,1.9-.4,3.812-.465,5.738a20.266,20.266,0,0,0,.082,2.883,3.62,3.62,0,0,0,.342,1.284c.109.178.164.232.314.246.232.027.478.055.724.082a170.03,170.03,0,0,0,17.844.219,90.126,90.126,0,0,0,16.478-1.817,19.771,19.771,0,0,0,3.648-1.243,4.212,4.212,0,0,0,2.5-2.446,42.558,42.558,0,0,0,1.967-6.968c.984-4.6,1.722-8.949,2.35-12.912,1.257-7.938,2.118-14.374,2.733-18.828.3-2.186.533-3.908.7-5.124.082-.56.137-1,.191-1.339C182.95,174.948,182.991,174.77,182.991,174.77Z" transform="translate(-132.296 -174.769)"/><g transform="translate(4.391 9.957)"><path class="d" d="M180.94,182.061a9.443,9.443,0,0,1-1.626.833c-1.066.506-2.637,1.161-4.618,1.913a86.816,86.816,0,0,1-32.382,5.383c-2.1-.055-3.812-.178-4.987-.314a8.132,8.132,0,0,1-1.817-.273,8.259,8.259,0,0,1,1.831-.014c1.175.055,2.883.082,4.973.082a99.772,99.772,0,0,0,32.2-5.356c1.981-.683,3.593-1.257,4.686-1.694A10.148,10.148,0,0,1,180.94,182.061Z" transform="translate(-135.51 -182.056)"/></g></g><g transform="translate(138.219 87.649)"><g transform="translate(13.813)"><path class="s" d="M112.64,185.611s.027-.219.123-.642c.1-.451.232-1.079.41-1.872.4-1.681.97-4.085,1.694-7.187,1.5-6.23,3.785-15.221,6.75-26.3,1.5-5.534,3.143-11.586,4.905-18.09,1.79-6.5,3.648-13.458,5.875-20.7a167.711,167.711,0,0,1,8.43-22.257,103.126,103.126,0,0,1,6.066-11.053,39.855,39.855,0,0,1,3.771-5.26,16.461,16.461,0,0,1,5.165-4.14,8.784,8.784,0,0,1,6.6-.506,11.475,11.475,0,0,1,5.288,3.867c2.733,3.511,3.4,7.952,3.8,12.01.7,8.212,1.366,16.15,2.008,23.692,1.257,15.1,2.391,28.692,3.347,40.128.929,11.4,1.681,20.631,2.2,27.053.246,3.17.437,5.643.56,7.364.055.82.1,1.448.123,1.913a5.906,5.906,0,0,1,.014.656s-.041-.219-.1-.642c-.055-.465-.109-1.093-.2-1.913-.164-1.708-.4-4.181-.7-7.351-.574-6.422-1.407-15.644-2.418-27.039-1-11.422-2.186-25.017-3.5-40.115-.656-7.542-1.339-15.467-2.049-23.678-.4-4.044-1.079-8.334-3.662-11.641a10.685,10.685,0,0,0-4.946-3.621,8.117,8.117,0,0,0-6.08.478,15.716,15.716,0,0,0-4.932,3.962,39.718,39.718,0,0,0-3.716,5.178,104.065,104.065,0,0,0-6.025,10.971,170.194,170.194,0,0,0-8.43,22.162c-2.241,7.228-4.126,14.182-5.93,20.672s-3.457,12.543-4.987,18.063c-3.02,11.053-5.383,20.016-6.968,26.233-.779,3.074-1.394,5.479-1.817,7.146-.2.792-.369,1.407-.478,1.858C112.722,185.393,112.64,185.611,112.64,185.611Z" transform="translate(-112.64 -67.181)"/></g><g transform="translate(0 113.716)"><path class="d" d="M113,150.41c-.533,2.131-10.466,58.656-10.466,58.656l73.9,2.391,10.179-58.615Z" transform="translate(-102.53 -150.41)"/><g transform="translate(10.983 0.86)"><path class="s" d="M182.9,153.691a3.533,3.533,0,0,1-.669.506c-.451.314-1.12.751-1.995,1.312-1.749,1.12-4.3,2.692-7.528,4.522s-7.118,3.935-11.559,6.039c-2.227,1.038-4.536,2.145-7.091,3.061a24.6,24.6,0,0,1-8.252,1.2,38.464,38.464,0,0,1-15.467-4,56.548,56.548,0,0,1-10.958-7.118c-2.9-2.336-5.069-4.413-6.572-5.848-.738-.724-1.312-1.3-1.694-1.694s-.574-.615-.547-.628a4.136,4.136,0,0,1,.656.519c.465.41,1.052.943,1.776,1.585,1.544,1.38,3.771,3.388,6.695,5.657a57.994,57.994,0,0,0,10.917,6.914,38.709,38.709,0,0,0,15.207,3.88,24.308,24.308,0,0,0,8.02-1.148c2.473-.874,4.823-1.981,7.036-2.992,4.427-2.063,8.334-4.113,11.586-5.889s5.848-3.279,7.638-4.318c.847-.492,1.53-.888,2.063-1.2A3.413,3.413,0,0,1,182.9,153.691Z" transform="translate(-110.568 -151.039)"/></g><g transform="translate(69.232 6.025)"><path class="s" d="M162.764,154.82c.191.027-1.79,12.351-4.427,27.49s-4.932,27.408-5.124,27.381,1.79-12.338,4.427-27.5C160.277,167.048,162.573,154.793,162.764,154.82Z" transform="translate(-153.201 -154.82)"/></g><g transform="translate(43.38 17.571)"><path class="s" d="M134.936,163.639c-.191,1.831-.4,3.675-.587,5.506a4.629,4.629,0,0,0,.027,1.735,1.63,1.63,0,0,0,1.134,1.216,1.612,1.612,0,0,0,1.64-.943,4.844,4.844,0,0,0,.4-1.981c.109-1.967.2-3.935.314-5.9-.806,0-1.612.014-2.432.014" transform="translate(-134.28 -163.27)"/></g></g></g><g transform="translate(163.561 89.211)"><path class="x" d="M154.993,68.646c6-2.008,11.012,5.779,11.709,12.064a138.474,138.474,0,0,1,.41,21.806c-1.093,21.533-10.835,42.137-10.835,42.137l61.812,9.236-2.268,23.774-78.166-8.389A18.537,18.537,0,0,1,121.9,145.419c6.982-22.708,18.39-55.458,20.973-60.9C146.33,77.227,146.726,71.406,154.993,68.646Z" transform="translate(-121.078 -68.324)"/></g><g transform="translate(177.2 124.101)"><path class="d" d="M131.06,159.361a1.733,1.733,0,0,1,.4.027l1.175.164c1.066.164,2.582.383,4.536.669,3.962.547,9.714,1.366,16.942,2.2,14.456,1.708,34.759,3.73,58.082,5.534l-.369.314c.724-7.569,1.476-15.549,2.254-23.746v-.041l.3.383c-23.227-3.5-44.665-6.722-61.8-9.3l-.342-.055.109-.314c4.017-12.433,7.1-22.722,8.922-29.963.929-3.621,1.571-6.463,1.967-8.4q.287-1.414.451-2.213c.109-.506.178-.751.178-.751s-.014.26-.1.765-.191,1.257-.369,2.227c-.355,1.954-.943,4.809-1.817,8.444-1.735,7.269-4.741,17.6-8.7,30.059l-.232-.369c17.133,2.541,38.6,5.725,61.825,9.168l.328.055-.027.342v.041c-.779,8.2-1.544,16.177-2.268,23.746l-.027.342-.342-.027c-23.337-1.831-43.64-3.949-58.082-5.779-7.228-.9-12.98-1.776-16.929-2.4-1.94-.342-3.457-.6-4.522-.792-.492-.1-.874-.164-1.161-.219A2.034,2.034,0,0,1,131.06,159.361Z" transform="translate(-131.06 -93.86)"/></g><g transform="translate(246.091 172.947)"><path class="d" d="M181.534,154.217c-.191-.014.15-5.547.792-12.338s1.3-12.283,1.489-12.269-.15,5.534-.792,12.338S181.726,154.245,181.534,154.217Z" transform="translate(-181.481 -129.61)"/></g><g transform="translate(251.781 176.523)"><path class="d" d="M187.865,132.7c0-.041.164-.109.465-.055a1.736,1.736,0,0,1,1.066.724,1.778,1.778,0,0,1,.1,1.954,2.09,2.09,0,0,1-2.172,1.011,2.187,2.187,0,0,1-1.64-1.749,1.99,1.99,0,0,1,.642-1.831c.888-.751,1.667-.492,1.612-.424.014.109-.669.1-1.257.779a1.54,1.54,0,0,0-.369,1.353,1.573,1.573,0,0,0,1.134,1.175,1.5,1.5,0,0,0,1.476-.656,1.279,1.279,0,0,0,.027-1.339C188.535,132.846,187.851,132.8,187.865,132.7Z" transform="translate(-185.646 -132.228)"/></g><g transform="translate(258.564 161.333)"><g transform="translate(14.005)"><g transform="translate(1.339 6.504)"><path class="b" d="M201.84,125.87l2.815,29.28h14.278l3.416-29.28Z" transform="translate(-201.84 -125.87)"/></g><g transform="translate(0 2.719)"><path class="s" d="M202.2,123.1a6.116,6.116,0,0,0-1.339,3.867h23.186a4.308,4.308,0,0,0-1.339-3.867Z" transform="translate(-200.86 -123.1)"/></g><g transform="translate(3.197)"><path class="s" d="M203.979,121.137l-.779,2.9,17.5.137-1.161-3.061Z" transform="translate(-203.2 -121.11)"/></g><g transform="translate(1.038 13.827)"><path class="s" d="M201.62,131.23c0,.273,1.694,14.742,1.694,14.742h17.448l1.667-14.742Z" transform="translate(-201.62 -131.23)"/></g></g><g transform="translate(0 11.156)"><path class="p" d="M206.746,129.364l-.451,4.905,16.9.4s0,5.7-1.708,7.405c0,0,1.708,3.416-.191,5.315s-3.033,1.325-3.033,1.325.765,3.8-1.134,4.755-26.52-.519-26.52-.519l1.517-15.849,5.506-.492C197.8,131.359,203.235,128.749,206.746,129.364Z" transform="translate(-190.61 -129.275)"/></g></g><g transform="translate(190.135 11.303)"><path class="d" d="M203.709,23.322a12.585,12.585,0,0,0-5.383-6.8,9.429,9.429,0,0,0-5.725-1.175c0-.014.014-.027.014-.041l-.027-.41c-1.845-3.293-5.465-4-9.209-3.388s-7.433,3.361-10.767,5.137c-4.509,2.4-8.826,5.151-13.13,7.9-3.58,2.282-7.255,4.645-9.714,8.1a16.852,16.852,0,0,0-2.828,12.707c.888,4.782,3.839,9.646,2.09,14.182-1.175,3.033-4.14,4.932-6.094,7.515a12.152,12.152,0,0,0-.26,14.155c1.995,2.664,5.042,4.277,7.829,6.107,4.427,2.91,8.375,6.572,13.13,8.908s10.767,3.088,15.152.123c4.509-3.061,5.943-9.236,5.151-14.62s-3.4-10.316-5.493-15.357A85.268,85.268,0,0,1,172.83,45.88c-.4-2.8-.629-5.82.71-8.321,1.2-2.241,3.443-3.675,5.479-5.206a43.711,43.711,0,0,0,11.723-13.39,17.1,17.1,0,0,0,4.673,6.558,41.739,41.739,0,0,0,9.209,6.5A20.912,20.912,0,0,0,203.709,23.322Z" transform="translate(-140.527 -11.303)"/></g><g transform="translate(406.111 355.198)"><path class="w" d="M306.265,335.4c-.915-3.621,1.476-7.228,4.154-9.837s5.861-4.932,7.255-8.389c2.268-5.6-.7-12.884,3.143-17.557,2.268-2.746,6.3-3.648,8.307-6.572a15.189,15.189,0,0,0,1.831-5.247A53.447,53.447,0,0,1,344.385,263a46.319,46.319,0,0,1-5.356,23.938c-1.558,2.938-3.484,5.793-4.017,9.086-.861,5.329,2.09,10.849.738,16.081-1.53,5.984-8.293,9.96-8.649,16.122-.3,5.219,4.222,9.824,3.853,15.029a14.137,14.137,0,0,1-2.35,6.176c-4.072,6.681-10.029,11.272-19.005,11.067l-11,.328Z" transform="translate(-298.6 -263)"/></g><path class="y" d="M306.265,335.4c-.915-3.621,1.476-7.228,4.154-9.837s5.861-4.932,7.255-8.389c2.268-5.6-.7-12.884,3.143-17.557,2.268-2.746,6.3-3.648,8.307-6.572a15.189,15.189,0,0,0,1.831-5.247A53.447,53.447,0,0,1,344.385,263a46.319,46.319,0,0,1-5.356,23.938c-1.558,2.938-3.484,5.793-4.017,9.086-.861,5.329,2.09,10.849.738,16.081-1.53,5.984-8.293,9.96-8.649,16.122-.3,5.219,4.222,9.824,3.853,15.029a14.137,14.137,0,0,1-2.35,6.176c-4.072,6.681-10.029,11.272-19.005,11.067l-11,.328Z" transform="translate(107.511 92.198)"/><g transform="translate(366.149 316.928)"><path class="d" d="M307.1,371.361a9.01,9.01,0,0,1-3.033-.082,19.044,19.044,0,0,1-3.566-.915,14.915,14.915,0,0,1-4.4-2.446,6.207,6.207,0,0,1-1.8-2.432,11.769,11.769,0,0,1-.506-3.293,32.291,32.291,0,0,0-.232-3.566,9.568,9.568,0,0,0-1.325-3.539c-1.284-2.282-3.429-4.454-4.1-7.556-.738-3.047-.178-6.34.355-9.646s1.038-6.886-.2-10.329c-1.161-3.443-3.552-6.572-4.741-10.452-1.175-3.921-.6-8.13-.82-12.3a16.448,16.448,0,0,0-1.394-6.121c-.874-1.954-2.1-3.8-3.06-5.848-1.927-4.154-2.241-8.854-2.76-13.458-.246-2.323-.492-4.659-.751-7.036a33.98,33.98,0,0,0-1.189-7.036,62.8,62.8,0,0,0-2.6-6.818,22.9,22.9,0,0,1-1.257-3.566,35.993,35.993,0,0,1-.328-3.785,44.377,44.377,0,0,1,.342-7.61c.314-2.541.779-5.055,1.079-7.6.014-.15.041-.3.055-.437l.055-.506.451.232a16.916,16.916,0,0,1,5.889,5.028,27.785,27.785,0,0,1,3.607,6.722c1.817,4.741,2.446,9.7,3.348,14.428.874,4.727,2.049,9.387,4.44,13.335,1.189,1.967,2.637,3.757,3.908,5.684a15.429,15.429,0,0,1,2.692,6.285c.628,4.659-1.967,8.731-1.448,12.857a14.437,14.437,0,0,0,1.967,5.725c.984,1.763,2.159,3.4,3.252,5.042a31.084,31.084,0,0,1,2.924,5.1,16.228,16.228,0,0,1,1.325,5.52c.246,3.716-.3,7.228-.041,10.548a24.2,24.2,0,0,0,2.664,9.059c1.312,2.719,2.787,5.165,4,7.556.615,1.189,1.189,2.35,1.653,3.511a16.964,16.964,0,0,1,.943,3.484,22.06,22.06,0,0,1,.041,6.285,15.87,15.87,0,0,1-3.2,7.993,6.175,6.175,0,0,1-.9.956,5.121,5.121,0,0,1-.724.615c-.4.273-.615.41-.615.41a15.1,15.1,0,0,0,2.145-2.09,15.947,15.947,0,0,0,3.033-7.938,21.561,21.561,0,0,0-.109-6.189,17.2,17.2,0,0,0-.956-3.4c-.465-1.134-1.038-2.3-1.653-3.47-1.23-2.364-2.719-4.809-4.058-7.542a24.732,24.732,0,0,1-2.76-9.223c-.273-3.388.26-6.927,0-10.548a15.392,15.392,0,0,0-1.3-5.342,31.275,31.275,0,0,0-2.9-4.987c-1.107-1.64-2.282-3.279-3.306-5.083a14.89,14.89,0,0,1-2.063-5.957c-.506-4.4,2.063-8.5,1.421-12.816a14.7,14.7,0,0,0-2.61-6.012c-1.243-1.885-2.705-3.675-3.935-5.7-2.473-4.058-3.662-8.8-4.55-13.554s-1.544-9.66-3.32-14.305a26.071,26.071,0,0,0-3.511-6.545,16.29,16.29,0,0,0-5.643-4.823l.506-.273c-.014.137-.041.287-.055.437-.287,2.569-.765,5.1-1.079,7.6a43.159,43.159,0,0,0-.328,7.5c.068,1.23.137,2.514.314,3.675a22,22,0,0,0,1.216,3.443,60.077,60.077,0,0,1,2.61,6.9,35.333,35.333,0,0,1,1.2,7.159c.246,2.364.492,4.714.738,7.036.506,4.632.82,9.25,2.678,13.253.915,1.995,2.145,3.839,3.047,5.861a16.98,16.98,0,0,1,1.435,6.34c.219,4.249-.355,8.389.765,12.16,1.12,3.744,3.5,6.886,4.7,10.439,1.284,3.593.724,7.31.178,10.589-.547,3.306-1.107,6.531-.41,9.455.615,2.951,2.692,5.11,4,7.46a9.957,9.957,0,0,1,1.339,3.689,30.26,30.26,0,0,1,.2,3.607,11.3,11.3,0,0,0,.451,3.2,5.861,5.861,0,0,0,1.694,2.323,15.324,15.324,0,0,0,4.29,2.459,18.1,18.1,0,0,0,3.525.97,16.26,16.26,0,0,0,2.241.232C306.841,371.348,307.1,371.361,307.1,371.361Z" transform="translate(-269.352 -234.99)"/><g transform="translate(3.723 6.572)"><path class="d" d="M272.081,239.8a1.76,1.76,0,0,1,.109.328c.068.26.137.587.232,1,.2.861.465,2.172.874,3.812s1.407,3.484,2.254,5.752a80.861,80.861,0,0,1,2.569,7.815c.82,2.938,1.544,6.2,2.309,9.7s1.558,7.228,3.457,10.767c.888,1.79,1.9,3.607,2.692,5.588a25.811,25.811,0,0,1,1.544,6.326,130.2,130.2,0,0,0,2.3,13.321c2.159,9.031,4.208,17.625,6.08,25.454,1.913,7.8,3.634,14.838,5.1,20.768,1.421,5.875,2.569,10.644,3.375,14.018.369,1.612.669,2.9.888,3.812.082.41.15.738.219,1,.041.232.055.342.055.342a1.236,1.236,0,0,1-.123-.328q-.1-.389-.287-.984c-.246-.915-.587-2.186-1.011-3.785-.861-3.347-2.09-8.1-3.593-13.964-1.5-5.916-3.279-12.939-5.247-20.727-1.885-7.829-3.962-16.437-6.135-25.468a124.069,124.069,0,0,1-2.3-13.376,25.093,25.093,0,0,0-1.489-6.162c-.765-1.926-1.749-3.744-2.651-5.547a40.7,40.7,0,0,1-3.443-10.93c-.738-3.5-1.421-6.75-2.213-9.687s-1.626-5.547-2.459-7.815c-.792-2.268-1.749-4.14-2.145-5.834-.369-1.681-.574-2.979-.738-3.853-.068-.41-.123-.738-.164-1.011A.85.85,0,0,1,272.081,239.8Z" transform="translate(-272.076 -239.8)"/></g></g><path class="e" d="M297.567,380.619c-7.159-4.318-9.154-17.284-6.107-25.072s8.334-14.879,9.182-23.2c.656-6.394-1.394-12.966.123-19.21,2.063-8.43,10.329-14.906,10.288-23.582-.027-4.864-2.774-9.455-2.514-14.319.3-5.957,4.905-10.671,7.774-15.9,4.386-8.02,4.727-17.516,6.258-26.52S327.6,214.176,335.6,209.79c1.134,7.665,3.115,12.912,2.432,23.282-.246,3.716-4.618,10.821-5.247,18.978-.383,4.878-.656,9.755-.97,14.633-.314,4.755-.656,9.578-2.377,14.018-1.325,3.4-3.443,6.476-4.427,9.988-1.858,6.6.492,13.786-1.011,20.467-1.284,5.67-5.233,10.534-6.066,16.286-1.175,8.089,4.017,16.519,1.284,24.211-1.353,3.826-4.523,6.873-5.438,10.821-.71,3.061.027,6.312-.615,9.387-1.038,4.96-10.534,8.758-15.59,8.43" transform="translate(104.391 72.707)"/><g transform="translate(401.966 290.066)"><path class="h" d="M331.574,215.33a2.108,2.108,0,0,1-.027.437c-.041.328-.1.738-.164,1.257-.178,1.107-.369,2.733-.751,4.823-.41,2.1-1.517,4.481-2.4,7.337-.929,2.856-1.858,6.135-2.692,9.824s-1.544,7.761-2.3,12.146c-.765,4.359-1.558,9.168-3.757,13.731-1.025,2.3-2.159,4.577-3.033,7.023a31.292,31.292,0,0,0-1.558,7.761,156.947,156.947,0,0,1-2.2,16.724c-2.268,11.327-4.427,22.12-6.381,31.931-2.063,9.783-3.935,18.6-5.493,26.014-1.585,7.364-2.869,13.335-3.771,17.516q-.676,3.054-1.066,4.755-.184.758-.287,1.23a1.509,1.509,0,0,1-.123.41,1.416,1.416,0,0,1,.055-.424c.055-.314.137-.724.219-1.243.219-1.134.533-2.746.929-4.782.847-4.195,2.049-10.193,3.539-17.571,1.53-7.433,3.334-16.245,5.342-26.042,1.94-9.824,4.085-20.6,6.326-31.931a159.652,159.652,0,0,0,2.213-16.669,32.421,32.421,0,0,1,1.612-7.911c.888-2.5,2.049-4.8,3.074-7.064,2.186-4.5,2.979-9.2,3.785-13.567.765-4.386,1.517-8.471,2.391-12.16s1.831-6.982,2.8-9.837c.929-2.869,2.063-5.219,2.5-7.269s.669-3.689.874-4.782c.1-.519.178-.929.232-1.243A1.741,1.741,0,0,1,331.574,215.33Z" transform="translate(-295.566 -215.33)"/></g></g></svg>