<svg xmlns="http://www.w3.org/2000/svg" width="25.399" height="25.39" viewBox="0 0 25.399 25.39">
    <path fill="#5e5e5e" d="M15.348 12.993a2.5 2.5 0 1 0-2.5 2.492 2.5 2.5 0 0 0 2.5-2.492zM19.067.022H6.364A6.341 6.341 0 0 0 .016 6.341V8.1h9.34a6.029 6.029 0 0 1 6.978 0h9.08V6.341A6.34 6.34 0 0 0 19.067.022zm2.57 6.011a.705.705 0 0 1-.705.7h-2.179a.706.706 0 0 1-.705-.7v-2.17a.705.705 0 0 1 .705-.7h2.179a.706.706 0 0 1 .705.7zm-2.763 6.96a6.029 6.029 0 0 1-12.058 0 5.945 5.945 0 0 1 .573-2.55H.016v8.65a6.34 6.34 0 0 0 6.348 6.319h12.7a6.341 6.341 0 0 0 6.348-6.319v-8.65H18.3a5.947 5.947 0 0 1 .573 2.55z" transform="translate(-.016 -.022)"/>
</svg>
