<svg xmlns="http://www.w3.org/2000/svg" width="23.122" height="23.116" viewBox="0 0 23.122 23.116"><g transform="translate(0 -0.067)"><g transform="translate(15.637 4.927)"><g transform="translate(0 0)"><circle cx="1" cy="1" r="1" transform="translate(0.485 0.202)"/></g></g><g transform="translate(0 0.067)"><g transform="translate(0 0)"><path d="M22.873,7.558A13.177,13.177,0,0,0,20.032,3.09,12.873,12.873,0,0,0,15.6.305a3.631,3.631,0,0,0-3.852.817L8.2,4.652a3.614,3.614,0,0,0-.754,4.007c.186.419.389.828.6,1.224L.265,17.667A.9.9,0,0,0,0,18.306V22.28a.9.9,0,0,0,.9.9H4.877a.9.9,0,0,0,.9-.9V20.654H7.406a.9.9,0,0,0,.9-.9V18.125H9.935a.9.9,0,1,0,0-1.806H7.406a.9.9,0,0,0-.9.9v1.626H4.877a.9.9,0,0,0-.9.9v1.626H1.806v-2.7l8.01-8.009A.9.9,0,0,0,9.95,9.563a14.617,14.617,0,0,1-.855-1.639,1.8,1.8,0,0,1,.378-1.992L13.02,2.4a1.822,1.822,0,0,1,1.933-.41A11.058,11.058,0,0,1,18.757,4.37a11.364,11.364,0,0,1,2.434,3.848,1.794,1.794,0,0,1-.4,1.928L17.2,13.719a1.819,1.819,0,0,1-1.988.387,11.724,11.724,0,0,1-1.626-.829.9.9,0,0,0-.945,1.54,13.537,13.537,0,0,0,1.877.958A3.62,3.62,0,0,0,18.471,15l3.59-3.573A3.6,3.6,0,0,0,22.873,7.558Z" transform="translate(0 -0.067)"/></g></g></g></svg>