<svg xmlns="http://www.w3.org/2000/svg" width="25.41" height="25.41" viewBox="0 0 25.41 25.41">
    <path fill="#5e5e5e" d="M4.986.009a4.994 4.994 0 0 0-4.979 4.98v15.452a4.994 4.994 0 0 0 4.98 4.978h15.452a4.993 4.993 0 0 0 4.978-4.978V4.989a4.994 4.994 0 0 0-4.978-4.98zM6.239 4.2a2 2 0 1 1-.025 3.989h-.025a2 2 0 1 1 .05-3.989zm11.314 5.3c2.525 0 4.418 1.65 4.418 5.2v6.621h-3.837v-6.182c0-1.552-.555-2.611-1.944-2.611a2.1 2.1 0 0 0-1.969 1.4 2.62 2.62 0 0 0-.126.936v6.448h-3.839s.05-10.464 0-11.547h3.838V11.4a3.81 3.81 0 0 1 3.459-1.9zm-13.258.269h3.837v11.546H4.295V9.769z" transform="translate(-.007 -.009)"/>
</svg>
