<svg xmlns="http://www.w3.org/2000/svg" width="122.146" height="40" viewBox="0 0 122.146 40">
    <defs>
        <style>
            .cls-2{fill:#282828}
        </style>
    </defs>
    <g id="Group_268" transform="translate(-139 -24)">
        <path id="Path_4" fill="#d62e3c" d="M383.659 441.5c-1.846-1.908-3.388-3.53-4.961-5.121-2.292-2.318-4.643-4.578-6.9-6.93a4.45 4.45 0 0 1-.009-6.373 4.465 4.465 0 0 1 6.32 6.306c-.339.394-.685.782-1.118 1.275l2.2 2.1c3.856-2.766 4.676-7.646 1.9-11.224a7.8 7.8 0 1 0-11.671 10.281c3.426 3.529 6.945 6.968 10.421 10.449.413.414.81.844 1.357 1.415l-1.88 1.925c-4.246-4.226-8.438-8.167-12.356-12.363a10.5 10.5 0 0 1 .715-14.738 10.616 10.616 0 0 1 15.132 14.861c-.429.486-.89.944-1.487 1.574l2.1 2.231a13.674 13.674 0 0 0 5.05-14.168 13.952 13.952 0 1 0-23.149 13.4c3.8 3.819 7.647 7.6 11.624 11.54l-1.98 1.564c-4.294-4.166-8.915-8.194-12.985-12.718-4.755-5.288-5.07-13.154-1.381-19.22a16.694 16.694 0 0 1 30.831 6.3 16.376 16.376 0 0 1-4.61 14.153c-1.005 1.081-1.979 2.181-3.163 3.481z" transform="translate(-219.093 -385.51)"/>
        <g id="Group_267" transform="translate(-125.709 -490.988)">
            <path id="Path_534" d="M315.074 555.583a6.959 6.959 0 0 1-2.261-.9q-2.1-1.287-2.1-4.459v-6.578a4.621 4.621 0 0 1 1.931-3.957 8.734 8.734 0 0 1 5.26-1.413q7.175 0 7.175 5.527v4.082H314.98v2.747a2.01 2.01 0 0 0 .691 1.829 4.65 4.65 0 0 0 2.339.432 6.4 6.4 0 0 0 1.947-.157 1.861 1.861 0 0 0 .911-.95 4.863 4.863 0 0 0 .235-1.468h3.957q-.094 3.894-2.747 4.93a10.653 10.653 0 0 1-3.768.6 16.344 16.344 0 0 1-3.471-.265zm-.094-10.3h6.06v-1.978a1.7 1.7 0 0 0-1.225-1.868 7.334 7.334 0 0 0-1.955-.18 4.342 4.342 0 0 0-2.1.448 1.753 1.753 0 0 0-.785 1.68z" class="cls-2" transform="translate(0 -9.73)"/>
            <path id="Path_535" d="M363.044 555.229a7.9 7.9 0 0 1-3.336.636 4.678 4.678 0 0 1-3.321-1.272 4.256 4.256 0 0 1-1.358-3.25 4.211 4.211 0 0 1 1.232-3.172 12.552 12.552 0 0 1 4.718-2.292 14.474 14.474 0 0 0 2.975-1.209 1.657 1.657 0 0 0 .856-1.476q0-1.947-2.653-1.931a2.87 2.87 0 0 0-2.057.573 2.262 2.262 0 0 0-.565 1.656v.66h-4v-.5a4.891 4.891 0 0 1 1.68-3.948 7.874 7.874 0 0 1 5.166-1.421q3.485 0 5.063 1.476a5.522 5.522 0 0 1 1.574 4.241v6.672a2.647 2.647 0 0 0 .283 1.492 1.317 1.317 0 0 0 1.083.361l-.173 3.109h-.895a6.264 6.264 0 0 1-2.716-.479 3.02 3.02 0 0 1-1.444-1.515 5.525 5.525 0 0 1-2.112 1.589zm-3.76-4.341q0 2.025 2.2 2.025a4.241 4.241 0 0 0 1.821-.456 3.626 3.626 0 0 0 1.507-1.287v-4.207a9.916 9.916 0 0 1-2.653 1.311 6.116 6.116 0 0 0-2.387 1.287 2.028 2.028 0 0 0-.488 1.327z" class="cls-2" transform="translate(-26.469 -9.73)"/>
            <path id="Path_536" d="M400.478 556.039v-2.622L407.1 542.1h-6.469v-2.92h11.053v2.575l-6.578 11.3h6.5v2.983z" class="cls-2" transform="translate(-53.612 -10.266)"/>
            <path id="Path_537" d="M434.832 563.654l-.314-3.532a5.344 5.344 0 0 0 3.273-1.719 9.342 9.342 0 0 0 1.578-2.928l-6.343-16.3h4.113l4.381 11.32 3.5-11.32h4.239l-5.119 14.664a26.777 26.777 0 0 1-2.4 5.44 10.68 10.68 0 0 1-2.009 2.41 9.445 9.445 0 0 1-4.899 1.965z" class="cls-2" transform="translate(-73.05 -10.266)"/>
            <path id="Path_538" d="M486.047 545.962a6.08 6.08 0 0 1-4.3-1.319q-1.4-1.319-1.4-4.412v-18.243h4.27v18.181a2.633 2.633 0 0 0 .659 2.017 3.508 3.508 0 0 0 2.355.6h.534l-.329 3.172z" class="cls-2" transform="translate(-101.311)"/>
        </g>
    </g>
</svg>
