<svg xmlns="http://www.w3.org/2000/svg" width="56.918" height="47.628" viewBox="0 0 56.918 47.628">
    <defs>
        <style>
            .cls-1{fill:#ffe81d}
        </style>
    </defs>
    <g id="Group_138" transform="translate(-357 -3224.372)">
        <path id="Path_178" d="M30.488-24.8A53.863 53.863 0 0 0 16.82-14.348Q11.708-8.7 11.708-3.269a8.948 8.948 0 0 0 1.878 5.852 9.689 9.689 0 0 1 6.469-2.3 10.919 10.919 0 0 1 6.99 2.617 8.518 8.518 0 0 1 3.234 6.99 10.668 10.668 0 0 1-3.234 7.408 9.912 9.912 0 0 1-7.408 3.443A14.313 14.313 0 0 1 8.161 15.2Q3.57 9.665 3.57.057q0-8.774 7.721-17.13A39.254 39.254 0 0 1 25.9-26.891z" class="cls-1" transform="translate(383.43 3251.263)"/>
        <path id="Path_180" d="M30.488-24.8A53.863 53.863 0 0 0 16.82-14.348Q11.708-8.7 11.708-3.269a8.948 8.948 0 0 0 1.878 5.852 9.689 9.689 0 0 1 6.469-2.3 10.919 10.919 0 0 1 6.99 2.617 8.518 8.518 0 0 1 3.234 6.99 10.668 10.668 0 0 1-3.234 7.408 9.912 9.912 0 0 1-7.408 3.443A14.313 14.313 0 0 1 8.161 15.2Q3.57 9.665 3.57.057q0-8.774 7.721-17.13A39.254 39.254 0 0 1 25.9-26.891z" class="cls-1" transform="translate(353.43 3251.263)"/>
    </g>
</svg>
