<svg xmlns="http://www.w3.org/2000/svg" xmlns:xlink="http://www.w3.org/1999/xlink" width="703.342" height="273.107" viewBox="0 0 703.342 273.107">
    <defs>
        <radialGradient id="radial-gradient" cx=".442" cy=".403" r=".5" gradientUnits="objectBoundingBox">
            <stop offset="0" stop-color="#fff3c2"/>
            <stop offset=".983" stop-color="#ffdac7"/>
        </radialGradient>
        <radialGradient id="radial-gradient-2" cx=".636" cy=".288" gradientTransform="rotate(78.05 .32 .324)" xlink:href="#radial-gradient"/>
        <radialGradient id="radial-gradient-3" cx=".383" cy=".348" xlink:href="#radial-gradient"/>
        <radialGradient id="radial-gradient-4" cx=".39" cy=".28" xlink:href="#radial-gradient"/>
        <radialGradient id="radial-gradient-5" cx=".39" cy=".28" xlink:href="#radial-gradient"/>
        <radialGradient id="radial-gradient-6" cx=".5" cy=".5" r="1.249" gradientTransform="matrix(.295 0 0 1 .352 0)" gradientUnits="objectBoundingBox">
            <stop offset="0" stop-color="#f3e6ee"/>
            <stop offset=".51" stop-color="#efe4ed"/>
            <stop offset=".962" stop-color="#e4deed"/>
            <stop offset=".983" stop-color="#e4deed"/>
        </radialGradient>
        <radialGradient id="radial-gradient-7" cx=".5" cy=".5" r=".437" gradientTransform="matrix(1.38 0 0 1 -.19 0)" gradientUnits="objectBoundingBox">
            <stop offset="0" stop-color="#9d94c2"/>
            <stop offset=".983" stop-color="#8c74b1"/>
        </radialGradient>
        <radialGradient id="radial-gradient-8" cx=".5" cy=".5" r=".635" gradientTransform="matrix(.67 0 0 1 .165 0)" xlink:href="#radial-gradient-7"/>
        <radialGradient id="radial-gradient-9" cx=".43" cy=".106" r=".485" gradientTransform="matrix(1.264 .164 -.21 .986 .11 .018)" gradientUnits="objectBoundingBox">
            <stop offset=".006" stop-color="#71a6ff"/>
            <stop offset="1" stop-color="#6e76db"/>
        </radialGradient>
        <radialGradient id="radial-gradient-10" cx=".418" cy=".307" r=".32" gradientTransform="matrix(2.745 .164 -.456 .986 1.273 .103)" gradientUnits="objectBoundingBox">
            <stop offset=".006" stop-color="#515bff"/>
            <stop offset=".03" stop-color="#515add"/>
            <stop offset="1" stop-color="#4335bb"/>
        </radialGradient>
        <radialGradient id="radial-gradient-11" cx=".824" cy=".73" r=".672" gradientTransform="matrix(0 1 -.619 0 .412 2.863)" gradientUnits="objectBoundingBox">
            <stop offset="0" stop-color="#aea8c2"/>
            <stop offset=".983" stop-color="#8c74b1"/>
        </radialGradient>
        <radialGradient id="radial-gradient-12" cx=".357" cy=".936" r=".512" gradientTransform="matrix(1.868 .164 -.31 .986 3.733 .584)" gradientUnits="objectBoundingBox">
            <stop offset="0" stop-color="#471371"/>
            <stop offset=".994" stop-color="#20003b"/>
        </radialGradient>
        <radialGradient id="radial-gradient-13" cx=".452" cy=".85" r="1.178" gradientTransform="matrix(.762 .164 -.127 .986 -.128 .372)" gradientUnits="objectBoundingBox">
            <stop offset="0" stop-color="#ffa100"/>
            <stop offset="1" stop-color="#ff9700"/>
        </radialGradient>
        <radialGradient id="radial-gradient-14" cx=".5" cy=".499" r=".361" gradientTransform="matrix(4.179 .164 -.694 .986 3.531 .165)" gradientUnits="objectBoundingBox">
            <stop offset=".006" stop-color="#5c65ff"/>
            <stop offset="1" stop-color="#4f59d0"/>
        </radialGradient>
        <radialGradient id="radial-gradient-15" cx=".5" cy=".5" r="93.724" gradientTransform="matrix(0 .999 -.004 .041 .425 66.194)" gradientUnits="objectBoundingBox">
            <stop offset="0" stop-color="#7c98e3"/>
            <stop offset=".094" stop-color="#7690d8"/>
            <stop offset=".256" stop-color="#667ebc"/>
            <stop offset=".466" stop-color="#4d5f8e"/>
            <stop offset=".718" stop-color="#2b354f"/>
            <stop offset="1"/>
        </radialGradient>
        <radialGradient id="radial-gradient-16" cx=".5" cy=".5" r=".411" gradientTransform="matrix(1.609 0 0 1.016 -.304 -.009)" gradientUnits="objectBoundingBox">
            <stop offset="0" stop-color="#ff7527"/>
            <stop offset=".998" stop-color="#e03347"/>
        </radialGradient>
        <radialGradient id="radial-gradient-17" cx=".5" cy=".5" r=".355" gradientTransform="matrix(4.863 0 0 1.016 -1.931 -.009)" gradientUnits="objectBoundingBox">
            <stop offset="0" stop-color="#b61e09"/>
            <stop offset=".994" stop-color="#860e33"/>
        </radialGradient>
        <radialGradient id="radial-gradient-18" cx=".73" cy=".176" r=".409" gradientTransform="matrix(1.642 0 0 1.016 -.469 -.006)" xlink:href="#radial-gradient-11"/>
        <radialGradient id="radial-gradient-19" cx=".494" cy=".937" r=".497" gradientTransform="matrix(2.01 0 0 1.016 -.499 -.02)" xlink:href="#radial-gradient-12"/>
        <radialGradient id="radial-gradient-20" cx=".494" cy=".937" r="1.227" gradientTransform="matrix(.794 0 0 1.016 .102 -.022)" xlink:href="#radial-gradient-13"/>
        <radialGradient id="radial-gradient-21" cx=".5" cy=".5" r=".349" gradientTransform="matrix(14.756 0 0 1.016 -6.878 -.009)" gradientUnits="objectBoundingBox">
            <stop offset="0" stop-color="#c72a16"/>
            <stop offset=".998" stop-color="#ba2244"/>
        </radialGradient>
        <radialGradient id="radial-gradient-22" cx=".5" cy=".5" r="92.846" gradientTransform="matrix(0 .999 -.004 .042 .547 11.355)" xlink:href="#radial-gradient-15"/>
        <radialGradient id="radial-gradient-23" cx=".482" cy=".231" r=".518" gradientTransform="matrix(1.326 0 0 1.035 -.157 -.011)" gradientUnits="objectBoundingBox">
            <stop offset="0" stop-color="#ffbf00"/>
            <stop offset="1" stop-color="#ffa700"/>
        </radialGradient>
        <radialGradient id="radial-gradient-24" cx=".5" cy=".5" r=".342" gradientTransform="matrix(16.405 0 0 1.035 -7.703 -.02)" gradientUnits="objectBoundingBox">
            <stop offset="0" stop-color="#ff7527"/>
            <stop offset=".998" stop-color="#f44047"/>
        </radialGradient>
        <radialGradient id="radial-gradient-25" cx=".5" r=".345" gradientTransform="matrix(7.208 0 0 1.035 -3.104 -.02)" xlink:href="#radial-gradient-24"/>
        <radialGradient id="radial-gradient-26" cx=".5" cy=".5" r=".362" gradientTransform="matrix(4.425 0 0 1 -1.713 0)" xlink:href="#radial-gradient-7"/>
        <radialGradient id="radial-gradient-27" cx=".5" cy=".5" r=".357" gradientTransform="matrix(7.319 0 0 1 -3.16 0)" xlink:href="#radial-gradient-7"/>
        <radialGradient id="radial-gradient-28" cx=".5" cy=".5" r=".355" gradientTransform="matrix(12.771 0 0 1 -5.885 0)" xlink:href="#radial-gradient-7"/>
        <radialGradient id="radial-gradient-29" cx=".5" cy=".5" r=".355" gradientTransform="matrix(10.299 0 0 1 -4.65 0)" xlink:href="#radial-gradient-7"/>
        <radialGradient id="radial-gradient-30" cx=".465" cy=".519" r=".387" gradientTransform="matrix(.71 .805 -.963 .593 7.921 65.211)" gradientUnits="objectBoundingBox">
            <stop offset="0" stop-color="#ebd7e3"/>
            <stop offset=".983" stop-color="#bdafd2"/>
        </radialGradient>
        <radialGradient id="radial-gradient-31" cx=".605" cy=".232" r=".368" gradientTransform="matrix(.969 -.503 .564 .864 .032 47.222)" xlink:href="#radial-gradient-11"/>
        <radialGradient id="radial-gradient-32" cx=".438" cy=".128" r=".385" gradientTransform="matrix(.965 -.503 .562 .864 1.187 15.405)" xlink:href="#radial-gradient-12"/>
        <radialGradient id="radial-gradient-33" cx=".577" cy=".23" r=".372" gradientTransform="matrix(.979 -.503 .57 .864 -.278 14.25)" xlink:href="#radial-gradient-11"/>
        <radialGradient id="radial-gradient-34" cx=".485" cy=".311" r=".385" gradientTransform="matrix(1.139 -.503 .663 .864 -2.087 6.06)" xlink:href="#radial-gradient-12"/>
        <radialGradient id="radial-gradient-35" cx=".515" cy=".462" r=".103" gradientTransform="matrix(1.217 -.503 4.273 5.211 486.981 484.799)" xlink:href="#radial-gradient-11"/>
        <radialGradient id="radial-gradient-36" cx=".307" cy=".159" r=".314" gradientTransform="matrix(1.321 -.503 1.155 1.299 -8.344 5.52)" xlink:href="#radial-gradient-11"/>
        <radialGradient id="radial-gradient-37" cx=".447" cy=".267" r=".548" gradientTransform="matrix(.716 -.503 .345 .716 -59.731 69.102)" gradientUnits="objectBoundingBox">
            <stop offset="0" stop-color="#fff"/>
            <stop offset=".983" stop-color="#c8bdda"/>
        </radialGradient>
        <radialGradient id="radial-gradient-38" cx=".5" cy=".503" r=".417" gradientTransform="matrix(1.312 -.503 .764 .864 -2.971 4.167)" gradientUnits="objectBoundingBox">
            <stop offset="0" stop-color="#c0a9b1"/>
            <stop offset=".106" stop-color="#b59fa7"/>
            <stop offset=".29" stop-color="#99878d"/>
            <stop offset=".53" stop-color="#6b5e63"/>
            <stop offset=".813" stop-color="#2d2729"/>
            <stop offset="1"/>
        </radialGradient>
        <radialGradient id="radial-gradient-39" cx=".482" cy=".231" r="1.863" gradientTransform="matrix(.179 0 0 .896 .744 .024)" gradientUnits="objectBoundingBox">
            <stop offset="0" stop-color="#ffdb00"/>
            <stop offset="1" stop-color="#ffc700"/>
        </radialGradient>
        <radialGradient id="radial-gradient-40" cx=".709" cy=".316" r=".529" gradientTransform="matrix(.428 -.012 .005 1 .445 .01)" gradientUnits="objectBoundingBox">
            <stop offset=".03" stop-color="#414bb8"/>
            <stop offset="1" stop-color="#2c1c77"/>
        </radialGradient>
        <radialGradient id="radial-gradient-41" cx=".5" cy=".516" r="2.753" gradientTransform="matrix(.129 -.012 .002 1 .517 .007)" xlink:href="#radial-gradient-7"/>
        <radialGradient id="radial-gradient-42" cx=".71" cy=".295" r=".836" gradientTransform="matrix(.213 -.012 .003 1 .586 .009)" xlink:href="#radial-gradient-10"/>
        <radialGradient id="radial-gradient-43" cx=".531" cy=".199" r="1.975" gradientTransform="matrix(.297 -.012 .001 .259 -.723 910)" xlink:href="#radial-gradient-9"/>
        <radialGradient id="radial-gradient-44" cx=".5" cy=".5" r="2.383" gradientTransform="matrix(.15 0 0 1 .425 0)" xlink:href="#radial-gradient-23"/>
        <radialGradient id="radial-gradient-45" cx=".5" cy=".5" r="6.8" gradientTransform="matrix(.052 0 0 1 .474 0)" xlink:href="#radial-gradient-7"/>
        <radialGradient id="radial-gradient-46" cx=".581" cy=".455" r=".441" gradientTransform="matrix(1.037 .272 -.294 .962 1.11 1.137)" xlink:href="#radial-gradient-14"/>
        <radialGradient id="radial-gradient-47" cx=".559" cy=".414" r=".42" gradientTransform="matrix(.57 .811 -.79 .585 5.63 12.342)" xlink:href="#radial-gradient-16"/>
        <radialGradient id="radial-gradient-48" cx=".5" cy=".5" r=".43" gradientTransform="matrix(1.442 0 0 1 -.221 0)" xlink:href="#radial-gradient-17"/>
        <linearGradient id="linear-gradient" x1=".5" x2=".5" y1="1" gradientUnits="objectBoundingBox">
            <stop offset="0" stop-color="#ffd328"/>
            <stop offset="1" stop-color="#ffa700"/>
        </linearGradient>
        <linearGradient id="linear-gradient-2" x2="1" y1=".5" y2=".5" gradientUnits="objectBoundingBox">
            <stop offset=".017" stop-color="#c9bdda"/>
            <stop offset="1" stop-color="#cec9e0"/>
        </linearGradient>
        <linearGradient id="linear-gradient-3" x2="1" y1=".5" y2=".5" gradientUnits="objectBoundingBox">
            <stop offset=".017" stop-color="#e6e0ee"/>
            <stop offset="1" stop-color="#f0eff6"/>
        </linearGradient>
        <linearGradient id="linear-gradient-7" x1="-.937" x2="-.937" y1="1.37" y2=".389" gradientUnits="objectBoundingBox">
            <stop offset=".017" stop-color="#bdaee0"/>
            <stop offset=".096" stop-color="#c3b3e2"/>
            <stop offset=".375" stop-color="#d5c4e8"/>
            <stop offset=".669" stop-color="#e0cdec"/>
            <stop offset="1" stop-color="#e4d1ee"/>
        </linearGradient>
        <linearGradient id="linear-gradient-8" x1=".5" x2=".5" y1="1" y2="0" xlink:href="#linear-gradient-7"/>
        <linearGradient id="linear-gradient-9" x1=".5" x2=".5" y1="1" gradientUnits="objectBoundingBox">
            <stop offset="0" stop-color="#ffb827"/>
            <stop offset=".998" stop-color="#ff6b22"/>
        </linearGradient>
        <linearGradient id="linear-gradient-10" x1="1.208" x2="1.208" y1=".7" y2="-.234" gradientUnits="objectBoundingBox">
            <stop offset=".017" stop-color="#d1c7e0"/>
            <stop offset=".038" stop-color="#d2c8e0"/>
            <stop offset=".335" stop-color="#e4d8e8"/>
            <stop offset=".648" stop-color="#efe2ec"/>
            <stop offset="1" stop-color="#f3e6ee"/>
        </linearGradient>
        <linearGradient id="linear-gradient-11" x1=".5" x2=".5" y1="1" y2="0" xlink:href="#linear-gradient-10"/>
        <linearGradient id="linear-gradient-13" x1=".5" x2=".5" y1="1" gradientUnits="objectBoundingBox">
            <stop offset=".017" stop-color="#e1dbeb"/>
            <stop offset=".174" stop-color="#e6e1f1"/>
            <stop offset=".562" stop-color="#efecfa"/>
            <stop offset="1" stop-color="#f3f0fe"/>
        </linearGradient>
        <linearGradient id="linear-gradient-14" x1=".5" x2=".5" y1="1" gradientUnits="objectBoundingBox">
            <stop offset="0" stop-color="#ff6e27"/>
            <stop offset=".998" stop-color="#e03347"/>
        </linearGradient>
        <linearGradient id="linear-gradient-15" x1="-5.855" x2="-5.855" y1="5.716" y2="4.245" gradientUnits="objectBoundingBox">
            <stop offset=".002" stop-color="#c93347"/>
            <stop offset="1" stop-color="#ff7527"/>
        </linearGradient>
        <linearGradient id="linear-gradient-16" x1="-144.285" x2="-144.128" y1="103.785" y2="102.717" gradientUnits="objectBoundingBox">
            <stop offset=".006" stop-color="#2a0e51"/>
            <stop offset="1" stop-color="#50306c"/>
        </linearGradient>
        <linearGradient id="linear-gradient-17" x1="-5.49" x2="-5.49" y1="5.454" y2="3.905" gradientUnits="objectBoundingBox">
            <stop offset="0"/>
            <stop offset="1" stop-color="#cd6327"/>
        </linearGradient>
        <linearGradient id="linear-gradient-18" x2="1" y1=".5" y2=".5" gradientUnits="objectBoundingBox">
            <stop offset="0" stop-color="#dd7500"/>
            <stop offset="1" stop-color="#cd6327"/>
        </linearGradient>
        <linearGradient id="linear-gradient-19" x1="12.851" x2="12.772" y1="1.641" y2=".56" gradientUnits="objectBoundingBox">
            <stop offset="0" stop-color="#c73e27"/>
            <stop offset=".998" stop-color="#a4152c"/>
        </linearGradient>
        <linearGradient id="linear-gradient-20" x1="11.256" x2="11.182" y1="1.626" y2=".547" xlink:href="#linear-gradient-19"/>
        <linearGradient id="linear-gradient-21" x1="12.337" x2="12.256" y1="1.617" y2=".539" xlink:href="#linear-gradient-14"/>
        <linearGradient id="linear-gradient-22" x1="22.754" x2="22.754" y1="1.547" y2=".52" gradientUnits="objectBoundingBox">
            <stop offset="0" stop-color="#fff"/>
            <stop offset="1" stop-color="#c772bf"/>
        </linearGradient>
        <linearGradient id="linear-gradient-23" x1="19.152" x2="19.116" y1="3.269" y2="1.907" gradientUnits="objectBoundingBox">
            <stop offset="0" stop-color="#c772bf"/>
            <stop offset="1" stop-color="#f2bfe2"/>
        </linearGradient>
        <linearGradient id="linear-gradient-24" x1="77.721" x2="77.575" y1="2.66" y2="1.616" xlink:href="#linear-gradient-19"/>
        <linearGradient id="linear-gradient-25" x1="17.381" x2="17.381" y1="1.425" y2=".387" gradientUnits="objectBoundingBox">
            <stop offset="0" stop-color="#fff"/>
            <stop offset="1" stop-color="#9f4dae"/>
        </linearGradient>
        <linearGradient id="linear-gradient-26" x1="23.666" x2="23.523" y1="1.653" y2=".617" gradientUnits="objectBoundingBox">
            <stop offset=".246" stop-color="#fff"/>
            <stop offset="1" stop-color="#9a89bf"/>
        </linearGradient>
        <linearGradient id="linear-gradient-27" x1=".5" x2=".5" y1="1" gradientUnits="objectBoundingBox">
            <stop offset="0" stop-color="#ffa700"/>
            <stop offset="1" stop-color="#ffbf00"/>
        </linearGradient>
        <linearGradient id="linear-gradient-28" x2="1" y1=".5" y2=".5" gradientUnits="objectBoundingBox">
            <stop offset="0" stop-color="#fff"/>
            <stop offset="1" stop-color="#e55ebf"/>
        </linearGradient>
        <linearGradient id="linear-gradient-29" x1=".074" x2="1.072" y1=".3" y2=".3" xlink:href="#linear-gradient-2"/>
        <linearGradient id="linear-gradient-30" x1=".042" x2="1.042" y1=".12" y2=".12" xlink:href="#linear-gradient-3"/>
        <linearGradient id="linear-gradient-31" x1=".521" x2=".491" y1="1.401" y2=".105" xlink:href="#linear-gradient-14"/>
        <clipPath id="clip-path">
            <path id="Path_224" d="M18.1-242.375l.067-.32a.442.442 0 0 1 .523-.343.442.442 0 0 1 .343.524l-.066.32z" class="cls-1"/>
        </clipPath>
        <clipPath id="clip-path-2">
            <path id="Path_225" d="M25.613-250.27l.067-.32a.444.444 0 0 1 .524-.343.443.443 0 0 1 .343.524l-.067.32z" class="cls-1"/>
        </clipPath>
        <clipPath id="clip-path-3">
            <path id="Path_226" d="M326.9-298.763l.249-.212a.442.442 0 0 1 .624.05.443.443 0 0 1-.05.624l-.249.212z" class="cls-1"/>
        </clipPath>
        <clipPath id="clip-path-4">
            <path id="Path_227" d="M337.677-300.4l.248-.212a.443.443 0 0 1 .624.05.441.441 0 0 1-.05.624l-.248.212z" class="cls-1"/>
        </clipPath>
        <clipPath id="clip-path-5">
            <path id="Path_228" d="M457.992-178.623l-.154-.288a.633.633 0 0 1 .258-.856.634.634 0 0 1 .856.259l.154.288z" class="cls-1"/>
        </clipPath>
        <clipPath id="clip-path-6">
            <path id="Path_229" d="M458.766-190.849l-.154-.288a.632.632 0 0 1 .258-.855.632.632 0 0 1 .856.259l.154.288z" class="cls-1"/>
        </clipPath>
        <clipPath id="clip-path-7">
            <path id="Path_273" d="M132.165-260.686l-.047-.323a.433.433 0 0 1 .366-.492.433.433 0 0 1 .492.366l.047.324z" class="cls-1"/>
        </clipPath>
        <clipPath id="clip-path-8">
            <path id="Path_274" d="M132.806-270.938l-.011.1-.006.048a.433.433 0 0 1-.479.382.433.433 0 0 1-.381-.479l.014-.126z" class="cls-1"/>
        </clipPath>
        <clipPath id="clip-path-9">
            <path id="Path_382" d="M389.169-315.242l-4.806 15.077.459 2.944 2.1-1.932 4.589-15.268a1.622 1.622 0 0 0-2.342-.821z" class="cls-1"/>
        </clipPath>
        <clipPath id="clip-path-10">
            <path id="Path_438" d="M463.729-332.908l-13.13 8.833-1.468 2.592 2.848-.208 13.078-9.117a1.621 1.621 0 0 0-1.328-2.1z" class="cls-1"/>
        </clipPath>
        <style>
            .cls-1{fill:none;clip-rule:evenodd}.cls-110,.cls-111,.cls-112,.cls-113,.cls-114,.cls-115,.cls-116,.cls-117,.cls-118,.cls-119,.cls-12,.cls-122,.cls-123,.cls-124,.cls-126,.cls-127,.cls-128,.cls-130,.cls-131,.cls-132,.cls-133,.cls-134,.cls-135,.cls-136,.cls-137,.cls-138,.cls-139,.cls-14,.cls-140,.cls-141,.cls-142,.cls-143,.cls-144,.cls-145,.cls-146,.cls-147,.cls-148,.cls-149,.cls-15,.cls-150,.cls-151,.cls-152,.cls-153,.cls-154,.cls-155,.cls-156,.cls-158,.cls-159,.cls-160,.cls-161,.cls-21,.cls-23,.cls-25,.cls-42,.cls-49,.cls-52,.cls-57,.cls-59,.cls-62{fill-rule:evenodd}.cls-15,.cls-19,.cls-42,.cls-57{opacity:.5}.cls-15,.cls-19,.cls-25,.cls-42,.cls-49,.cls-57,.cls-58,.cls-62{mix-blend-mode:multiply}.cls-15,.cls-19,.cls-23,.cls-25,.cls-27,.cls-42,.cls-49,.cls-57,.cls-58,.cls-62{isolation:isolate}.cls-12{fill:url(#linear-gradient-2)}.cls-25,.cls-58{opacity:.2}.cls-14{fill:url(#linear-gradient-3)}.cls-15{fill:#9a6d92}.cls-19,.cls-42{fill:#9a2463}.cls-21{fill:#5a448e}.cls-23{fill:#fff;mix-blend-mode:soft-light}.cls-25,.cls-59,.cls-61{fill:#6a1760}.cls-27{opacity:.4;mix-blend-mode:screen}.cls-49{opacity:.8;fill:#9a4f8b}.cls-52{fill:url(#linear-gradient-11)}.cls-57{fill:#884863}.cls-62{fill:#ff0}.cls-109,.cls-110{fill:#8c74b1}.cls-111{fill:#8d75b1}.cls-112{fill:#8d76b2}.cls-113{fill:#8e77b2}.cls-114{fill:#8f78b2}.cls-115{fill:#8f79b3}.cls-116{fill:#907ab3}.cls-117{fill:#917bb3}.cls-118{fill:#917cb4}.cls-119{fill:#927db4}.cls-122{fill:#9480b5}.cls-123{fill:#9581b5}.cls-124{fill:#9582b6}.cls-126{fill:#9784b6}.cls-127{fill:#9785b7}.cls-128{fill:#9886b7}.cls-130{fill:#9988b8}.cls-131{fill:#9a89b8}.cls-132{fill:#9b8ab8}.cls-133{fill:#9b8bb9}.cls-134{fill:#9c8cb9}.cls-135{fill:#9d8db9}.cls-136{fill:#9d8fba}.cls-137{fill:#9e90ba}.cls-138{fill:#9f91ba}.cls-139{fill:#9f92bb}.cls-140{fill:#a093bb}.cls-141{fill:#a194bb}.cls-142{fill:#a195bc}.cls-143{fill:#a296bc}.cls-144{fill:#a397bc}.cls-145{fill:#a398bd}.cls-146{fill:#a499bd}.cls-147{fill:#a59abd}.cls-148{fill:#a59bbe}.cls-149{fill:#a69cbe}.cls-150{fill:#a79dbe}.cls-151{fill:#a79ebf}.cls-152{fill:#a89fbf}.cls-153{fill:#a9a0bf}.cls-154{fill:#a9a1c0}.cls-155{fill:#aaa2c0}.cls-156{fill:#aba3c0}.cls-158{fill:#aca5c1}.cls-159{fill:#ada6c1}.cls-160{fill:#ada7c2}.cls-161{fill:#aea8c2}
        </style>
    </defs>
    <g id="Group_193" transform="translate(137.624 387.12)">
        <g id="Group_142">
            <circle id="Ellipse_30" cx="103.599" cy="103.599" r="103.599" fill="url(#radial-gradient)" transform="translate(217.494 -329.292)"/>
            <circle id="Ellipse_31" cx="66.042" cy="66.042" r="66.042" fill="url(#radial-gradient-2)" transform="rotate(-78.079 -124.343 -155.558)"/>
            <circle id="Ellipse_32" cx="21.375" cy="21.375" r="21.375" fill="url(#radial-gradient-3)" transform="translate(-89.84 -247.976)"/>
            <circle id="Ellipse_33" cx="13.62" cy="13.62" r="13.62" fill="url(#radial-gradient-4)" transform="translate(497.555 -253.668)"/>
            <path id="Path_184" fill="url(#radial-gradient-5)" fill-rule="evenodd" d="M3.24-158.681a6.47 6.47 0 0 1-6.47 6.47 6.47 6.47 0 0 1-6.469-6.47 6.47 6.47 0 0 1 6.469-6.47 6.47 6.47 0 0 1 6.47 6.47z"/>
        </g>
        <path id="Path_185" fill="url(#linear-gradient)" fill-rule="evenodd" d="M208.812-342.651s-.548-12.979 4.268-21.273h15.513s-8.437 10.709-9.441 21.649z"/>
        <path id="Path_186" fill="url(#radial-gradient-6)" fill-rule="evenodd" d="M186.989-323.209l4.773-25.083h106.51l-7.231 32.85z"/>
        <path id="Path_187" fill="url(#radial-gradient-7)" fill-rule="evenodd" d="M298.272-348.292l6.78 2.5v3.831l16.042 6.143-8.484 29.748-22.11-6.687z"/>
        <path id="Path_188" d="M76.045-124.427l-185.38 4.7-28.29 4.963 703.342.753-35.067-2.929-112.527-1.533z" style="isolation:isolate;mix-blend-mode:multiply" fill="#b589b6" opacity="0.5"/>
        <g id="Group_143">
            <path id="Path_189" fill="url(#radial-gradient-8)" fill-rule="evenodd" d="M296.319-196.149l-76.119 4.318-11.563 73.358 94.84 1.533 23.38-51.89z"/>
            <path id="Path_190" d="M303.474-116.94l114.65-1.533 2.708-16.947h-10.38l.677-3 3.384-.98 6.318-33.993h-4.513l.677-4.6-3.159-.8 2.482-17.357h-120v17.357l3.958.8v4.6h1.418l-1.457 37.255-3.919.721v2.781h9.888z" class="cls-12"/>
            <path id="Path_191" d="M411.129-138.423l-114.809 3v2.781l114.132-2.781z" style="isolation:isolate;mix-blend-mode:multiply" fill="#9a597c" fill-rule="evenodd" opacity="0.2"/>
            <path id="Path_192" d="M416.318-173.4H301.695l114.83-1.4 5.025 1.4z" class="cls-14"/>
            <path id="Path_193" d="M417-177.995l-120.676 1.458L289-178.4l7.323-.388h117.513z" class="cls-14"/>
            <path id="Path_194" d="M417.88-157.516l15.457 5.893 13.005 9.784-118.049-.477 87.9-6.124z" class="cls-14"/>
            <path id="Path_195" d="M328.293-142.315l51.9 4.891-10.319.08v2.912h10.316l13.506 12.516 27.136-13.5h-10.38l.677-3 3.384-.98.541-2.912z" class="cls-15"/>
            <path id="Path_196" d="M296.319-185.6h9.508l135.012.987-25.379-5.534z" class="cls-14"/>
            <path id="Path_197" d="M296.319-185.6l70.615 6.81 7.628 1.128 2.376 2.866 20.6.232 2.721 1.171 19.227 7.233 1.344-7.233-4.306-1.4.47-3.2-3.159-.8.833-5.823z" class="cls-15"/>
        </g>
        <g id="Group_145">
            <path id="Path_198" fill="url(#radial-gradient-9)" fill-rule="evenodd" d="M282.5-319.728l-107.748-3.927-39.03 166.216 113.39 21.882z"/>
            <path id="Path_199" fill="url(#radial-gradient-10)" fill-rule="evenodd" d="M284.9-129.611L317.3-306.8s-7.354-8.866-29.671-12.574l-38.522 183.818z"/>
            <path id="Path_200" fill="url(#linear-gradient-7)" fill-rule="evenodd" d="M268.657-205.146s17.269 2.819 26.279 5.741l20.779-105.668s-6.651-7.593-24.674-10.369z"/>
            <ellipse id="Ellipse_34" cx="17.996" cy="11.135" class="cls-19" rx="17.996" ry="11.135" transform="rotate(-80.56 42.017 -230.285)"/>
            <ellipse id="Ellipse_35" cx="17.996" cy="11.135" fill="url(#radial-gradient-11)" rx="17.996" ry="11.135" transform="rotate(-80.568 40.808 -231.574)"/>
            <path id="Path_201" d="M285.449-167.808c-1.232 7.421-5.955 12.814-10.544 12.051a5.349 5.349 0 0 1-1.609-.539c-3.6-1.873-5.554-7.767-4.473-14.274s4.841-11.45 8.848-12.06a5.339 5.339 0 0 1 1.7.009c4.586.762 7.311 7.393 6.078 14.813z" class="cls-21"/>
            <path id="Path_202" fill="url(#radial-gradient-12)" fill-rule="evenodd" d="M282.137-168.358c-1.08 6.5-4.84 11.444-8.841 12.062-3.6-1.873-5.554-7.767-4.473-14.274s4.841-11.45 8.848-12.06c3.586 1.878 5.545 7.772 4.466 14.272z"/>
            <path id="Path_203" d="M270.489-182.75l2.034 2.054a8.89 8.89 0 0 1 8.055-2.648l.953-3.01s-4.731-3.11-11.042 3.604z" class="cls-23"/>
            <path id="Path_204" d="M274.187-151.437l1.452-3.524a10.6 10.6 0 0 0 7.748-5.387l.354 2.824s-3.959 6.45-9.554 6.087z" class="cls-23"/>
            <path id="Path_205" fill="url(#radial-gradient-13)" fill-rule="evenodd" d="M287.191-296.04a49.552 49.552 0 0 1 25.419 6.757l-3.02 15.358s-6.94-4.341-25.656-6.142z"/>
            <path id="Path_206" d="M282.194-271.535s14.856 1.166 25.731 6.075l-1.657 8.428s-9.715-3.872-25.7-6.528z" class="cls-25"/>
            <path id="Path_207" fill="url(#radial-gradient-14)" fill-rule="evenodd" d="M287.633-319.37l-5.137-.359-38.339 183.217 4.95.955z"/>
            <g id="Group_144" class="cls-27">
                <path id="Rectangle_71" fill="url(#radial-gradient-15)" d="M0 0H187.185V0.706H0z" transform="rotate(-78.195 37.88 -218.322)"/>
            </g>
        </g>
        <g id="Group_147">
            <path id="Path_208" fill="url(#radial-gradient-16)" fill-rule="evenodd" d="M211.39-308.938l-109.61 9.4-8.589 177.727 115.443 3.053z"/>
            <path id="Path_209" fill="url(#radial-gradient-17)" fill-rule="evenodd" d="M244.913-118.758l2.933-183.013s-8.707-7.663-31.33-7.663l-7.882 190.676z"/>
            <path id="Path_210" fill="url(#linear-gradient-8)" fill-rule="evenodd" d="M216.516-191.773s17.5-.05 26.864 1.379l3.182-109.384s-7.8-6.5-26.04-6.286z"/>
            <ellipse id="Ellipse_36" cx="11.135" cy="18.287" class="cls-19" rx="11.135" ry="18.287" transform="translate(218.99 -172.973)"/>
            <ellipse id="Ellipse_37" cx="11.135" cy="18.287" fill="url(#radial-gradient-18)" rx="11.135" ry="18.287" transform="translate(218.99 -175.428)"/>
            <path id="Path_211" d="M239.2-157.14c0 7.644-3.776 13.837-8.427 13.837a5.3 5.3 0 0 1-1.676-.273c-3.853-1.279-6.751-6.861-6.751-13.564s2.9-12.284 6.751-13.563a5.274 5.274 0 0 1 1.676-.273c4.651 0 8.427 6.192 8.427 13.836z" class="cls-21"/>
            <path id="Path_212" fill="url(#radial-gradient-19)" fill-rule="evenodd" d="M235.842-157.14c0 6.7-2.9 12.278-6.745 13.564-3.853-1.279-6.751-6.861-6.751-13.564s2.9-12.284 6.751-13.563c3.846 1.286 6.745 6.868 6.745 13.563z"/>
            <path id="Path_213" d="M221.993-169.627l2.343 1.72a8.87 8.87 0 0 1 7.512-4l.447-3.176s-5.178-2.325-10.302 5.456z" class="cls-23"/>
            <path id="Path_214" d="M230.773-138.854l.854-3.774a10.652 10.652 0 0 0 6.76-6.69l.813 2.772s-2.849 7.124-8.427 7.692z" class="cls-23"/>
            <path id="Path_215" fill="url(#radial-gradient-20)" fill-rule="evenodd" d="M219.916-288.781a80.556 80.556 0 0 1 26.17 5.348l-.462 15.9s-6.328-2.058-26.289-4.669z"/>
            <path id="Path_216" d="M219-262.68s14.835.8 26.368 3.908l-.254 8.725s-10.218-2.265-26.422-2.265z" class="cls-25"/>
            <path id="Path_217" fill="url(#radial-gradient-21)" fill-rule="evenodd" d="M216.516-309.434l-5.126.5-7.8 190.047 5.04.133z"/>
            <g id="Group_146" class="cls-27">
                <path id="Rectangle_72" fill="url(#radial-gradient-22)" d="M0 0H190.206V0.713H0z" transform="rotate(-87.65 39.686 -165.332)"/>
            </g>
        </g>
        <path id="Path_218" d="M191.428-280l7.7 1.84-5.774 158.665h-22.835l11.417-158.665z" style="isolation:isolate;mix-blend-mode:multiply" fill="#9a2463" fill-rule="evenodd" opacity="0.8"/>
        <g id="Group_148">
            <path id="Path_219" fill="url(#linear-gradient-9)" fill-rule="evenodd" d="M170.519-119.493l8.694-112.536 9.131-10.11 3.417-41.949-132.851 3.446-8.9 161.149z"/>
            <path id="Path_220" fill="url(#radial-gradient-23)" fill-rule="evenodd" d="M50.006-119.493l8.9-161.149 118.794-8.139-8.8 169.288z"/>
            <path id="Path_221" fill="url(#radial-gradient-24)" fill-rule="evenodd" d="M177.7-288.781l1.517 1.8-8.694 167.493h-1.625z"/>
            <path id="Path_222" fill="url(#radial-gradient-25)" fill-rule="evenodd" d="M191.762-284.088l1.591 2.074-3.064 40.425-9.689 10.375-9.022 111.722h-1.061l8.694-112.536 9.131-10.11z"/>
            <path id="Path_223" d="M184.731-283.905l-14.212 164.412 8.694-164.27z" class="cls-42"/>
        </g>
        <g id="Group_153">
            <g id="Group_150">
                <g id="Group_149" clip-path="url(#clip-path)"/>
            </g>
            <g id="Group_152">
                <g id="Group_151" clip-path="url(#clip-path-2)"/>
            </g>
        </g>
        <g id="Group_158">
            <g id="Group_155">
                <g id="Group_154" clip-path="url(#clip-path-3)"/>
            </g>
            <g id="Group_157">
                <g id="Group_156" clip-path="url(#clip-path-4)"/>
            </g>
        </g>
        <g id="Group_163">
            <g id="Group_160">
                <g id="Group_159" clip-path="url(#clip-path-5)"/>
            </g>
            <g id="Group_162">
                <g id="Group_161" clip-path="url(#clip-path-6)"/>
            </g>
        </g>
        <path id="Path_230" d="M247.552-283.433L270.489-280l-13.117 82.265 3.982 3.742 4.54 61.223-20.7-3.744z" class="cls-49"/>
        <g id="Group_176">
            <path id="Path_231" d="M160.129-255.62l6.182 3.1-3.122 133.03-20.624.234z" class="cls-42"/>
            <path id="Path_232" fill="url(#radial-gradient-26)" fill-rule="evenodd" d="M147.929-276.206l3.85 1.3-.434 5.774 4.773 1.119.412-.707 4.419.707-10.722 147.164h-2.3v1.591h-8.9l-3.233-.234-10.318-5.775z"/>
            <path id="Path_233" fill="url(#linear-gradient-10)" fill-rule="evenodd" d="M56.677-122.263L37.112-263.127l100.62-20.647 11.834 151.133z"/>
            <path id="Path_234" d="M154.822-243.862l3.358-30.4-6.5.71-.332 4.416 4.773 1.119z" class="cls-52"/>
            <path id="Path_235" d="M147.929-276.206h-15.572l-7.137 156.713h10.58z" class="cls-52"/>
            <path id="Path_236" fill="url(#radial-gradient-27)" fill-rule="evenodd" d="M158.181-274.262l.8.972-3.358 29.428h-.8z"/>
            <path id="Path_237" fill="url(#radial-gradient-28)" fill-rule="evenodd" d="M137.732-283.774l.843 1.066 10.991 150.068z"/>
            <g id="Group_175">
                <path id="Path_238" fill="url(#linear-gradient-13)" fill-rule="evenodd" d="M43.121-262.6l101.8-8.66-14.434 152H34.284z"/>
                <path id="Path_239" fill="url(#radial-gradient-29)" fill-rule="evenodd" d="M130.491-119.259h1.709l13.049-152h-.324z"/>
                <path id="Path_240" d="M134.4-270.362v11.653l-1.483-11.527z" class="cls-57"/>
                <g id="Group_165" class="cls-58">
                    <path id="Path_249" d="M133.4-236.084l-78.463 2.539.181-2.7 78.534-2.606z" class="cls-59"/>
                    <path id="Path_250" d="M131.552-215.7l-77.938 2.048.181-2.7 78.009-2.115z" class="cls-59"/>
                    <path id="Path_251" d="M132.942-230.988l-84.191 2.6.175-2.7 84.268-2.669z" class="cls-59"/>
                    <path id="Path_252" d="M130.609-205.326l-83.481 1.932.175-2.7 83.558-2z" class="cls-59"/>
                    <path id="Path_253" d="M97.224-199.429L46.8-198.341l.175-2.7 50.471-1.131z" class="cls-59"/>
                    <path id="Path_254" d="M131.08-210.513l-83.625 2.066.175-2.7 83.7-2.138z" class="cls-59"/>
                    <path id="Path_255" d="M129.375-191.754l-77.322 1.47.181-2.7 77.393-1.537z" class="cls-59"/>
                    <path id="Path_256" d="M128.432-181.38l-82.819 1.311.175-2.7 82.9-1.383z" class="cls-59"/>
                    <path id="Path_257" d="M95.309-175.728l-50.024.712.175-2.7 50.07-.755z" class="cls-59"/>
                    <path id="Path_258" d="M128.9-186.567l-82.962 1.446.175-2.7 83.039-1.518z" class="cls-59"/>
                    <path id="Path_259" d="M127.238-168.247l-76.717.9.181-2.7 76.788-.97z" class="cls-59"/>
                    <path id="Path_260" d="M73.129-157.419l-29 .248.175-2.7 29.029-.273z" class="cls-59"/>
                    <path id="Path_261" d="M71.152-130.8H42.414l.088-1.35 28.751-.013z" class="cls-59"/>
                    <path id="Path_262" d="M126.766-163.06l-82.312.836.175-2.7 82.388-.908z" class="cls-59"/>
                    <path id="Path_263" d="M109.119-225.207l-60.691 1.78.175-2.7 60.746-1.832z" class="cls-59"/>
                </g>
                <path id="Path_264" d="M134.567-119.493l.549-11.306 7.091-95.835.5.272 3.283-42.128h-1.06l-12.705 149z" style="isolation:isolate;mix-blend-mode:multiply" fill="#9a597c" fill-rule="evenodd" opacity="0.5"/>
                <g id="Group_169" class="cls-58">
                    <g id="Group_166">
                        <path id="Path_265" d="M109.839-126.81c-7.7 0-13.97-7-13.97-15.6s6.267-15.6 13.97-15.6 13.97 7 13.97 15.6-6.267 15.6-13.97 15.6zm0-29.794c-6.923 0-12.556 6.366-12.556 14.19s5.633 14.19 12.556 14.19 12.556-6.366 12.556-14.19-5.633-14.186-12.556-14.186z" class="cls-61"/>
                    </g>
                    <g id="Group_167">
                        <path id="Path_266" d="M105.929-135.237a8.614 8.614 0 0 1-3.6-7.144h.368a8.245 8.245 0 0 0 3.435 6.841zm7.846-.019l-.209-.3a8.26 8.26 0 0 0 3.409-6.856v-.064h.368v.064a8.623 8.623 0 0 1-3.568 7.156zm-7.689-14l-.211-.3a6.914 6.914 0 0 1 3.964-1.265 6.9 6.9 0 0 1 3.883 1.211l-.207.3a6.539 6.539 0 0 0-3.676-1.146 6.536 6.536 0 0 0-3.753 1.203z" class="cls-61"/>
                    </g>
                    <g id="Group_168">
                        <path id="Path_267" d="M109.839-128.89c-6.754 0-12.248-6.067-12.248-13.524s5.494-13.524 12.248-13.524 12.249 6.067 12.249 13.524-5.495 13.524-12.249 13.524zm0-23.257c-4.664 0-8.457 4.366-8.457 9.733s3.793 9.733 8.457 9.733 8.458-4.367 8.458-9.733-3.797-9.733-8.458-9.733z" class="cls-61"/>
                    </g>
                </g>
                <path id="Path_268" d="M53.409-238.283l-1.049 6.129-5.437.736-.328 4.816 88.918-2.432v-5.06l-48.169.907 48.169-2.441.948-5.289z" class="cls-62"/>
                <path id="Path_269" d="M48.428-165.831l.322-5.187 79.933-1.574v5.248z" class="cls-62"/>
                <path id="Path_270" d="M45.63-134.208a4.532 4.532 0 0 0 3.586.692 2.728 2.728 0 0 0 1.658-.68 5.272 5.272 0 0 0 1.057-1.505 12.663 12.663 0 0 0 1.094-3.586 8.7 8.7 0 0 0-.042-3.69 1.086 1.086 0 0 0-.46-.638.556.556 0 0 0-.652.21 4.885 4.885 0 0 0-.84 1.63 18.366 18.366 0 0 0-.8 3.708 16.4 16.4 0 0 0-.076 3.795 5.249 5.249 0 0 0 .189.915c.1.276.239.6.505.6.567.071 1.016-.53 1.368-1.005.72-1.032 1.234-2.2 1.939-3.291a3.771 3.771 0 0 1 .637-.776 1.1 1.1 0 0 1 .5-.273c.113.005.221-.042.338.029a.48.48 0 0 1 .27.227 1.816 1.816 0 0 1 .154 1.065 6.647 6.647 0 0 1-.185.972 6.349 6.349 0 0 1-.767 1.825 1.554 1.554 0 0 1-.371.413.828.828 0 0 1-.287.145.4.4 0 0 1-.123.018.277.277 0 0 1-.272-.263.413.413 0 0 1 .1-.251 4.04 4.04 0 0 1 .769-.679 5.238 5.238 0 0 1 .862-.506 1.94 1.94 0 0 1 1.065-.213 2.744 2.744 0 0 1 1.543 1.335 1.617 1.617 0 0 0 .267.308c.043.039.068.035.073.043.1 0 .185.012.264.022.323.04.627.081.935.1a2.414 2.414 0 0 0 1.654-.367 3.027 3.027 0 0 0 .5-.741 5.37 5.37 0 0 1 .675-.732 13.065 13.065 0 0 1 1.53-1.188 21.808 21.808 0 0 1 6.959-3.155l.012.045a24.067 24.067 0 0 0-6.778 3.386 12.843 12.843 0 0 0-1.455 1.195 5.065 5.065 0 0 0-.6.687 3.242 3.242 0 0 1-.552.836 2.721 2.721 0 0 1-1.97.5c-.329-.015-.657-.058-.966-.1-.08-.01-.148-.015-.213-.018a.624.624 0 0 1-.359-.139 1.986 1.986 0 0 1-.365-.4c-.367-.521-.735-1.045-1.239-1.138a2.867 2.867 0 0 0-1.565.635 3.7 3.7 0 0 0-.671.569c-.014 0-.028.082-.007-.042.012-.157-.2-.221-.187-.2h-.006a.363.363 0 0 0 .135-.071 1.162 1.162 0 0 0 .26-.294 5.9 5.9 0 0 0 .724-1.677 2.971 2.971 0 0 0 .113-1.7c-.059-.158-.313-.1-.525.088a3.419 3.419 0 0 0-.587.682c-.71 1.033-1.261 2.2-2.028 3.24a4.7 4.7 0 0 1-.653.733 1.17 1.17 0 0 1-.958.338c-.42-.053-.559-.476-.659-.759a5.394 5.394 0 0 1-.18-.957 20.877 20.877 0 0 1 .1-3.833 22.335 22.335 0 0 1 .718-3.771 5.084 5.084 0 0 1 .848-1.769.9.9 0 0 1 1.037-.316 1.382 1.382 0 0 1 .676.834 8.585 8.585 0 0 1 .083 3.886 13.036 13.036 0 0 1-1.179 3.682 5.227 5.227 0 0 1-1.17 1.573 2.409 2.409 0 0 1-.869.508 5.872 5.872 0 0 1-.961.184 4.574 4.574 0 0 1-3.653-.9z" class="cls-61"/>
                <path id="Path_271" d="M55.141-139.256a2.8 2.8 0 0 1 1.121-1.945 3.292 3.292 0 0 1 1.041-.5 2.9 2.9 0 0 1 1.13-.083 6.879 6.879 0 0 0-1.89.957 5.487 5.487 0 0 0-1.402 1.571z" class="cls-61"/>
                <path id="Path_272" d="M139.928-270.832l2.287 16.071s-.444 3.593-3.639 4.3-4.919-2.415-4.919-2.415 2.87 1.473 4.919.766 2.358-3.7 2.358-3.7l-2.181-14.926z" class="cls-57"/>
                <g id="Group_174">
                    <g id="Group_171">
                        <g id="Group_170" clip-path="url(#clip-path-7)"/>
                    </g>
                    <g id="Group_173">
                        <g id="Group_172" clip-path="url(#clip-path-8)"/>
                    </g>
                </g>
            </g>
            <path id="Path_275" fill="url(#linear-gradient-14)" fill-rule="evenodd" d="M47.26-259.062s3.811-20.281-3.279-28.709l10.357-4.553a73.612 73.612 0 0 1 1.5 32.441z"/>
        </g>
        <g id="Group_177" fill-rule="evenodd">
            <path id="Path_276" fill="url(#linear-gradient-15)" d="M365.283-219.906l62.5-49.633 5.049 6.811-64.142 47.446z"/>
            <path id="Path_277" fill="#ffaa68" d="M365.283-219.906l-7.666 9.218.908.256 10.166-4.85.89-1.223-1.541.06.571-2-2.476-.3.771-1.615z"/>
            <path id="Path_278" fill="url(#linear-gradient-16)" d="M359.529-212.987l.767 1.71-1.771.845-.908-.256z"/>
            <path id="Path_279" fill="url(#radial-gradient-30)" d="M425.991-268.116l.973 2.239 2.475 3.357 1.536 1.166 1.857-1.373-5.049-6.811z"/>
            <path id="Path_280" fill="#ff3e79" d="M427.782-269.538l.7 2.032 2.6 3.523 1.753 1.256 2.848-2.949s-.26-2.526-4.219-5.724z"/>
            <path id="Path_281" d="M431.078-263.983l-63.038 47.539 1.541-.06-.89 1.223 64.141-47.445z" style="isolation:isolate;mix-blend-mode:multiply" fill="#9c4c7a" opacity="0.5"/>
            <path id="Path_282" d="M365.283-219.906l-7.666 9.218.506.143 8.4-8.492 61.957-48.468-.7-2.033z" style="mix-blend-mode:screen;isolation:isolate" fill="url(#linear-gradient-17)"/>
            <path id="Path_283" d="M431.46-271.4s.961 4.287 4.219 5.724a8.338 8.338 0 0 0-4.219-5.724z" style="mix-blend-mode:screen;isolation:isolate" fill="url(#linear-gradient-18)"/>
        </g>
        <g id="Group_178" fill-rule="evenodd">
            <path id="Path_284" fill="url(#radial-gradient-31)" d="M42.819-141.467l.858.836.661-.539-.7-2.173-1.716 1 .9.876z"/>
            <path id="Path_285" fill="url(#radial-gradient-32)" d="M-12.455-223.674l-4.189-7.2s1.355-3.048 3.851-2.955l5.245 6.941z"/>
            <path id="Path_286" fill="url(#radial-gradient-33)" d="M35.616-147.916l5.578-3.567 2.688 8-2.341 1.363z"/>
            <path id="Path_287" fill="url(#radial-gradient-34)" d="M35.616-147.916s-8.03-6.845-15.161-22.981l6.467-4.35s12.261 13.735 14.272 23.764z"/>
            <path id="Path_288" fill="url(#radial-gradient-35)" d="M20.455-170.9l-33.718-51.59a10.692 10.692 0 0 1 7.283-5.019l32.9 52.259z"/>
            <path id="Path_289" fill="url(#radial-gradient-36)" d="M-4.207-224.69l2.242-1.3s5.044 3.4 9.493 11.548 5.864 13.454 9.164 18.872l-.168 1.522s-.649-1.047-3.792-5.569c0 0-10.43-19.669-15.322-23.94l-.67.5z"/>
            <path id="Path_290" fill="url(#radial-gradient-37)" d="M-7.847-214.2a13.606 13.606 0 0 1 7.5-4.364l2.487 3.951a34.552 34.552 0 0 0-7.428 4.324z"/>
            <path id="Path_291" d="M24.215-175.867l-32.481-50.245A3.48 3.48 0 0 1-6-226.859l31.337 50.572z" style="mix-blend-mode:screen;isolation:isolate" fill="url(#radial-gradient-38)" opacity="0.4"/>
        </g>
        <g id="Group_182">
            <g id="Group_181"/>
            <path id="Path_302" fill="url(#linear-gradient-19)" fill-rule="evenodd" d="M126.194-346.978l7.61-.406a9.4 9.4 0 0 0 9.012 4.957 11.152 11.152 0 0 0 9.346-5.938l7.611-.407s1.361 17.089-3.676 23.764c-5.122 6.516-14.039 6.267-14.039 6.267s-9.3-.076-13.984-6.392c-4.614-6.109-1.88-21.845-1.88-21.845z"/>
            <path id="Path_303" fill="url(#linear-gradient-20)" fill-rule="evenodd" d="M159.773-348.772l-.962-.471-.659.246-2.1-.579-.108-1.079-1.43-.712-17.012 11.652-3.7-7.669-9.124-2.511-5.068 24.357s5.918 10.271 27.657 6.042a20.376 20.376 0 0 0 9.786-11.655 55.973 55.973 0 0 0 2.72-17.621z"/>
            <path id="Path_304" fill="url(#linear-gradient-21)" fill-rule="evenodd" d="M119.614-325.535c4.742 7.135 13.732 7.063 13.732 7.063s10.06.6 15.645-6.515c5.5-7.285 5.526-26.38 5.526-26.38-3.818-.788-6.9-.043-10.015.495a12.1 12.1 0 0 1-10.139 6.453 10.1 10.1 0 0 1-9.686-5.479 14.965 14.965 0 0 0-6.911.424s-2.015 17.983 1.848 23.939z"/>
            <path id="Path_305" d="M124.677-349.9s.726 24.445 8.9 23.657 10.93-24.631 10.93-24.631a12.1 12.1 0 0 1-10.139 6.453 10.1 10.1 0 0 1-9.691-5.479z" style="isolation:isolate;mix-blend-mode:multiply" fill="url(#linear-gradient-22)" fill-rule="evenodd"/>
            <path id="Path_306" d="M156.1-325.008l-6.664-.618s-4.934 7.216-15.826 7.163c0 0 9.59.011 14.236-1.167s8.254-5.378 8.254-5.378z" style="isolation:isolate;mix-blend-mode:multiply" fill="url(#linear-gradient-23)" fill-rule="evenodd"/>
            <path id="Path_307" fill="url(#linear-gradient-24)" fill-rule="evenodd" d="M131.067-322.2l5.713-.148-1.026-3.6a4.029 4.029 0 0 0 .958-2.486 3.475 3.475 0 0 0-.992-2.722h-.006a2 2 0 0 0-1.387-.553c-1.4.018-2.592 1.524-2.678 3.364a3.684 3.684 0 0 0 .6 2.285z"/>
            <path id="Path_308" fill="#8e003e" fill-rule="evenodd" d="M136.78-322.349l-1.026-3.6a4.029 4.029 0 0 0 .958-2.486 3.475 3.475 0 0 0-.992-2.722h-.006a3.905 3.905 0 0 0-1.228 2.761 3.7 3.7 0 0 0 .6 2.276l-1.164 3.842z"/>
            <path id="Path_309" d="M156.055-349.576s.039 17.744-4.749 24.126c-5.751 7.677-17.7 6.987-17.7 6.987s17.194 1.953 21.88-8.255c3.842-8.414 2.665-22.279 2.665-22.279z" style="isolation:isolate;mix-blend-mode:multiply" fill="url(#linear-gradient-25)" fill-rule="evenodd"/>
            <path id="Path_310" d="M144.63-376.91a7.725 7.725 0 0 0-5.134-2.064 8.83 8.83 0 0 0-8.956 7.14c-1.285 5.235-1.243 23.221-1.243 23.221l-3.814-1.29s1.341-19.841 2.037-22.938c.941-4.2 5.011-7.335 11.421-6.979a9.1 9.1 0 0 1 5.689 2.91z" style="isolation:isolate;mix-blend-mode:multiply" fill="url(#linear-gradient-26)" fill-rule="evenodd"/>
            <path id="Path_311" fill="#fff" fill-rule="evenodd" d="M154.536-374.091l-2.656-.119s-2.428-8.785-10.918-10.09l-.351-2.04s9.254-.054 13.925 12.249z"/>
            <path id="Path_312" d="M154.52-373.364a14.914 14.914 0 0 1 .457 3.935l-2.4-.091a20.525 20.525 0 0 0-.581-3.954z" class="cls-23"/>
        </g>
        <g id="Group_183" fill-rule="evenodd">
            <path id="Path_313" fill="#c5515c" d="M477.66-115.379l2.2-7.387 47.53-1.044-1.28 9.8z"/>
            <path id="Path_314" fill="url(#radial-gradient-39)" d="M479.855-122.767l-40.32 1.076-.987 5.559 39.112.752z"/>
            <path id="Path_315" fill="url(#linear-gradient-27)" d="M527.383-123.811l-41.37 1.042a53.9 53.9 0 0 1-21.894-6.015 49.391 49.391 0 0 1-19.394-17.922l42.37-2.612a50.3 50.3 0 0 0 11.875 13.9 54 54 0 0 0 28.413 11.607z"/>
            <path id="Path_316" d="M527.383-123.811l-41.37 1.042a53.9 53.9 0 0 1-21.894-6.015l34.851-6.633a54 54 0 0 0 28.413 11.606z" style="isolation:isolate;mix-blend-mode:multiply" fill="url(#linear-gradient-28)" opacity="0.5"/>
        </g>
        <g id="Group_184">
            <path id="Path_317" fill="url(#radial-gradient-40)" fill-rule="evenodd" d="M-63.188-117.034l25.2-1.891-45.873-28.292s-22.4-9.829-32.291-2.457-1.739 27.088 6.822 29.946 46.651 1.2 46.651 1.2z"/>
            <path id="Path_318" fill="url(#linear-gradient-29)" fill-rule="evenodd" d="M-98.792-120.555l-.179-14.6 78.622 6.732.093 7.6z"/>
            <path id="Path_319" fill="url(#radial-gradient-41)" fill-rule="evenodd" d="M-20.35-128.423l59.766-.272 1.064 7.851-60.736.021z"/>
            <path id="Path_320" fill="url(#linear-gradient-30)" fill-rule="evenodd" d="M-98.972-135.155l52.337.879 86.051 5.576-59.766.272z"/>
            <path id="Path_321" fill="url(#radial-gradient-42)" fill-rule="evenodd" d="M40.48-120.844l4.374-.054.023 1.875-65.108.255-80.687-.713-.2-16.435 5.67-1.057s-7.005-16.874-18.222-13.8c-12.724 3.487-5.293 28.207 3.987 30.119 10.171 2.1 47 2.126 47 2.126l-.505 1.493s-37.364.151-46.683-2.479c-9.6-2.708-17.354-27.772-4.594-32.283s21.488 16.567 21.488 16.567l-6 .074.18 14.6 78.536-.268z"/>
            <path id="Path_322" fill="url(#radial-gradient-43)" fill-rule="evenodd" d="M-114.465-151.8s1.769-1.193 9.129-.7l40.826 3.258s9.36 5.748 11.346 14.854l-39.813-.843s-8.83-20.278-21.488-16.569z"/>
            <path id="Path_323" d="M-19.783-118.773l-.016-1.321 64.654-.8.023 1.875z" class="cls-42"/>
            <path id="Path_324" d="M-98.972-135.155l1.535.131.178 14.463-1.534.005z" class="cls-49"/>
            <path id="Path_325" d="M-12.465-124.091l1.188 3.186 5.69.634v1.442l5.754.055-4.143-4.826z" class="cls-42"/>
            <path id="Path_326" fill="url(#linear-gradient-31)" fill-rule="evenodd" d="M-12.465-124.091h10.286s9.9 2.5 12.244 6.372H-1.2s-3.371-4.071-11.265-6.372z"/>
            <path id="Path_327" d="M25.945-127.855l5.586 4.773h8.646l-.323-2.387z" class="cls-42"/>
            <path id="Path_328" fill="url(#radial-gradient-44)" fill-rule="evenodd" d="M25.945-127.855h8.311s7.4-.117 12.332 3.1l-12.332-.717s-2.399-1.583-8.311-2.383z"/>
            <path id="Path_329" d="M-98.972-135.155l10.995.491 67.721 3.023v1.608l-77.156-2.986z" class="cls-12"/>
            <path id="Path_330" fill="url(#radial-gradient-45)" fill-rule="evenodd" d="M-20.256-131.641l57.356-1.378v1.378l-57.357 1.608z"/>
            <path id="Path_331" d="M-98.972-135.155l45.808.769 90.264 1.367-57.357 1.378z" class="cls-14"/>
            <path id="Path_332" fill="#6d4b8b" fill-rule="evenodd" d="M27.542-129.465l-21.913 1.042H-20.35l-77.062-4.6 77.156 2.986 28.408-.8z"/>
        </g>
        <g id="Group_188">
            <path id="Path_333" fill="url(#radial-gradient-46)" fill-rule="evenodd" d="M386.545-321.121L391.5-336.1l-1.533-1.78s6.778-1.167 13.362 4.572l-2.765.646-4.271 15.085 5.193 4-.385 1.356-21.675-6.571.651-2.3z"/>
            <path id="Path_334" fill="#3d155a" fill-rule="evenodd" d="M379.426-318.79a45.854 45.854 0 0 0 21.675 6.571s-8.295-6.841-21.675-6.571z"/>
            <g id="Group_187">
                <g id="Group_186">
                    <g id="Group_185" clip-path="url(#clip-path-9)">
                        <path id="Rectangle_86" d="M0 0H7.151V18.744H0z" class="cls-109" transform="translate(384.363 -315.965)"/>
                        <path id="Path_335" d="M392.952-311.166c-2.149 7.234-5.213 12.706-6.843 12.222s-1.209-6.741.939-13.975a46.186 46.186 0 0 1 3.616-9.005v4.959h1.85v5.8z" class="cls-110"/>
                        <path id="Path_336" d="M392.895-311.182c-2.107 7.094-5.112 12.461-6.711 11.986s-1.186-6.612.921-13.706a45.294 45.294 0 0 1 3.546-8.832v4.769h1.863v5.783z" class="cls-111"/>
                        <path id="Path_337" d="M392.838-311.2c-2.066 6.955-5.012 12.217-6.579 11.751s-1.163-6.482.9-13.438a44.348 44.348 0 0 1 3.477-8.658v4.579h1.875v5.766z" class="cls-112"/>
                        <path id="Path_338" d="M392.782-311.216c-2.025 6.816-4.912 11.972-6.448 11.516s-1.14-6.352.885-13.169a43.454 43.454 0 0 1 3.407-8.485v4.389h1.888v5.749z" class="cls-113"/>
                        <path id="Path_339" d="M392.725-311.233c-1.984 6.677-4.812 11.728-6.316 11.281s-1.117-6.222.866-12.9a42.593 42.593 0 0 1 3.338-8.312v4.2h1.9v5.732z" class="cls-114"/>
                        <path id="Path_340" d="M392.668-311.25c-1.942 6.538-4.711 11.484-6.185 11.046s-1.093-6.093.849-12.631a41.724 41.724 0 0 1 3.268-8.139v4.009h1.914v5.715z" class="cls-115"/>
                        <path id="Path_341" d="M392.611-311.267c-1.9 6.4-4.611 11.24-6.053 10.811s-1.07-5.963.831-12.362a40.737 40.737 0 0 1 3.2-7.966v3.819h1.926v5.7z" class="cls-116"/>
                        <path id="Path_342" d="M392.555-311.284c-1.86 6.261-4.511 11-5.922 10.577s-1.047-5.834.813-12.094 4.511-10.995 5.921-10.576l-.853 6.412v5.681z" class="cls-117"/>
                        <path id="Path_343" d="M392.5-311.3c-1.818 6.121-4.411 10.75-5.79 10.341s-1.024-5.7.795-11.825 4.41-10.751 5.789-10.341 1.022 5.704-.794 11.825z" class="cls-118"/>
                        <path id="Path_344" d="M392.441-311.317c-1.777 5.982-4.31 10.506-5.658 10.106s-1-5.575.776-11.556 4.311-10.507 5.659-10.107 1 5.574-.777 11.557z" class="cls-119"/>
                        <ellipse id="Ellipse_38" cx="11.036" cy="2.487" fill="#937eb4" rx="11.036" ry="2.487" transform="rotate(-73.45 -10.275 -408.576)"/>
                        <ellipse id="Ellipse_39" cx="10.773" cy="2.428" fill="#937fb5" rx="10.773" ry="2.428" transform="rotate(-73.456 -10.345 -408.934)"/>
                        <path id="Path_345" d="M392.271-311.368c-1.653 5.565-4.01 9.774-5.264 9.4s-.93-5.185.723-10.75 4.009-9.773 5.263-9.4.931 5.186-.722 10.75z" class="cls-122"/>
                        <path id="Path_346" d="M392.214-311.385c-1.612 5.426-3.909 9.529-5.132 9.166s-.907-5.056.7-10.481 3.91-9.529 5.132-9.166.912 5.056-.7 10.481z" class="cls-123"/>
                        <path id="Path_347" d="M392.157-311.4c-1.57 5.287-3.809 9.285-5 8.931s-.884-4.926.686-10.212 3.809-9.285 5-8.931.885 4.924-.686 10.212z" class="cls-124"/>
                        <ellipse id="Ellipse_40" cx="9.722" cy="2.191" fill="#9683b6" rx="9.722" ry="2.191" transform="rotate(-73.45 -10.734 -409.604)"/>
                        <path id="Path_348" d="M392.044-311.435c-1.488 5.008-3.609 8.8-4.738 8.461s-.837-4.667.651-9.675 3.608-8.8 4.737-8.461.837 4.667-.65 9.675z" class="cls-126"/>
                        <path id="Path_349" d="M391.987-311.452c-1.446 4.869-3.508 8.552-4.606 8.226s-.814-4.538.632-9.407 3.509-8.551 4.606-8.225.814 4.537-.632 9.406z" class="cls-127"/>
                        <path id="Path_350" d="M391.93-311.469c-1.4 4.73-3.408 8.307-4.474 7.991s-.791-4.408.614-9.138 3.408-8.307 4.474-7.991.791 4.407-.614 9.138z" class="cls-128"/>
                        <ellipse id="Ellipse_41" cx="8.671" cy="1.954" fill="#9987b7" rx="8.671" ry="1.954" transform="rotate(-73.456 -11.078 -410.58)"/>
                        <path id="Path_351" d="M391.817-311.5c-1.323 4.452-3.208 7.819-4.211 7.521s-.745-4.148.578-8.6 3.207-7.819 4.211-7.521.744 4.146-.578 8.6z" class="cls-130"/>
                        <path id="Path_352" d="M391.76-311.52c-1.281 4.313-3.108 7.575-4.079 7.286s-.722-4.019.559-8.331 3.108-7.575 4.08-7.286.721 4.019-.56 8.331z" class="cls-131"/>
                        <path id="Path_353" d="M391.7-311.537c-1.24 4.174-3.007 7.331-3.948 7.051s-.7-3.889.542-8.062 3.007-7.33 3.948-7.051.701 3.889-.542 8.062z" class="cls-132"/>
                        <path id="Path_354" d="M391.646-311.553c-1.2 4.034-2.907 7.085-3.816 6.815s-.674-3.759.524-7.793 2.907-7.086 3.816-6.816.675 3.759-.524 7.794z" class="cls-133"/>
                        <path id="Path_355" d="M391.59-311.57c-1.158 3.9-2.807 6.841-3.685 6.58s-.651-3.629.506-7.525 2.806-6.841 3.684-6.58.652 3.63-.505 7.525z" class="cls-134"/>
                        <path id="Path_356" d="M391.533-311.587c-1.116 3.756-2.707 6.6-3.553 6.346s-.628-3.5.488-7.257 2.706-6.6 3.552-6.345.629 3.5-.487 7.256z" class="cls-135"/>
                        <path id="Path_357" d="M391.476-311.6c-1.074 3.617-2.606 6.353-3.421 6.111s-.6-3.371.469-6.988 2.606-6.353 3.422-6.11.604 3.366-.47 6.987z" class="cls-136"/>
                        <path id="Path_358" d="M391.419-311.621c-1.033 3.478-2.506 6.109-3.289 5.876s-.582-3.241.451-6.719 2.506-6.108 3.29-5.876.581 3.24-.452 6.719z" class="cls-137"/>
                        <path id="Path_359" d="M391.362-311.638c-.991 3.339-2.4 5.864-3.158 5.641s-.558-3.111.434-6.45 2.406-5.864 3.158-5.641.558 3.112-.434 6.45z" class="cls-138"/>
                        <path id="Path_360" d="M391.306-311.655c-.951 3.2-2.306 5.62-3.027 5.406s-.535-2.982.416-6.181 2.3-5.62 3.026-5.406.535 2.982-.415 6.181z" class="cls-139"/>
                        <path id="Path_361" d="M391.249-311.671c-.909 3.06-2.2 5.375-2.895 5.17s-.512-2.852.4-5.912 2.206-5.376 2.895-5.171.509 2.852-.4 5.913z" class="cls-140"/>
                        <path id="Path_362" d="M391.192-311.688c-.868 2.921-2.1 5.131-2.763 4.935s-.489-2.722.379-5.644 2.1-5.131 2.763-4.935.489 2.722-.379 5.644z" class="cls-141"/>
                        <path id="Path_363" d="M391.135-311.7c-.826 2.782-2 4.887-2.631 4.7s-.466-2.592.361-5.375 2.005-4.886 2.632-4.7.465 2.588-.362 5.375z" class="cls-142"/>
                        <path id="Path_364" d="M391.079-311.722c-.785 2.643-1.9 4.642-2.5 4.465s-.442-2.463.344-5.106 1.9-4.642 2.5-4.465.441 2.463-.344 5.106z" class="cls-143"/>
                        <path id="Path_365" d="M391.022-311.739c-.744 2.5-1.8 4.4-2.369 4.231s-.418-2.334.325-4.838 1.8-4.4 2.369-4.23.419 2.333-.325 4.837z" class="cls-144"/>
                        <path id="Path_366" d="M390.965-311.756c-.7 2.365-1.7 4.154-2.237 4s-.395-2.2.307-4.569 1.7-4.154 2.237-3.995.396 2.199-.307 4.564z" class="cls-145"/>
                        <path id="Path_367" d="M390.908-311.773c-.661 2.226-1.6 3.91-2.1 3.761s-.372-2.074.289-4.3 1.6-3.91 2.1-3.761.373 2.073-.289 4.3z" class="cls-146"/>
                        <path id="Path_368" d="M390.852-311.789c-.62 2.086-1.5 3.665-1.974 3.525s-.349-1.945.271-4.031 1.5-3.665 1.974-3.526.348 1.945-.271 4.032z" class="cls-147"/>
                        <path id="Path_369" d="M390.8-311.806c-.579 1.947-1.4 3.42-1.842 3.29s-.326-1.815.252-3.762 1.4-3.421 1.843-3.291.32 1.815-.253 3.763z" class="cls-148"/>
                        <path id="Path_370" d="M390.738-311.823c-.537 1.808-1.3 3.176-1.711 3.055s-.3-1.685.235-3.494 1.3-3.176 1.711-3.055.302 1.685-.235 3.494z" class="cls-149"/>
                        <path id="Path_371" d="M390.681-311.84c-.5 1.669-1.2 2.932-1.579 2.82s-.279-1.555.217-3.225 1.2-2.932 1.579-2.82.279 1.556-.217 3.225z" class="cls-150"/>
                        <path id="Path_372" d="M390.625-311.857c-.455 1.53-1.1 2.688-1.448 2.585s-.256-1.426.2-2.956 1.1-2.688 1.447-2.585.255 1.426-.199 2.956z" class="cls-151"/>
                        <path id="Path_373" d="M390.568-311.874c-.413 1.391-1 2.444-1.316 2.35s-.233-1.3.181-2.687 1-2.443 1.315-2.35.233 1.296-.18 2.687z" class="cls-152"/>
                        <path id="Path_374" d="M390.511-311.891c-.372 1.252-.9 2.2-1.184 2.116s-.21-1.167.162-2.419.9-2.2 1.185-2.115.209 1.166-.163 2.418z" class="cls-153"/>
                        <path id="Path_375" d="M390.454-311.908c-.33 1.113-.8 1.955-1.052 1.881s-.187-1.037.144-2.15.8-1.955 1.053-1.881.186 1.038-.145 2.15z" class="cls-154"/>
                        <path id="Path_376" d="M390.4-311.924c-.29.973-.7 1.71-.922 1.645s-.162-.908.127-1.881.7-1.711.921-1.646.161.906-.126 1.882z" class="cls-155"/>
                        <path id="Path_377" d="M390.341-311.941c-.248.834-.6 1.466-.79 1.41s-.139-.778.109-1.613.6-1.466.789-1.41.14.778-.108 1.613z" class="cls-156"/>
                        <ellipse id="Ellipse_42" cx="1.314" cy=".296" fill="#aba4c1" rx="1.314" ry=".296" transform="rotate(-73.457 -13.643 -416.334)"/>
                        <path id="Path_378" d="M390.227-311.975c-.165.557-.4.977-.526.94s-.093-.518.072-1.075.4-.977.526-.94.094.519-.072 1.075z" class="cls-158"/>
                        <path id="Path_379" d="M390.17-311.992c-.124.418-.3.733-.394.705s-.07-.389.054-.806.3-.733.4-.705.064.389-.06.806z" class="cls-159"/>
                        <path id="Path_380" d="M390.114-312.009c-.083.279-.2.489-.263.47s-.047-.259.036-.537.2-.489.263-.47.05.259-.036.537z" class="cls-160"/>
                        <path id="Path_381" d="M390.057-312.026c-.041.14-.1.245-.132.235s-.023-.129.018-.268.1-.245.132-.235.025.129-.018.268z" class="cls-161"/>
                    </g>
                </g>
            </g>
            <path id="Path_383" d="M391.5-336.1s5.676-.258 9.064 3.438l2.765-.646s-5.944-4.776-13.362-4.572z" class="cls-49"/>
        </g>
        <g id="Group_192">
            <path id="Path_384" fill="url(#radial-gradient-47)" fill-rule="evenodd" d="M465.324-339.145l13.185-8.66-.1-2.349s6.038 3.3 7.634 11.883l-2.569-1.211-12.716 9.171 1.587 6.358-1.144.825L458.3-341.74l1.94-1.4z"/>
            <path id="Path_385" fill="url(#radial-gradient-48)" fill-rule="evenodd" d="M458.3-341.74a45.861 45.861 0 0 0 12.9 18.612s-2.248-10.514-12.9-18.612z"/>
            <g id="Group_191">
                <g id="Group_190">
                    <g id="Group_189" clip-path="url(#clip-path-10)">
                        <path id="Rectangle_87" d="M0 0H16.474V11.425H0z" class="cls-109" transform="translate(449.131 -332.908)"/>
                        <path id="Path_386" d="M464.163-327.364c-6.177 4.336-11.976 6.722-12.953 5.33s3.238-6.035 9.415-10.37 11.976-6.722 12.953-5.33l-6.973 3.826v.256h4.948a46.176 46.176 0 0 1-7.39 6.288z" class="cls-110"/>
                        <path id="Path_387" d="M464.129-327.412c-6.058 4.252-11.746 6.592-12.7 5.227s3.176-5.919 9.234-10.171 11.746-6.592 12.7-5.227l-6.758 3.675v.328h4.772a45.245 45.245 0 0 1-7.248 6.168z" class="cls-111"/>
                        <path id="Path_388" d="M464.1-327.461c-5.939 4.169-11.516 6.463-12.455 5.125s3.114-5.8 9.053-9.971 11.516-6.463 12.455-5.125l-6.543 3.524v.4h4.6a44.405 44.405 0 0 1-7.11 6.047z" class="cls-112"/>
                        <path id="Path_389" d="M464.061-327.509c-5.821 4.085-11.285 6.333-12.206 5.022s3.052-5.687 8.872-9.772 11.285-6.333 12.206-5.022l-6.328 3.373v.473h4.42a43.563 43.563 0 0 1-6.964 5.926z" class="cls-113"/>
                        <path id="Path_390" d="M464.027-327.557c-5.7 4-11.055 6.2-11.957 4.919s2.989-5.571 8.691-9.573 11.055-6.2 11.957-4.919l-6.113 3.222v.546h4.244a42.631 42.631 0 0 1-6.822 5.805z" class="cls-114"/>
                        <path id="Path_391" d="M463.993-327.606c-5.583 3.918-10.825 6.075-11.708 4.817s2.927-5.455 8.51-9.373 10.825-6.075 11.708-4.817-2.927 5.455-8.51 9.373z" class="cls-115"/>
                        <path id="Path_392" d="M463.959-327.654c-5.464 3.835-10.6 5.945-11.459 4.714s2.865-5.339 8.329-9.174 10.594-5.945 11.459-4.714-2.865 5.339-8.329 9.174z" class="cls-116"/>
                        <path id="Path_393" d="M463.925-327.7c-5.346 3.752-10.364 5.816-11.21 4.612s2.8-5.223 8.148-8.974 10.364-5.816 11.21-4.612-2.803 5.22-8.148 8.974z" class="cls-117"/>
                        <path id="Path_394" d="M463.891-327.751c-5.227 3.668-10.134 5.687-10.961 4.509s2.741-5.106 7.967-8.775 10.134-5.687 10.96-4.509-2.74 5.106-7.966 8.775z" class="cls-118"/>
                        <path id="Path_395" d="M463.857-327.8c-5.108 3.585-9.9 5.558-10.712 4.407s2.678-4.99 7.786-8.575 9.9-5.558 10.711-4.407-2.678 4.99-7.785 8.575z" class="cls-119"/>
                        <path id="Path_396" fill="#937eb4" fill-rule="evenodd" d="M463.823-327.848c-4.989 3.5-9.673 5.428-10.462 4.3s2.615-4.874 7.6-8.376 9.673-5.428 10.462-4.3-2.611 4.874-7.6 8.376z"/>
                        <path id="Path_397" fill="#937fb5" fill-rule="evenodd" d="M463.789-327.9c-4.871 3.418-9.443 5.3-10.213 4.2s2.553-4.758 7.423-8.176 9.443-5.3 10.213-4.2-2.553 4.761-7.423 8.176z"/>
                        <path id="Path_398" d="M463.755-327.945c-4.752 3.335-9.213 5.17-9.964 4.1s2.491-4.642 7.242-7.977 9.213-5.17 9.964-4.1-2.491 4.642-7.242 7.977z" class="cls-122"/>
                        <path id="Path_399" d="M463.721-327.994c-4.633 3.252-8.982 5.041-9.715 4s2.429-4.526 7.061-7.777 8.982-5.041 9.715-4-2.429 4.526-7.061 7.777z" class="cls-123"/>
                        <path id="Path_400" d="M463.687-328.042c-4.514 3.168-8.752 4.911-9.466 3.894s2.366-4.41 6.88-7.578 8.752-4.911 9.466-3.894-2.367 4.41-6.88 7.578z" class="cls-124"/>
                        <path id="Path_401" fill="#9683b6" fill-rule="evenodd" d="M463.653-328.091c-4.4 3.085-8.522 4.783-9.217 3.792s2.3-4.294 6.7-7.378 8.522-4.783 9.217-3.792-2.305 4.294-6.7 7.378z"/>
                        <path id="Path_402" d="M463.619-328.139c-4.277 3-8.292 4.653-8.968 3.689s2.242-4.178 6.518-7.179 8.291-4.653 8.968-3.689-2.242 4.178-6.518 7.179z" class="cls-126"/>
                        <path id="Path_403" d="M463.585-328.188c-4.158 2.918-8.061 4.524-8.719 3.587s2.18-4.062 6.337-6.979 8.061-4.524 8.719-3.587-2.18 4.062-6.337 6.979z" class="cls-127"/>
                        <path id="Path_404" d="M463.551-328.236c-4.039 2.835-7.831 4.395-8.47 3.484s2.118-3.945 6.156-6.78 7.831-4.395 8.47-3.484-2.118 3.945-6.156 6.78z" class="cls-128"/>
                        <path id="Path_405" fill="#9987b7" fill-rule="evenodd" d="M463.517-328.285c-3.92 2.752-7.6 4.266-8.221 3.382s2.055-3.829 5.975-6.58 7.6-4.266 8.221-3.382-2.056 3.829-5.975 6.58z"/>
                        <path id="Path_406" d="M463.483-328.333c-3.8 2.668-7.37 4.136-7.972 3.279s1.993-3.713 5.794-6.381 7.37-4.136 7.972-3.279-1.993 3.714-5.794 6.381z" class="cls-130"/>
                        <path id="Path_407" d="M463.448-328.381c-3.682 2.584-7.139 4.006-7.722 3.177s1.931-3.6 5.613-6.183 7.14-4.006 7.722-3.177-1.93 3.598-5.613 6.183z" class="cls-131"/>
                        <path id="Path_408" d="M463.414-328.43c-3.563 2.5-6.909 3.878-7.472 3.075s1.868-3.482 5.431-5.983 6.91-3.878 7.473-3.075-1.868 3.482-5.432 5.983z" class="cls-132"/>
                        <path id="Path_409" d="M463.38-328.478c-3.444 2.417-6.679 3.748-7.223 2.972s1.806-3.366 5.25-5.784 6.679-3.748 7.224-2.972-1.806 3.362-5.251 5.784z" class="cls-133"/>
                        <path id="Path_410" d="M463.346-328.527c-3.326 2.334-6.448 3.619-6.974 2.87s1.743-3.25 5.069-5.584 6.449-3.619 6.975-2.87-1.744 3.25-5.07 5.584z" class="cls-134"/>
                        <path id="Path_411" d="M463.312-328.575c-3.207 2.251-6.218 3.489-6.725 2.767s1.681-3.134 4.888-5.385 6.219-3.489 6.726-2.767-1.681 3.134-4.889 5.385z" class="cls-135"/>
                        <path id="Path_412" d="M463.278-328.624c-3.088 2.168-5.988 3.361-6.476 2.665s1.619-3.018 4.707-5.185 5.989-3.361 6.477-2.665-1.619 3.018-4.708 5.185z" class="cls-136"/>
                        <path id="Path_413" d="M463.244-328.672c-2.969 2.084-5.757 3.231-6.227 2.562s1.557-2.9 4.526-4.986 5.758-3.231 6.228-2.562-1.557 2.902-4.527 4.986z" class="cls-137"/>
                        <path id="Path_414" d="M463.21-328.721c-2.85 2-5.527 3.1-5.978 2.46s1.495-2.785 4.345-4.786 5.528-3.1 5.979-2.46-1.495 2.785-4.346 4.786z" class="cls-138"/>
                        <path id="Path_415" d="M463.176-328.769c-2.732 1.917-5.3 2.973-5.729 2.357s1.432-2.669 4.165-4.587 5.3-2.973 5.729-2.357-1.433 2.669-4.165 4.587z" class="cls-139"/>
                        <path id="Path_416" d="M463.142-328.818c-2.613 1.834-5.067 2.844-5.48 2.255s1.37-2.553 3.984-4.387 5.066-2.844 5.48-2.255-1.37 2.553-3.984 4.387z" class="cls-140"/>
                        <path id="Path_417" d="M463.108-328.866c-2.494 1.751-4.836 2.714-5.231 2.152s1.308-2.437 3.8-4.188 4.836-2.714 5.231-2.152-1.308 2.437-3.8 4.188z" class="cls-141"/>
                        <path id="Path_418" d="M463.074-328.915c-2.375 1.668-4.606 2.585-4.982 2.05s1.246-2.321 3.622-3.988 4.606-2.585 4.982-2.05-1.246 2.321-3.622 3.988z" class="cls-142"/>
                        <path id="Path_419" d="M463.04-328.963c-2.257 1.584-4.376 2.456-4.733 1.947s1.184-2.205 3.441-3.789 4.375-2.456 4.732-1.947-1.18 2.205-3.44 3.789z" class="cls-143"/>
                        <path id="Path_420" d="M463.006-329.012c-2.138 1.5-4.145 2.327-4.484 1.845s1.121-2.089 3.26-3.589 4.145-2.327 4.483-1.845-1.121 2.089-3.259 3.589z" class="cls-144"/>
                        <path id="Path_421" d="M462.972-329.06c-2.019 1.417-3.915 2.2-4.234 1.742s1.058-1.973 3.078-3.39 3.915-2.2 4.234-1.742-1.058 1.973-3.078 3.39z" class="cls-145"/>
                        <path id="Path_422" d="M462.938-329.108c-1.9 1.333-3.685 2.068-3.985 1.639s1-1.857 2.9-3.191 3.685-2.068 3.985-1.639-.999 1.857-2.9 3.191z" class="cls-146"/>
                        <path id="Path_423" d="M462.9-329.157c-1.782 1.251-3.454 1.939-3.736 1.537s.934-1.741 2.716-2.991 3.454-1.939 3.736-1.537-.93 1.741-2.716 2.991z" class="cls-147"/>
                        <path id="Path_424" d="M462.87-329.2c-1.663 1.167-3.224 1.809-3.487 1.434s.872-1.624 2.535-2.792 3.224-1.809 3.487-1.434-.872 1.619-2.535 2.792z" class="cls-148"/>
                        <path id="Path_425" d="M462.836-329.254c-1.544 1.084-2.994 1.68-3.238 1.332s.809-1.508 2.354-2.592 2.994-1.68 3.238-1.332-.81 1.508-2.354 2.592z" class="cls-149"/>
                        <path id="Path_426" d="M462.8-329.3c-1.425 1-2.764 1.551-2.989 1.229s.747-1.392 2.173-2.393 2.763-1.551 2.989-1.229-.745 1.393-2.173 2.393z" class="cls-150"/>
                        <path id="Path_427" d="M462.768-329.351c-1.307.917-2.533 1.422-2.74 1.127s.685-1.276 1.992-2.193 2.533-1.422 2.74-1.127-.685 1.276-1.992 2.193z" class="cls-151"/>
                        <path id="Path_428" d="M462.734-329.4c-1.188.833-2.3 1.292-2.491 1.025s.623-1.161 1.811-1.995 2.3-1.292 2.491-1.025-.623 1.162-1.811 1.995z" class="cls-152"/>
                        <path id="Path_429" d="M462.7-329.448c-1.069.751-2.073 1.163-2.242.923s.561-1.045 1.63-1.8 2.073-1.163 2.242-.923-.561 1.048-1.63 1.8z" class="cls-153"/>
                        <path id="Path_430" d="M462.666-329.5c-.95.667-1.842 1.034-1.993.82s.5-.929 1.449-1.6 1.842-1.034 1.993-.82-.499.937-1.449 1.6z" class="cls-154"/>
                        <path id="Path_431" d="M462.632-329.545c-.831.584-1.612.9-1.744.718s.436-.813 1.268-1.4 1.612-.9 1.743-.718-.435.817-1.267 1.4z" class="cls-155"/>
                        <path id="Path_432" d="M462.6-329.593c-.713.5-1.382.775-1.495.615s.374-.7 1.087-1.2 1.382-.775 1.494-.615-.375.7-1.086 1.2z" class="cls-156"/>
                        <path id="Path_433" fill="#aba4c1" fill-rule="evenodd" d="M462.564-329.642c-.594.417-1.152.647-1.245.513s.311-.58.9-1 1.151-.647 1.245-.513-.306.584-.9 1z"/>
                        <path id="Path_434" d="M462.53-329.69c-.475.333-.921.517-1 .41s.249-.464.724-.8.921-.517 1-.41-.249.466-.724.8z" class="cls-158"/>
                        <path id="Path_435" d="M462.5-329.739c-.356.251-.691.388-.747.308s.187-.348.543-.6.691-.388.747-.308-.191.35-.543.6z" class="cls-159"/>
                        <path id="Path_436" d="M462.462-329.787c-.238.167-.461.258-.5.2s.124-.232.362-.4.461-.258.5-.205-.124.238-.362.405z" class="cls-160"/>
                        <path id="Path_437" d="M462.428-329.836c-.119.084-.23.13-.249.1s.062-.116.181-.2.23-.13.249-.1-.062.117-.181.2z" class="cls-161"/>
                    </g>
                </g>
            </g>
            <path id="Path_439" d="M478.509-347.8s4.609 3.322 4.968 8.323l2.569 1.211s-1.693-7.435-7.634-11.883z" class="cls-49"/>
        </g>
        <path id="Path_440" d="M305.795-314.224l6.815-24.842-5.533-2.119 14.017-1.089-13.168 29.034z" class="cls-52"/>
    </g>
</svg>
